%TF.GenerationSoftware,KiCad,Pcbnew,8.0.1*%
%TF.CreationDate,2024-04-14T20:51:43+02:00*%
%TF.ProjectId,vampire_pcb,76616d70-6972-4655-9f70-63622e6b6963,rev?*%
%TF.SameCoordinates,Original*%
%TF.FileFunction,Copper,L2,Bot*%
%TF.FilePolarity,Positive*%
%FSLAX46Y46*%
G04 Gerber Fmt 4.6, Leading zero omitted, Abs format (unit mm)*
G04 Created by KiCad (PCBNEW 8.0.1) date 2024-04-14 20:51:43*
%MOMM*%
%LPD*%
G01*
G04 APERTURE LIST*
G04 Aperture macros list*
%AMRoundRect*
0 Rectangle with rounded corners*
0 $1 Rounding radius*
0 $2 $3 $4 $5 $6 $7 $8 $9 X,Y pos of 4 corners*
0 Add a 4 corners polygon primitive as box body*
4,1,4,$2,$3,$4,$5,$6,$7,$8,$9,$2,$3,0*
0 Add four circle primitives for the rounded corners*
1,1,$1+$1,$2,$3*
1,1,$1+$1,$4,$5*
1,1,$1+$1,$6,$7*
1,1,$1+$1,$8,$9*
0 Add four rect primitives between the rounded corners*
20,1,$1+$1,$2,$3,$4,$5,0*
20,1,$1+$1,$4,$5,$6,$7,0*
20,1,$1+$1,$6,$7,$8,$9,0*
20,1,$1+$1,$8,$9,$2,$3,0*%
G04 Aperture macros list end*
%TA.AperFunction,ComponentPad*%
%ADD10R,1.700000X1.700000*%
%TD*%
%TA.AperFunction,ComponentPad*%
%ADD11O,1.700000X1.700000*%
%TD*%
%TA.AperFunction,ComponentPad*%
%ADD12RoundRect,0.250000X-0.350000X-0.625000X0.350000X-0.625000X0.350000X0.625000X-0.350000X0.625000X0*%
%TD*%
%TA.AperFunction,ComponentPad*%
%ADD13O,1.200000X1.750000*%
%TD*%
%TA.AperFunction,ViaPad*%
%ADD14C,0.700000*%
%TD*%
G04 APERTURE END LIST*
D10*
%TO.P,J2,1,Pin_1*%
%TO.N,FR*%
X118000000Y-65000000D03*
D11*
%TO.P,J2,2,Pin_2*%
%TO.N,SR*%
X115460000Y-65000000D03*
%TO.P,J2,3,Pin_3*%
%TO.N,CEN*%
X112920000Y-65000000D03*
%TO.P,J2,4,Pin_4*%
%TO.N,SL*%
X110380000Y-65000000D03*
%TO.P,J2,5,Pin_5*%
%TO.N,FL*%
X107840000Y-65000000D03*
%TO.P,J2,6,Pin_6*%
%TO.N,SBR*%
X105300000Y-65000000D03*
%TO.P,J2,7,Pin_7*%
%TO.N,SBL*%
X102760000Y-65000000D03*
%TO.P,J2,8,Pin_8*%
%TO.N,12V*%
X100220000Y-65000000D03*
%TD*%
D12*
%TO.P,J1,1,Pin_1*%
%TO.N,GND*%
X139500000Y-54450000D03*
D13*
%TO.P,J1,2,Pin_2*%
%TO.N,12V*%
X141500000Y-54450000D03*
%TO.P,J1,3,Pin_3*%
%TO.N,GND*%
X143500000Y-54450000D03*
%TO.P,J1,4,Pin_4*%
%TO.N,FL*%
X145500000Y-54450000D03*
%TO.P,J1,5,Pin_5*%
%TO.N,GND*%
X147500000Y-54450000D03*
%TO.P,J1,6,Pin_6*%
%TO.N,CEN*%
X149500000Y-54450000D03*
%TO.P,J1,7,Pin_7*%
%TO.N,GND*%
X151500000Y-54450000D03*
%TO.P,J1,8,Pin_8*%
%TO.N,FR*%
X153500000Y-54450000D03*
%TD*%
D14*
%TO.N,GND*%
X117200000Y-62600000D03*
X104900000Y-62700000D03*
X111900000Y-62600000D03*
X94250000Y-59700000D03*
X97250000Y-59700000D03*
X97250000Y-62950000D03*
X95750000Y-59700000D03*
X97250000Y-61200000D03*
%TD*%
%TA.AperFunction,Conductor*%
%TO.N,GND*%
G36*
X157391206Y-50820185D02*
G01*
X157411848Y-50836819D01*
X158163181Y-51588152D01*
X158196666Y-51649475D01*
X158199500Y-51675833D01*
X158199500Y-61824167D01*
X158179815Y-61891206D01*
X158163181Y-61911848D01*
X157411848Y-62663181D01*
X157350525Y-62696666D01*
X157324167Y-62699500D01*
X148200347Y-62699500D01*
X148138346Y-62682887D01*
X148115990Y-62669979D01*
X148090513Y-62663152D01*
X148039562Y-62649500D01*
X147960438Y-62649500D01*
X147922224Y-62659739D01*
X147884009Y-62669979D01*
X147861654Y-62682887D01*
X147799653Y-62699500D01*
X126460438Y-62699500D01*
X126422224Y-62709739D01*
X126384009Y-62719979D01*
X126384004Y-62719982D01*
X126315495Y-62759535D01*
X126315487Y-62759541D01*
X124511348Y-64563681D01*
X124450025Y-64597166D01*
X124423667Y-64600000D01*
X119224500Y-64600000D01*
X119157461Y-64580315D01*
X119111706Y-64527511D01*
X119100500Y-64476000D01*
X119100500Y-64125323D01*
X119100499Y-64125321D01*
X119085967Y-64052264D01*
X119085966Y-64052260D01*
X119030601Y-63969399D01*
X118947740Y-63914034D01*
X118947739Y-63914033D01*
X118947735Y-63914032D01*
X118874677Y-63899500D01*
X118874674Y-63899500D01*
X117125326Y-63899500D01*
X117125323Y-63899500D01*
X117052264Y-63914032D01*
X117052260Y-63914033D01*
X116969399Y-63969399D01*
X116914033Y-64052260D01*
X116914032Y-64052264D01*
X116899500Y-64125321D01*
X116899500Y-64476000D01*
X116879815Y-64543039D01*
X116827011Y-64588794D01*
X116775500Y-64600000D01*
X116566987Y-64600000D01*
X116499948Y-64580315D01*
X116455987Y-64531272D01*
X116422776Y-64464577D01*
X116399673Y-64418179D01*
X116276764Y-64255421D01*
X116276762Y-64255418D01*
X116126041Y-64118019D01*
X116126039Y-64118017D01*
X115952642Y-64010655D01*
X115952635Y-64010651D01*
X115846150Y-63969399D01*
X115762456Y-63936976D01*
X115561976Y-63899500D01*
X115358024Y-63899500D01*
X115157544Y-63936976D01*
X115157541Y-63936976D01*
X115157541Y-63936977D01*
X114967364Y-64010651D01*
X114967357Y-64010655D01*
X114793960Y-64118017D01*
X114793958Y-64118019D01*
X114643237Y-64255418D01*
X114520327Y-64418178D01*
X114464013Y-64531272D01*
X114416510Y-64582509D01*
X114353013Y-64600000D01*
X114026987Y-64600000D01*
X113959948Y-64580315D01*
X113915987Y-64531272D01*
X113882776Y-64464577D01*
X113859673Y-64418179D01*
X113736764Y-64255421D01*
X113736762Y-64255418D01*
X113586041Y-64118019D01*
X113586039Y-64118017D01*
X113412642Y-64010655D01*
X113412635Y-64010651D01*
X113306150Y-63969399D01*
X113222456Y-63936976D01*
X113021976Y-63899500D01*
X112818024Y-63899500D01*
X112617544Y-63936976D01*
X112617541Y-63936976D01*
X112617541Y-63936977D01*
X112427364Y-64010651D01*
X112427357Y-64010655D01*
X112253960Y-64118017D01*
X112253958Y-64118019D01*
X112103237Y-64255418D01*
X111980327Y-64418178D01*
X111924013Y-64531272D01*
X111876510Y-64582509D01*
X111813013Y-64600000D01*
X111486987Y-64600000D01*
X111419948Y-64580315D01*
X111375987Y-64531272D01*
X111342776Y-64464577D01*
X111319673Y-64418179D01*
X111196764Y-64255421D01*
X111196762Y-64255418D01*
X111046041Y-64118019D01*
X111046039Y-64118017D01*
X110872642Y-64010655D01*
X110872635Y-64010651D01*
X110766150Y-63969399D01*
X110682456Y-63936976D01*
X110481976Y-63899500D01*
X110278024Y-63899500D01*
X110077544Y-63936976D01*
X110077541Y-63936976D01*
X110077541Y-63936977D01*
X109887364Y-64010651D01*
X109887357Y-64010655D01*
X109713960Y-64118017D01*
X109713958Y-64118019D01*
X109563237Y-64255418D01*
X109440327Y-64418178D01*
X109384013Y-64531272D01*
X109336510Y-64582509D01*
X109273013Y-64600000D01*
X108946987Y-64600000D01*
X108879948Y-64580315D01*
X108835987Y-64531272D01*
X108802776Y-64464577D01*
X108779673Y-64418179D01*
X108656764Y-64255421D01*
X108656762Y-64255418D01*
X108506041Y-64118019D01*
X108506039Y-64118017D01*
X108332642Y-64010655D01*
X108332635Y-64010651D01*
X108226150Y-63969399D01*
X108142456Y-63936976D01*
X107941976Y-63899500D01*
X107738024Y-63899500D01*
X107537544Y-63936976D01*
X107537541Y-63936976D01*
X107537541Y-63936977D01*
X107347364Y-64010651D01*
X107347357Y-64010655D01*
X107173960Y-64118017D01*
X107173958Y-64118019D01*
X107023237Y-64255418D01*
X106900327Y-64418178D01*
X106844013Y-64531272D01*
X106796510Y-64582509D01*
X106733013Y-64600000D01*
X106406987Y-64600000D01*
X106339948Y-64580315D01*
X106295987Y-64531272D01*
X106262776Y-64464577D01*
X106239673Y-64418179D01*
X106116764Y-64255421D01*
X106116762Y-64255418D01*
X105966041Y-64118019D01*
X105966039Y-64118017D01*
X105792642Y-64010655D01*
X105792635Y-64010651D01*
X105686150Y-63969399D01*
X105602456Y-63936976D01*
X105401976Y-63899500D01*
X105198024Y-63899500D01*
X104997544Y-63936976D01*
X104997541Y-63936976D01*
X104997541Y-63936977D01*
X104807364Y-64010651D01*
X104807357Y-64010655D01*
X104633960Y-64118017D01*
X104633958Y-64118019D01*
X104483237Y-64255418D01*
X104360327Y-64418178D01*
X104304013Y-64531272D01*
X104256510Y-64582509D01*
X104193013Y-64600000D01*
X103866987Y-64600000D01*
X103799948Y-64580315D01*
X103755987Y-64531272D01*
X103722776Y-64464577D01*
X103699673Y-64418179D01*
X103576764Y-64255421D01*
X103576762Y-64255418D01*
X103426041Y-64118019D01*
X103426039Y-64118017D01*
X103252642Y-64010655D01*
X103252635Y-64010651D01*
X103146150Y-63969399D01*
X103062456Y-63936976D01*
X102861976Y-63899500D01*
X102658024Y-63899500D01*
X102457544Y-63936976D01*
X102457541Y-63936976D01*
X102457541Y-63936977D01*
X102267364Y-64010651D01*
X102267357Y-64010655D01*
X102093960Y-64118017D01*
X102093958Y-64118019D01*
X101943237Y-64255418D01*
X101820327Y-64418178D01*
X101764013Y-64531272D01*
X101716510Y-64582509D01*
X101653013Y-64600000D01*
X101326987Y-64600000D01*
X101259948Y-64580315D01*
X101215987Y-64531272D01*
X101182776Y-64464577D01*
X101159673Y-64418179D01*
X101036764Y-64255421D01*
X101036762Y-64255418D01*
X100886041Y-64118019D01*
X100886039Y-64118017D01*
X100712642Y-64010655D01*
X100712635Y-64010651D01*
X100606150Y-63969399D01*
X100522456Y-63936976D01*
X100321976Y-63899500D01*
X100118024Y-63899500D01*
X99917544Y-63936976D01*
X99917541Y-63936976D01*
X99917541Y-63936977D01*
X99727364Y-64010651D01*
X99727357Y-64010655D01*
X99553960Y-64118017D01*
X99553958Y-64118019D01*
X99403237Y-64255418D01*
X99280327Y-64418178D01*
X99224013Y-64531272D01*
X99176510Y-64582509D01*
X99113013Y-64600000D01*
X90424500Y-64600000D01*
X90357461Y-64580315D01*
X90311706Y-64527511D01*
X90300500Y-64476000D01*
X90300500Y-59175833D01*
X90320185Y-59108794D01*
X90336819Y-59088152D01*
X92088152Y-57336819D01*
X92149475Y-57303334D01*
X92175833Y-57300500D01*
X133539560Y-57300500D01*
X133539562Y-57300500D01*
X133615989Y-57280021D01*
X133684511Y-57240460D01*
X133740460Y-57184511D01*
X134740460Y-56184511D01*
X134780022Y-56115988D01*
X134800500Y-56039562D01*
X134800500Y-55960438D01*
X134800500Y-54200000D01*
X138400000Y-54200000D01*
X139219670Y-54200000D01*
X139199925Y-54219745D01*
X139150556Y-54305255D01*
X139125000Y-54400630D01*
X139125000Y-54499370D01*
X139150556Y-54594745D01*
X139199925Y-54680255D01*
X139219670Y-54700000D01*
X138400001Y-54700000D01*
X138400001Y-55124986D01*
X138410494Y-55227697D01*
X138465641Y-55394119D01*
X138465643Y-55394124D01*
X138557684Y-55543345D01*
X138681654Y-55667315D01*
X138830875Y-55759356D01*
X138830880Y-55759358D01*
X138997302Y-55814505D01*
X138997309Y-55814506D01*
X139100019Y-55824999D01*
X139249999Y-55824999D01*
X139250000Y-55824998D01*
X139250000Y-54730330D01*
X139269745Y-54750075D01*
X139355255Y-54799444D01*
X139450630Y-54825000D01*
X139549370Y-54825000D01*
X139644745Y-54799444D01*
X139730255Y-54750075D01*
X139750000Y-54730330D01*
X139750000Y-55824999D01*
X139899972Y-55824999D01*
X139899986Y-55824998D01*
X140002697Y-55814505D01*
X140169119Y-55759358D01*
X140169124Y-55759356D01*
X140318342Y-55667317D01*
X140430148Y-55555511D01*
X140491471Y-55522026D01*
X140561163Y-55527010D01*
X140605511Y-55555511D01*
X141000000Y-55950000D01*
X154000000Y-55950000D01*
X154500000Y-55450000D01*
X154500000Y-53450000D01*
X154000000Y-52950000D01*
X141000000Y-52950000D01*
X140999999Y-52950000D01*
X140605511Y-53344488D01*
X140544188Y-53377973D01*
X140474496Y-53372989D01*
X140430149Y-53344488D01*
X140318345Y-53232684D01*
X140169124Y-53140643D01*
X140169119Y-53140641D01*
X140002697Y-53085494D01*
X140002690Y-53085493D01*
X139899986Y-53075000D01*
X139750000Y-53075000D01*
X139750000Y-54169670D01*
X139730255Y-54149925D01*
X139644745Y-54100556D01*
X139549370Y-54075000D01*
X139450630Y-54075000D01*
X139355255Y-54100556D01*
X139269745Y-54149925D01*
X139250000Y-54169670D01*
X139250000Y-53075000D01*
X139100027Y-53075000D01*
X139100012Y-53075001D01*
X138997302Y-53085494D01*
X138830880Y-53140641D01*
X138830875Y-53140643D01*
X138681654Y-53232684D01*
X138557684Y-53356654D01*
X138465643Y-53505875D01*
X138465641Y-53505880D01*
X138410494Y-53672302D01*
X138410493Y-53672309D01*
X138400000Y-53775013D01*
X138400000Y-54200000D01*
X134800500Y-54200000D01*
X134800500Y-51675833D01*
X134820185Y-51608794D01*
X134836819Y-51588152D01*
X135588152Y-50836819D01*
X135649475Y-50803334D01*
X135675833Y-50800500D01*
X157324167Y-50800500D01*
X157391206Y-50820185D01*
G37*
%TD.AperFunction*%
%TD*%
M02*
