%TF.GenerationSoftware,KiCad,Pcbnew,8.0.1*%
%TF.CreationDate,2024-04-09T17:17:27+02:00*%
%TF.ProjectId,vampire_pcb,76616d70-6972-4655-9f70-63622e6b6963,rev?*%
%TF.SameCoordinates,Original*%
%TF.FileFunction,AssemblyDrawing,Top*%
%FSLAX46Y46*%
G04 Gerber Fmt 4.6, Leading zero omitted, Abs format (unit mm)*
G04 Created by KiCad (PCBNEW 8.0.1) date 2024-04-09 17:17:27*
%MOMM*%
%LPD*%
G01*
G04 APERTURE LIST*
%ADD10C,0.150000*%
%ADD11C,0.100000*%
G04 APERTURE END LIST*
D10*
X141261904Y-58859580D02*
X141214285Y-58907200D01*
X141214285Y-58907200D02*
X141071428Y-58954819D01*
X141071428Y-58954819D02*
X140976190Y-58954819D01*
X140976190Y-58954819D02*
X140833333Y-58907200D01*
X140833333Y-58907200D02*
X140738095Y-58811961D01*
X140738095Y-58811961D02*
X140690476Y-58716723D01*
X140690476Y-58716723D02*
X140642857Y-58526247D01*
X140642857Y-58526247D02*
X140642857Y-58383390D01*
X140642857Y-58383390D02*
X140690476Y-58192914D01*
X140690476Y-58192914D02*
X140738095Y-58097676D01*
X140738095Y-58097676D02*
X140833333Y-58002438D01*
X140833333Y-58002438D02*
X140976190Y-57954819D01*
X140976190Y-57954819D02*
X141071428Y-57954819D01*
X141071428Y-57954819D02*
X141214285Y-58002438D01*
X141214285Y-58002438D02*
X141261904Y-58050057D01*
X141833333Y-58954819D02*
X141738095Y-58907200D01*
X141738095Y-58907200D02*
X141690476Y-58859580D01*
X141690476Y-58859580D02*
X141642857Y-58764342D01*
X141642857Y-58764342D02*
X141642857Y-58478628D01*
X141642857Y-58478628D02*
X141690476Y-58383390D01*
X141690476Y-58383390D02*
X141738095Y-58335771D01*
X141738095Y-58335771D02*
X141833333Y-58288152D01*
X141833333Y-58288152D02*
X141976190Y-58288152D01*
X141976190Y-58288152D02*
X142071428Y-58335771D01*
X142071428Y-58335771D02*
X142119047Y-58383390D01*
X142119047Y-58383390D02*
X142166666Y-58478628D01*
X142166666Y-58478628D02*
X142166666Y-58764342D01*
X142166666Y-58764342D02*
X142119047Y-58859580D01*
X142119047Y-58859580D02*
X142071428Y-58907200D01*
X142071428Y-58907200D02*
X141976190Y-58954819D01*
X141976190Y-58954819D02*
X141833333Y-58954819D01*
X142595238Y-58288152D02*
X142595238Y-58954819D01*
X142595238Y-58383390D02*
X142642857Y-58335771D01*
X142642857Y-58335771D02*
X142738095Y-58288152D01*
X142738095Y-58288152D02*
X142880952Y-58288152D01*
X142880952Y-58288152D02*
X142976190Y-58335771D01*
X142976190Y-58335771D02*
X143023809Y-58431009D01*
X143023809Y-58431009D02*
X143023809Y-58954819D01*
X143500000Y-58288152D02*
X143500000Y-58954819D01*
X143500000Y-58383390D02*
X143547619Y-58335771D01*
X143547619Y-58335771D02*
X143642857Y-58288152D01*
X143642857Y-58288152D02*
X143785714Y-58288152D01*
X143785714Y-58288152D02*
X143880952Y-58335771D01*
X143880952Y-58335771D02*
X143928571Y-58431009D01*
X143928571Y-58431009D02*
X143928571Y-58954819D01*
X144166667Y-59050057D02*
X144928571Y-59050057D01*
X145357143Y-57954819D02*
X145452381Y-57954819D01*
X145452381Y-57954819D02*
X145547619Y-58002438D01*
X145547619Y-58002438D02*
X145595238Y-58050057D01*
X145595238Y-58050057D02*
X145642857Y-58145295D01*
X145642857Y-58145295D02*
X145690476Y-58335771D01*
X145690476Y-58335771D02*
X145690476Y-58573866D01*
X145690476Y-58573866D02*
X145642857Y-58764342D01*
X145642857Y-58764342D02*
X145595238Y-58859580D01*
X145595238Y-58859580D02*
X145547619Y-58907200D01*
X145547619Y-58907200D02*
X145452381Y-58954819D01*
X145452381Y-58954819D02*
X145357143Y-58954819D01*
X145357143Y-58954819D02*
X145261905Y-58907200D01*
X145261905Y-58907200D02*
X145214286Y-58859580D01*
X145214286Y-58859580D02*
X145166667Y-58764342D01*
X145166667Y-58764342D02*
X145119048Y-58573866D01*
X145119048Y-58573866D02*
X145119048Y-58335771D01*
X145119048Y-58335771D02*
X145166667Y-58145295D01*
X145166667Y-58145295D02*
X145214286Y-58050057D01*
X145214286Y-58050057D02*
X145261905Y-58002438D01*
X145261905Y-58002438D02*
X145357143Y-57954819D01*
X146642857Y-58954819D02*
X146071429Y-58954819D01*
X146357143Y-58954819D02*
X146357143Y-57954819D01*
X146357143Y-57954819D02*
X146261905Y-58097676D01*
X146261905Y-58097676D02*
X146166667Y-58192914D01*
X146166667Y-58192914D02*
X146071429Y-58240533D01*
X146976191Y-58954819D02*
X147500000Y-58288152D01*
X146976191Y-58288152D02*
X147500000Y-58954819D01*
X148071429Y-57954819D02*
X148166667Y-57954819D01*
X148166667Y-57954819D02*
X148261905Y-58002438D01*
X148261905Y-58002438D02*
X148309524Y-58050057D01*
X148309524Y-58050057D02*
X148357143Y-58145295D01*
X148357143Y-58145295D02*
X148404762Y-58335771D01*
X148404762Y-58335771D02*
X148404762Y-58573866D01*
X148404762Y-58573866D02*
X148357143Y-58764342D01*
X148357143Y-58764342D02*
X148309524Y-58859580D01*
X148309524Y-58859580D02*
X148261905Y-58907200D01*
X148261905Y-58907200D02*
X148166667Y-58954819D01*
X148166667Y-58954819D02*
X148071429Y-58954819D01*
X148071429Y-58954819D02*
X147976191Y-58907200D01*
X147976191Y-58907200D02*
X147928572Y-58859580D01*
X147928572Y-58859580D02*
X147880953Y-58764342D01*
X147880953Y-58764342D02*
X147833334Y-58573866D01*
X147833334Y-58573866D02*
X147833334Y-58335771D01*
X147833334Y-58335771D02*
X147880953Y-58145295D01*
X147880953Y-58145295D02*
X147928572Y-58050057D01*
X147928572Y-58050057D02*
X147976191Y-58002438D01*
X147976191Y-58002438D02*
X148071429Y-57954819D01*
X148976191Y-58383390D02*
X148880953Y-58335771D01*
X148880953Y-58335771D02*
X148833334Y-58288152D01*
X148833334Y-58288152D02*
X148785715Y-58192914D01*
X148785715Y-58192914D02*
X148785715Y-58145295D01*
X148785715Y-58145295D02*
X148833334Y-58050057D01*
X148833334Y-58050057D02*
X148880953Y-58002438D01*
X148880953Y-58002438D02*
X148976191Y-57954819D01*
X148976191Y-57954819D02*
X149166667Y-57954819D01*
X149166667Y-57954819D02*
X149261905Y-58002438D01*
X149261905Y-58002438D02*
X149309524Y-58050057D01*
X149309524Y-58050057D02*
X149357143Y-58145295D01*
X149357143Y-58145295D02*
X149357143Y-58192914D01*
X149357143Y-58192914D02*
X149309524Y-58288152D01*
X149309524Y-58288152D02*
X149261905Y-58335771D01*
X149261905Y-58335771D02*
X149166667Y-58383390D01*
X149166667Y-58383390D02*
X148976191Y-58383390D01*
X148976191Y-58383390D02*
X148880953Y-58431009D01*
X148880953Y-58431009D02*
X148833334Y-58478628D01*
X148833334Y-58478628D02*
X148785715Y-58573866D01*
X148785715Y-58573866D02*
X148785715Y-58764342D01*
X148785715Y-58764342D02*
X148833334Y-58859580D01*
X148833334Y-58859580D02*
X148880953Y-58907200D01*
X148880953Y-58907200D02*
X148976191Y-58954819D01*
X148976191Y-58954819D02*
X149166667Y-58954819D01*
X149166667Y-58954819D02*
X149261905Y-58907200D01*
X149261905Y-58907200D02*
X149309524Y-58859580D01*
X149309524Y-58859580D02*
X149357143Y-58764342D01*
X149357143Y-58764342D02*
X149357143Y-58573866D01*
X149357143Y-58573866D02*
X149309524Y-58478628D01*
X149309524Y-58478628D02*
X149261905Y-58431009D01*
X149261905Y-58431009D02*
X149166667Y-58383390D01*
X144666666Y-55454819D02*
X144666666Y-56169104D01*
X144666666Y-56169104D02*
X144619047Y-56311961D01*
X144619047Y-56311961D02*
X144523809Y-56407200D01*
X144523809Y-56407200D02*
X144380952Y-56454819D01*
X144380952Y-56454819D02*
X144285714Y-56454819D01*
X145571428Y-55788152D02*
X145571428Y-56454819D01*
X145333333Y-55407200D02*
X145095238Y-56121485D01*
X145095238Y-56121485D02*
X145714285Y-56121485D01*
X101690476Y-61454819D02*
X102023809Y-62454819D01*
X102023809Y-62454819D02*
X102357142Y-61454819D01*
X102642857Y-62169104D02*
X103119047Y-62169104D01*
X102547619Y-62454819D02*
X102880952Y-61454819D01*
X102880952Y-61454819D02*
X103214285Y-62454819D01*
X103547619Y-62454819D02*
X103547619Y-61454819D01*
X103547619Y-61454819D02*
X103880952Y-62169104D01*
X103880952Y-62169104D02*
X104214285Y-61454819D01*
X104214285Y-61454819D02*
X104214285Y-62454819D01*
X104690476Y-62454819D02*
X104690476Y-61454819D01*
X104690476Y-61454819D02*
X105071428Y-61454819D01*
X105071428Y-61454819D02*
X105166666Y-61502438D01*
X105166666Y-61502438D02*
X105214285Y-61550057D01*
X105214285Y-61550057D02*
X105261904Y-61645295D01*
X105261904Y-61645295D02*
X105261904Y-61788152D01*
X105261904Y-61788152D02*
X105214285Y-61883390D01*
X105214285Y-61883390D02*
X105166666Y-61931009D01*
X105166666Y-61931009D02*
X105071428Y-61978628D01*
X105071428Y-61978628D02*
X104690476Y-61978628D01*
X105690476Y-62454819D02*
X105690476Y-61454819D01*
X106738094Y-62454819D02*
X106404761Y-61978628D01*
X106166666Y-62454819D02*
X106166666Y-61454819D01*
X106166666Y-61454819D02*
X106547618Y-61454819D01*
X106547618Y-61454819D02*
X106642856Y-61502438D01*
X106642856Y-61502438D02*
X106690475Y-61550057D01*
X106690475Y-61550057D02*
X106738094Y-61645295D01*
X106738094Y-61645295D02*
X106738094Y-61788152D01*
X106738094Y-61788152D02*
X106690475Y-61883390D01*
X106690475Y-61883390D02*
X106642856Y-61931009D01*
X106642856Y-61931009D02*
X106547618Y-61978628D01*
X106547618Y-61978628D02*
X106166666Y-61978628D01*
X107166666Y-61931009D02*
X107499999Y-61931009D01*
X107642856Y-62454819D02*
X107166666Y-62454819D01*
X107166666Y-62454819D02*
X107166666Y-61454819D01*
X107166666Y-61454819D02*
X107642856Y-61454819D01*
X107833333Y-62550057D02*
X108595237Y-62550057D01*
X108833333Y-61931009D02*
X109166666Y-61931009D01*
X109309523Y-62454819D02*
X108833333Y-62454819D01*
X108833333Y-62454819D02*
X108833333Y-61454819D01*
X108833333Y-61454819D02*
X109309523Y-61454819D01*
X109738095Y-62454819D02*
X109738095Y-61454819D01*
X109738095Y-61454819D02*
X109976190Y-61454819D01*
X109976190Y-61454819D02*
X110119047Y-61502438D01*
X110119047Y-61502438D02*
X110214285Y-61597676D01*
X110214285Y-61597676D02*
X110261904Y-61692914D01*
X110261904Y-61692914D02*
X110309523Y-61883390D01*
X110309523Y-61883390D02*
X110309523Y-62026247D01*
X110309523Y-62026247D02*
X110261904Y-62216723D01*
X110261904Y-62216723D02*
X110214285Y-62311961D01*
X110214285Y-62311961D02*
X110119047Y-62407200D01*
X110119047Y-62407200D02*
X109976190Y-62454819D01*
X109976190Y-62454819D02*
X109738095Y-62454819D01*
X111261904Y-61502438D02*
X111166666Y-61454819D01*
X111166666Y-61454819D02*
X111023809Y-61454819D01*
X111023809Y-61454819D02*
X110880952Y-61502438D01*
X110880952Y-61502438D02*
X110785714Y-61597676D01*
X110785714Y-61597676D02*
X110738095Y-61692914D01*
X110738095Y-61692914D02*
X110690476Y-61883390D01*
X110690476Y-61883390D02*
X110690476Y-62026247D01*
X110690476Y-62026247D02*
X110738095Y-62216723D01*
X110738095Y-62216723D02*
X110785714Y-62311961D01*
X110785714Y-62311961D02*
X110880952Y-62407200D01*
X110880952Y-62407200D02*
X111023809Y-62454819D01*
X111023809Y-62454819D02*
X111119047Y-62454819D01*
X111119047Y-62454819D02*
X111261904Y-62407200D01*
X111261904Y-62407200D02*
X111309523Y-62359580D01*
X111309523Y-62359580D02*
X111309523Y-62026247D01*
X111309523Y-62026247D02*
X111119047Y-62026247D01*
X111738095Y-61931009D02*
X112071428Y-61931009D01*
X112214285Y-62454819D02*
X111738095Y-62454819D01*
X111738095Y-62454819D02*
X111738095Y-61454819D01*
X111738095Y-61454819D02*
X112214285Y-61454819D01*
X108776666Y-64454819D02*
X108776666Y-65169104D01*
X108776666Y-65169104D02*
X108729047Y-65311961D01*
X108729047Y-65311961D02*
X108633809Y-65407200D01*
X108633809Y-65407200D02*
X108490952Y-65454819D01*
X108490952Y-65454819D02*
X108395714Y-65454819D01*
X109776666Y-65454819D02*
X109205238Y-65454819D01*
X109490952Y-65454819D02*
X109490952Y-64454819D01*
X109490952Y-64454819D02*
X109395714Y-64597676D01*
X109395714Y-64597676D02*
X109300476Y-64692914D01*
X109300476Y-64692914D02*
X109205238Y-64740533D01*
X120511904Y-59109580D02*
X120464285Y-59157200D01*
X120464285Y-59157200D02*
X120321428Y-59204819D01*
X120321428Y-59204819D02*
X120226190Y-59204819D01*
X120226190Y-59204819D02*
X120083333Y-59157200D01*
X120083333Y-59157200D02*
X119988095Y-59061961D01*
X119988095Y-59061961D02*
X119940476Y-58966723D01*
X119940476Y-58966723D02*
X119892857Y-58776247D01*
X119892857Y-58776247D02*
X119892857Y-58633390D01*
X119892857Y-58633390D02*
X119940476Y-58442914D01*
X119940476Y-58442914D02*
X119988095Y-58347676D01*
X119988095Y-58347676D02*
X120083333Y-58252438D01*
X120083333Y-58252438D02*
X120226190Y-58204819D01*
X120226190Y-58204819D02*
X120321428Y-58204819D01*
X120321428Y-58204819D02*
X120464285Y-58252438D01*
X120464285Y-58252438D02*
X120511904Y-58300057D01*
X121083333Y-59204819D02*
X120988095Y-59157200D01*
X120988095Y-59157200D02*
X120940476Y-59109580D01*
X120940476Y-59109580D02*
X120892857Y-59014342D01*
X120892857Y-59014342D02*
X120892857Y-58728628D01*
X120892857Y-58728628D02*
X120940476Y-58633390D01*
X120940476Y-58633390D02*
X120988095Y-58585771D01*
X120988095Y-58585771D02*
X121083333Y-58538152D01*
X121083333Y-58538152D02*
X121226190Y-58538152D01*
X121226190Y-58538152D02*
X121321428Y-58585771D01*
X121321428Y-58585771D02*
X121369047Y-58633390D01*
X121369047Y-58633390D02*
X121416666Y-58728628D01*
X121416666Y-58728628D02*
X121416666Y-59014342D01*
X121416666Y-59014342D02*
X121369047Y-59109580D01*
X121369047Y-59109580D02*
X121321428Y-59157200D01*
X121321428Y-59157200D02*
X121226190Y-59204819D01*
X121226190Y-59204819D02*
X121083333Y-59204819D01*
X121845238Y-58538152D02*
X121845238Y-59204819D01*
X121845238Y-58633390D02*
X121892857Y-58585771D01*
X121892857Y-58585771D02*
X121988095Y-58538152D01*
X121988095Y-58538152D02*
X122130952Y-58538152D01*
X122130952Y-58538152D02*
X122226190Y-58585771D01*
X122226190Y-58585771D02*
X122273809Y-58681009D01*
X122273809Y-58681009D02*
X122273809Y-59204819D01*
X122750000Y-58538152D02*
X122750000Y-59204819D01*
X122750000Y-58633390D02*
X122797619Y-58585771D01*
X122797619Y-58585771D02*
X122892857Y-58538152D01*
X122892857Y-58538152D02*
X123035714Y-58538152D01*
X123035714Y-58538152D02*
X123130952Y-58585771D01*
X123130952Y-58585771D02*
X123178571Y-58681009D01*
X123178571Y-58681009D02*
X123178571Y-59204819D01*
X123416667Y-59300057D02*
X124178571Y-59300057D01*
X124607143Y-58204819D02*
X124702381Y-58204819D01*
X124702381Y-58204819D02*
X124797619Y-58252438D01*
X124797619Y-58252438D02*
X124845238Y-58300057D01*
X124845238Y-58300057D02*
X124892857Y-58395295D01*
X124892857Y-58395295D02*
X124940476Y-58585771D01*
X124940476Y-58585771D02*
X124940476Y-58823866D01*
X124940476Y-58823866D02*
X124892857Y-59014342D01*
X124892857Y-59014342D02*
X124845238Y-59109580D01*
X124845238Y-59109580D02*
X124797619Y-59157200D01*
X124797619Y-59157200D02*
X124702381Y-59204819D01*
X124702381Y-59204819D02*
X124607143Y-59204819D01*
X124607143Y-59204819D02*
X124511905Y-59157200D01*
X124511905Y-59157200D02*
X124464286Y-59109580D01*
X124464286Y-59109580D02*
X124416667Y-59014342D01*
X124416667Y-59014342D02*
X124369048Y-58823866D01*
X124369048Y-58823866D02*
X124369048Y-58585771D01*
X124369048Y-58585771D02*
X124416667Y-58395295D01*
X124416667Y-58395295D02*
X124464286Y-58300057D01*
X124464286Y-58300057D02*
X124511905Y-58252438D01*
X124511905Y-58252438D02*
X124607143Y-58204819D01*
X125892857Y-59204819D02*
X125321429Y-59204819D01*
X125607143Y-59204819D02*
X125607143Y-58204819D01*
X125607143Y-58204819D02*
X125511905Y-58347676D01*
X125511905Y-58347676D02*
X125416667Y-58442914D01*
X125416667Y-58442914D02*
X125321429Y-58490533D01*
X126226191Y-59204819D02*
X126750000Y-58538152D01*
X126226191Y-58538152D02*
X126750000Y-59204819D01*
X127321429Y-58204819D02*
X127416667Y-58204819D01*
X127416667Y-58204819D02*
X127511905Y-58252438D01*
X127511905Y-58252438D02*
X127559524Y-58300057D01*
X127559524Y-58300057D02*
X127607143Y-58395295D01*
X127607143Y-58395295D02*
X127654762Y-58585771D01*
X127654762Y-58585771D02*
X127654762Y-58823866D01*
X127654762Y-58823866D02*
X127607143Y-59014342D01*
X127607143Y-59014342D02*
X127559524Y-59109580D01*
X127559524Y-59109580D02*
X127511905Y-59157200D01*
X127511905Y-59157200D02*
X127416667Y-59204819D01*
X127416667Y-59204819D02*
X127321429Y-59204819D01*
X127321429Y-59204819D02*
X127226191Y-59157200D01*
X127226191Y-59157200D02*
X127178572Y-59109580D01*
X127178572Y-59109580D02*
X127130953Y-59014342D01*
X127130953Y-59014342D02*
X127083334Y-58823866D01*
X127083334Y-58823866D02*
X127083334Y-58585771D01*
X127083334Y-58585771D02*
X127130953Y-58395295D01*
X127130953Y-58395295D02*
X127178572Y-58300057D01*
X127178572Y-58300057D02*
X127226191Y-58252438D01*
X127226191Y-58252438D02*
X127321429Y-58204819D01*
X128226191Y-58633390D02*
X128130953Y-58585771D01*
X128130953Y-58585771D02*
X128083334Y-58538152D01*
X128083334Y-58538152D02*
X128035715Y-58442914D01*
X128035715Y-58442914D02*
X128035715Y-58395295D01*
X128035715Y-58395295D02*
X128083334Y-58300057D01*
X128083334Y-58300057D02*
X128130953Y-58252438D01*
X128130953Y-58252438D02*
X128226191Y-58204819D01*
X128226191Y-58204819D02*
X128416667Y-58204819D01*
X128416667Y-58204819D02*
X128511905Y-58252438D01*
X128511905Y-58252438D02*
X128559524Y-58300057D01*
X128559524Y-58300057D02*
X128607143Y-58395295D01*
X128607143Y-58395295D02*
X128607143Y-58442914D01*
X128607143Y-58442914D02*
X128559524Y-58538152D01*
X128559524Y-58538152D02*
X128511905Y-58585771D01*
X128511905Y-58585771D02*
X128416667Y-58633390D01*
X128416667Y-58633390D02*
X128226191Y-58633390D01*
X128226191Y-58633390D02*
X128130953Y-58681009D01*
X128130953Y-58681009D02*
X128083334Y-58728628D01*
X128083334Y-58728628D02*
X128035715Y-58823866D01*
X128035715Y-58823866D02*
X128035715Y-59014342D01*
X128035715Y-59014342D02*
X128083334Y-59109580D01*
X128083334Y-59109580D02*
X128130953Y-59157200D01*
X128130953Y-59157200D02*
X128226191Y-59204819D01*
X128226191Y-59204819D02*
X128416667Y-59204819D01*
X128416667Y-59204819D02*
X128511905Y-59157200D01*
X128511905Y-59157200D02*
X128559524Y-59109580D01*
X128559524Y-59109580D02*
X128607143Y-59014342D01*
X128607143Y-59014342D02*
X128607143Y-58823866D01*
X128607143Y-58823866D02*
X128559524Y-58728628D01*
X128559524Y-58728628D02*
X128511905Y-58681009D01*
X128511905Y-58681009D02*
X128416667Y-58633390D01*
X124666666Y-55454819D02*
X124666666Y-56169104D01*
X124666666Y-56169104D02*
X124619047Y-56311961D01*
X124619047Y-56311961D02*
X124523809Y-56407200D01*
X124523809Y-56407200D02*
X124380952Y-56454819D01*
X124380952Y-56454819D02*
X124285714Y-56454819D01*
X125047619Y-55454819D02*
X125666666Y-55454819D01*
X125666666Y-55454819D02*
X125333333Y-55835771D01*
X125333333Y-55835771D02*
X125476190Y-55835771D01*
X125476190Y-55835771D02*
X125571428Y-55883390D01*
X125571428Y-55883390D02*
X125619047Y-55931009D01*
X125619047Y-55931009D02*
X125666666Y-56026247D01*
X125666666Y-56026247D02*
X125666666Y-56264342D01*
X125666666Y-56264342D02*
X125619047Y-56359580D01*
X125619047Y-56359580D02*
X125571428Y-56407200D01*
X125571428Y-56407200D02*
X125476190Y-56454819D01*
X125476190Y-56454819D02*
X125190476Y-56454819D01*
X125190476Y-56454819D02*
X125095238Y-56407200D01*
X125095238Y-56407200D02*
X125047619Y-56359580D01*
X91428571Y-57252438D02*
X91333333Y-57204819D01*
X91333333Y-57204819D02*
X91190476Y-57204819D01*
X91190476Y-57204819D02*
X91047619Y-57252438D01*
X91047619Y-57252438D02*
X90952381Y-57347676D01*
X90952381Y-57347676D02*
X90904762Y-57442914D01*
X90904762Y-57442914D02*
X90857143Y-57633390D01*
X90857143Y-57633390D02*
X90857143Y-57776247D01*
X90857143Y-57776247D02*
X90904762Y-57966723D01*
X90904762Y-57966723D02*
X90952381Y-58061961D01*
X90952381Y-58061961D02*
X91047619Y-58157200D01*
X91047619Y-58157200D02*
X91190476Y-58204819D01*
X91190476Y-58204819D02*
X91285714Y-58204819D01*
X91285714Y-58204819D02*
X91428571Y-58157200D01*
X91428571Y-58157200D02*
X91476190Y-58109580D01*
X91476190Y-58109580D02*
X91476190Y-57776247D01*
X91476190Y-57776247D02*
X91285714Y-57776247D01*
X91904762Y-58204819D02*
X91904762Y-57204819D01*
X91904762Y-57204819D02*
X92476190Y-58204819D01*
X92476190Y-58204819D02*
X92476190Y-57204819D01*
X92952381Y-58204819D02*
X92952381Y-57204819D01*
X92952381Y-57204819D02*
X93190476Y-57204819D01*
X93190476Y-57204819D02*
X93333333Y-57252438D01*
X93333333Y-57252438D02*
X93428571Y-57347676D01*
X93428571Y-57347676D02*
X93476190Y-57442914D01*
X93476190Y-57442914D02*
X93523809Y-57633390D01*
X93523809Y-57633390D02*
X93523809Y-57776247D01*
X93523809Y-57776247D02*
X93476190Y-57966723D01*
X93476190Y-57966723D02*
X93428571Y-58061961D01*
X93428571Y-58061961D02*
X93333333Y-58157200D01*
X93333333Y-58157200D02*
X93190476Y-58204819D01*
X93190476Y-58204819D02*
X92952381Y-58204819D01*
X93714286Y-58300057D02*
X94476190Y-58300057D01*
X94714286Y-58204819D02*
X94714286Y-57204819D01*
X94714286Y-57204819D02*
X95095238Y-57204819D01*
X95095238Y-57204819D02*
X95190476Y-57252438D01*
X95190476Y-57252438D02*
X95238095Y-57300057D01*
X95238095Y-57300057D02*
X95285714Y-57395295D01*
X95285714Y-57395295D02*
X95285714Y-57538152D01*
X95285714Y-57538152D02*
X95238095Y-57633390D01*
X95238095Y-57633390D02*
X95190476Y-57681009D01*
X95190476Y-57681009D02*
X95095238Y-57728628D01*
X95095238Y-57728628D02*
X94714286Y-57728628D01*
X95666667Y-57919104D02*
X96142857Y-57919104D01*
X95571429Y-58204819D02*
X95904762Y-57204819D01*
X95904762Y-57204819D02*
X96238095Y-58204819D01*
X96571429Y-58204819D02*
X96571429Y-57204819D01*
X96571429Y-57204819D02*
X96809524Y-57204819D01*
X96809524Y-57204819D02*
X96952381Y-57252438D01*
X96952381Y-57252438D02*
X97047619Y-57347676D01*
X97047619Y-57347676D02*
X97095238Y-57442914D01*
X97095238Y-57442914D02*
X97142857Y-57633390D01*
X97142857Y-57633390D02*
X97142857Y-57776247D01*
X97142857Y-57776247D02*
X97095238Y-57966723D01*
X97095238Y-57966723D02*
X97047619Y-58061961D01*
X97047619Y-58061961D02*
X96952381Y-58157200D01*
X96952381Y-58157200D02*
X96809524Y-58204819D01*
X96809524Y-58204819D02*
X96571429Y-58204819D01*
X90554819Y-63083333D02*
X91269104Y-63083333D01*
X91269104Y-63083333D02*
X91411961Y-63130952D01*
X91411961Y-63130952D02*
X91507200Y-63226190D01*
X91507200Y-63226190D02*
X91554819Y-63369047D01*
X91554819Y-63369047D02*
X91554819Y-63464285D01*
X90650057Y-62654761D02*
X90602438Y-62607142D01*
X90602438Y-62607142D02*
X90554819Y-62511904D01*
X90554819Y-62511904D02*
X90554819Y-62273809D01*
X90554819Y-62273809D02*
X90602438Y-62178571D01*
X90602438Y-62178571D02*
X90650057Y-62130952D01*
X90650057Y-62130952D02*
X90745295Y-62083333D01*
X90745295Y-62083333D02*
X90840533Y-62083333D01*
X90840533Y-62083333D02*
X90983390Y-62130952D01*
X90983390Y-62130952D02*
X91554819Y-62702380D01*
X91554819Y-62702380D02*
X91554819Y-62083333D01*
D11*
%TO.C,J4*%
X135640000Y-52390000D02*
X135640000Y-53640000D01*
X136050000Y-52800000D02*
X136050000Y-57300000D01*
X136050000Y-57300000D02*
X153950000Y-57300000D01*
X136890000Y-52390000D02*
X135640000Y-52390000D01*
X153950000Y-52800000D02*
X136050000Y-52800000D01*
X153950000Y-57300000D02*
X153950000Y-52800000D01*
%TO.C,J1*%
X98950000Y-63730000D02*
X119270000Y-63730000D01*
X98950000Y-66270000D02*
X98950000Y-63730000D01*
X118635000Y-66270000D02*
X98950000Y-66270000D01*
X119270000Y-63730000D02*
X119270000Y-65635000D01*
X119270000Y-65635000D02*
X118635000Y-66270000D01*
%TO.C,J3*%
X115640000Y-52390000D02*
X115640000Y-53640000D01*
X116050000Y-52800000D02*
X116050000Y-57300000D01*
X116050000Y-57300000D02*
X133950000Y-57300000D01*
X116890000Y-52390000D02*
X115640000Y-52390000D01*
X133950000Y-52800000D02*
X116050000Y-52800000D01*
X133950000Y-57300000D02*
X133950000Y-52800000D01*
%TD*%
M02*
