%TF.GenerationSoftware,KiCad,Pcbnew,8.0.1*%
%TF.CreationDate,2024-04-14T20:51:43+02:00*%
%TF.ProjectId,vampire_pcb,76616d70-6972-4655-9f70-63622e6b6963,rev?*%
%TF.SameCoordinates,Original*%
%TF.FileFunction,Legend,Top*%
%TF.FilePolarity,Positive*%
%FSLAX46Y46*%
G04 Gerber Fmt 4.6, Leading zero omitted, Abs format (unit mm)*
G04 Created by KiCad (PCBNEW 8.0.1) date 2024-04-14 20:51:43*
%MOMM*%
%LPD*%
G01*
G04 APERTURE LIST*
%ADD10C,0.100000*%
%ADD11C,0.160000*%
%ADD12C,0.300000*%
%ADD13C,0.120000*%
G04 APERTURE END LIST*
D10*
X90000000Y-65000000D02*
X124500000Y-65000000D01*
D11*
G36*
X101023927Y-62103927D02*
G01*
X100767634Y-62104728D01*
X100895300Y-61719887D01*
X101023927Y-62103927D01*
G37*
G36*
X101989174Y-61580373D02*
G01*
X102019398Y-61609497D01*
X102053996Y-61676571D01*
X102055018Y-61781847D01*
X102022759Y-61848448D01*
X101993634Y-61878672D01*
X101926752Y-61913172D01*
X101641566Y-61914277D01*
X101641013Y-61548994D01*
X101922139Y-61547904D01*
X101989174Y-61580373D01*
G37*
G36*
X102324945Y-62659782D02*
G01*
X99610927Y-62659782D01*
X99610927Y-61484906D01*
X99722038Y-61484906D01*
X99733983Y-61513745D01*
X99756055Y-61535817D01*
X99784894Y-61547762D01*
X99800501Y-61549299D01*
X100006335Y-61548760D01*
X100007752Y-62484906D01*
X100019697Y-62513745D01*
X100041769Y-62535817D01*
X100070608Y-62547762D01*
X100101822Y-62547762D01*
X100130661Y-62535817D01*
X100152733Y-62513745D01*
X100164678Y-62484906D01*
X100166215Y-62469299D01*
X100166200Y-62459293D01*
X100483034Y-62459293D01*
X100485246Y-62490429D01*
X100499206Y-62518348D01*
X100522788Y-62538800D01*
X100552400Y-62548671D01*
X100583536Y-62546459D01*
X100611455Y-62532499D01*
X100631907Y-62508917D01*
X100638301Y-62494597D01*
X100714996Y-62263404D01*
X101076962Y-62262273D01*
X101159571Y-62508917D01*
X101180022Y-62532499D01*
X101207941Y-62546458D01*
X101239078Y-62548670D01*
X101268690Y-62538800D01*
X101292272Y-62518348D01*
X101306231Y-62490429D01*
X101308444Y-62459293D01*
X101304967Y-62444000D01*
X100978509Y-61469299D01*
X101482406Y-61469299D01*
X101483943Y-62484906D01*
X101495888Y-62513745D01*
X101517960Y-62535817D01*
X101546799Y-62547762D01*
X101578013Y-62547762D01*
X101606852Y-62535817D01*
X101628924Y-62513745D01*
X101640869Y-62484906D01*
X101642406Y-62469299D01*
X101641805Y-62072800D01*
X101930950Y-62071679D01*
X101933352Y-62072480D01*
X101945401Y-62071623D01*
X101958965Y-62071571D01*
X101961621Y-62070470D01*
X101964488Y-62070267D01*
X101979135Y-62064662D01*
X102073757Y-62015852D01*
X102083042Y-62012007D01*
X102086137Y-62009466D01*
X102087645Y-62008689D01*
X102089027Y-62007094D01*
X102095165Y-62002058D01*
X102142606Y-61952824D01*
X102149415Y-61946919D01*
X102151521Y-61943571D01*
X102152732Y-61942316D01*
X102153539Y-61940365D01*
X102157769Y-61933647D01*
X102199087Y-61848342D01*
X102200352Y-61847078D01*
X102204200Y-61837786D01*
X102210993Y-61823763D01*
X102211196Y-61820895D01*
X102212297Y-61818239D01*
X102213834Y-61802632D01*
X102212564Y-61671706D01*
X102213206Y-61669781D01*
X102212441Y-61659017D01*
X102212297Y-61644168D01*
X102211196Y-61641511D01*
X102210993Y-61638644D01*
X102205388Y-61623998D01*
X102156575Y-61529369D01*
X102152732Y-61520091D01*
X102150194Y-61516998D01*
X102149415Y-61515488D01*
X102147817Y-61514102D01*
X102142783Y-61507968D01*
X102093546Y-61460522D01*
X102087645Y-61453718D01*
X102084300Y-61451613D01*
X102083042Y-61450400D01*
X102081087Y-61449590D01*
X102074373Y-61445364D01*
X101989069Y-61404046D01*
X101987804Y-61402781D01*
X101978506Y-61398930D01*
X101964488Y-61392140D01*
X101961621Y-61391936D01*
X101958965Y-61390836D01*
X101943358Y-61389299D01*
X101546799Y-61390836D01*
X101517960Y-61402781D01*
X101495888Y-61424853D01*
X101483943Y-61453692D01*
X101482406Y-61469299D01*
X100978509Y-61469299D01*
X100973292Y-61453724D01*
X100972898Y-61448169D01*
X100968457Y-61439288D01*
X100965240Y-61429681D01*
X100961495Y-61425363D01*
X100958939Y-61420250D01*
X100951360Y-61413677D01*
X100944788Y-61406099D01*
X100939673Y-61403541D01*
X100935357Y-61399798D01*
X100925847Y-61396628D01*
X100916869Y-61392139D01*
X100911162Y-61391733D01*
X100905745Y-61389928D01*
X100895745Y-61390638D01*
X100885733Y-61389927D01*
X100880309Y-61391734D01*
X100874608Y-61392140D01*
X100865633Y-61396627D01*
X100856121Y-61399798D01*
X100851805Y-61403541D01*
X100846689Y-61406099D01*
X100840114Y-61413679D01*
X100832539Y-61420250D01*
X100829982Y-61425363D01*
X100826238Y-61429681D01*
X100819844Y-61444001D01*
X100581658Y-62161994D01*
X100579181Y-62167977D01*
X100579181Y-62169464D01*
X100483034Y-62459293D01*
X100166200Y-62459293D01*
X100164821Y-61548345D01*
X100387536Y-61547762D01*
X100416375Y-61535817D01*
X100438447Y-61513745D01*
X100450392Y-61484906D01*
X100450392Y-61453692D01*
X100438447Y-61424853D01*
X100416375Y-61402781D01*
X100387536Y-61390836D01*
X100371929Y-61389299D01*
X99784894Y-61390836D01*
X99756055Y-61402781D01*
X99733983Y-61424853D01*
X99722038Y-61453692D01*
X99722038Y-61484906D01*
X99610927Y-61484906D01*
X99610927Y-61278188D01*
X102324945Y-61278188D01*
X102324945Y-62659782D01*
G37*
D12*
X99983082Y-68800828D02*
X99983082Y-69872257D01*
X99983082Y-69872257D02*
X99911653Y-70086542D01*
X99911653Y-70086542D02*
X99768796Y-70229400D01*
X99768796Y-70229400D02*
X99554510Y-70300828D01*
X99554510Y-70300828D02*
X99411653Y-70300828D01*
X101411653Y-70300828D02*
X100697367Y-70300828D01*
X100697367Y-70300828D02*
X100697367Y-68800828D01*
X102768796Y-70157971D02*
X102697368Y-70229400D01*
X102697368Y-70229400D02*
X102483082Y-70300828D01*
X102483082Y-70300828D02*
X102340225Y-70300828D01*
X102340225Y-70300828D02*
X102125939Y-70229400D01*
X102125939Y-70229400D02*
X101983082Y-70086542D01*
X101983082Y-70086542D02*
X101911653Y-69943685D01*
X101911653Y-69943685D02*
X101840225Y-69657971D01*
X101840225Y-69657971D02*
X101840225Y-69443685D01*
X101840225Y-69443685D02*
X101911653Y-69157971D01*
X101911653Y-69157971D02*
X101983082Y-69015114D01*
X101983082Y-69015114D02*
X102125939Y-68872257D01*
X102125939Y-68872257D02*
X102340225Y-68800828D01*
X102340225Y-68800828D02*
X102483082Y-68800828D01*
X102483082Y-68800828D02*
X102697368Y-68872257D01*
X102697368Y-68872257D02*
X102768796Y-68943685D01*
X103840225Y-68800828D02*
X103840225Y-69872257D01*
X103840225Y-69872257D02*
X103768796Y-70086542D01*
X103768796Y-70086542D02*
X103625939Y-70229400D01*
X103625939Y-70229400D02*
X103411653Y-70300828D01*
X103411653Y-70300828D02*
X103268796Y-70300828D01*
X105268796Y-70300828D02*
X104554510Y-70300828D01*
X104554510Y-70300828D02*
X104554510Y-68800828D01*
X106625939Y-70157971D02*
X106554511Y-70229400D01*
X106554511Y-70229400D02*
X106340225Y-70300828D01*
X106340225Y-70300828D02*
X106197368Y-70300828D01*
X106197368Y-70300828D02*
X105983082Y-70229400D01*
X105983082Y-70229400D02*
X105840225Y-70086542D01*
X105840225Y-70086542D02*
X105768796Y-69943685D01*
X105768796Y-69943685D02*
X105697368Y-69657971D01*
X105697368Y-69657971D02*
X105697368Y-69443685D01*
X105697368Y-69443685D02*
X105768796Y-69157971D01*
X105768796Y-69157971D02*
X105840225Y-69015114D01*
X105840225Y-69015114D02*
X105983082Y-68872257D01*
X105983082Y-68872257D02*
X106197368Y-68800828D01*
X106197368Y-68800828D02*
X106340225Y-68800828D01*
X106340225Y-68800828D02*
X106554511Y-68872257D01*
X106554511Y-68872257D02*
X106625939Y-68943685D01*
X107697368Y-68800828D02*
X107697368Y-69872257D01*
X107697368Y-69872257D02*
X107625939Y-70086542D01*
X107625939Y-70086542D02*
X107483082Y-70229400D01*
X107483082Y-70229400D02*
X107268796Y-70300828D01*
X107268796Y-70300828D02*
X107125939Y-70300828D01*
X109125939Y-70300828D02*
X108411653Y-70300828D01*
X108411653Y-70300828D02*
X108411653Y-68800828D01*
X110483082Y-70157971D02*
X110411654Y-70229400D01*
X110411654Y-70229400D02*
X110197368Y-70300828D01*
X110197368Y-70300828D02*
X110054511Y-70300828D01*
X110054511Y-70300828D02*
X109840225Y-70229400D01*
X109840225Y-70229400D02*
X109697368Y-70086542D01*
X109697368Y-70086542D02*
X109625939Y-69943685D01*
X109625939Y-69943685D02*
X109554511Y-69657971D01*
X109554511Y-69657971D02*
X109554511Y-69443685D01*
X109554511Y-69443685D02*
X109625939Y-69157971D01*
X109625939Y-69157971D02*
X109697368Y-69015114D01*
X109697368Y-69015114D02*
X109840225Y-68872257D01*
X109840225Y-68872257D02*
X110054511Y-68800828D01*
X110054511Y-68800828D02*
X110197368Y-68800828D01*
X110197368Y-68800828D02*
X110411654Y-68872257D01*
X110411654Y-68872257D02*
X110483082Y-68943685D01*
X111554511Y-68800828D02*
X111554511Y-69872257D01*
X111554511Y-69872257D02*
X111483082Y-70086542D01*
X111483082Y-70086542D02*
X111340225Y-70229400D01*
X111340225Y-70229400D02*
X111125939Y-70300828D01*
X111125939Y-70300828D02*
X110983082Y-70300828D01*
X112983082Y-70300828D02*
X112268796Y-70300828D01*
X112268796Y-70300828D02*
X112268796Y-68800828D01*
X114340225Y-70157971D02*
X114268797Y-70229400D01*
X114268797Y-70229400D02*
X114054511Y-70300828D01*
X114054511Y-70300828D02*
X113911654Y-70300828D01*
X113911654Y-70300828D02*
X113697368Y-70229400D01*
X113697368Y-70229400D02*
X113554511Y-70086542D01*
X113554511Y-70086542D02*
X113483082Y-69943685D01*
X113483082Y-69943685D02*
X113411654Y-69657971D01*
X113411654Y-69657971D02*
X113411654Y-69443685D01*
X113411654Y-69443685D02*
X113483082Y-69157971D01*
X113483082Y-69157971D02*
X113554511Y-69015114D01*
X113554511Y-69015114D02*
X113697368Y-68872257D01*
X113697368Y-68872257D02*
X113911654Y-68800828D01*
X113911654Y-68800828D02*
X114054511Y-68800828D01*
X114054511Y-68800828D02*
X114268797Y-68872257D01*
X114268797Y-68872257D02*
X114340225Y-68943685D01*
D13*
X122380170Y-61561529D02*
X122380170Y-62018672D01*
X122380170Y-61790100D02*
X121580170Y-61790100D01*
X121580170Y-61790100D02*
X121694455Y-61866291D01*
X121694455Y-61866291D02*
X121770646Y-61942481D01*
X121770646Y-61942481D02*
X121808741Y-62018672D01*
X122303979Y-61218671D02*
X122342075Y-61180576D01*
X122342075Y-61180576D02*
X122380170Y-61218671D01*
X122380170Y-61218671D02*
X122342075Y-61256767D01*
X122342075Y-61256767D02*
X122303979Y-61218671D01*
X122303979Y-61218671D02*
X122380170Y-61218671D01*
X122151598Y-60875815D02*
X122151598Y-60494862D01*
X122380170Y-60952005D02*
X121580170Y-60685338D01*
X121580170Y-60685338D02*
X122380170Y-60418672D01*
X121618265Y-59732958D02*
X121580170Y-59809148D01*
X121580170Y-59809148D02*
X121580170Y-59923434D01*
X121580170Y-59923434D02*
X121618265Y-60037720D01*
X121618265Y-60037720D02*
X121694455Y-60113910D01*
X121694455Y-60113910D02*
X121770646Y-60152005D01*
X121770646Y-60152005D02*
X121923027Y-60190101D01*
X121923027Y-60190101D02*
X122037313Y-60190101D01*
X122037313Y-60190101D02*
X122189694Y-60152005D01*
X122189694Y-60152005D02*
X122265884Y-60113910D01*
X122265884Y-60113910D02*
X122342075Y-60037720D01*
X122342075Y-60037720D02*
X122380170Y-59923434D01*
X122380170Y-59923434D02*
X122380170Y-59847243D01*
X122380170Y-59847243D02*
X122342075Y-59732958D01*
X122342075Y-59732958D02*
X122303979Y-59694862D01*
X122303979Y-59694862D02*
X122037313Y-59694862D01*
X122037313Y-59694862D02*
X122037313Y-59847243D01*
X122380170Y-59352005D02*
X121580170Y-59352005D01*
X121580170Y-59352005D02*
X122380170Y-58894862D01*
X122380170Y-58894862D02*
X121580170Y-58894862D01*
X122380170Y-58513910D02*
X121580170Y-58513910D01*
X121580170Y-58513910D02*
X121580170Y-58323434D01*
X121580170Y-58323434D02*
X121618265Y-58209148D01*
X121618265Y-58209148D02*
X121694455Y-58132958D01*
X121694455Y-58132958D02*
X121770646Y-58094863D01*
X121770646Y-58094863D02*
X121923027Y-58056767D01*
X121923027Y-58056767D02*
X122037313Y-58056767D01*
X122037313Y-58056767D02*
X122189694Y-58094863D01*
X122189694Y-58094863D02*
X122265884Y-58132958D01*
X122265884Y-58132958D02*
X122342075Y-58209148D01*
X122342075Y-58209148D02*
X122380170Y-58323434D01*
X122380170Y-58323434D02*
X122380170Y-58513910D01*
X122944315Y-62018672D02*
X122906220Y-61980576D01*
X122906220Y-61980576D02*
X122868125Y-61904386D01*
X122868125Y-61904386D02*
X122868125Y-61713910D01*
X122868125Y-61713910D02*
X122906220Y-61637719D01*
X122906220Y-61637719D02*
X122944315Y-61599624D01*
X122944315Y-61599624D02*
X123020506Y-61561529D01*
X123020506Y-61561529D02*
X123096696Y-61561529D01*
X123096696Y-61561529D02*
X123210982Y-61599624D01*
X123210982Y-61599624D02*
X123668125Y-62056767D01*
X123668125Y-62056767D02*
X123668125Y-61561529D01*
X123591934Y-61218671D02*
X123630030Y-61180576D01*
X123630030Y-61180576D02*
X123668125Y-61218671D01*
X123668125Y-61218671D02*
X123630030Y-61256767D01*
X123630030Y-61256767D02*
X123591934Y-61218671D01*
X123591934Y-61218671D02*
X123668125Y-61218671D01*
X123668125Y-60418672D02*
X123668125Y-60875815D01*
X123668125Y-60647243D02*
X122868125Y-60647243D01*
X122868125Y-60647243D02*
X122982410Y-60723434D01*
X122982410Y-60723434D02*
X123058601Y-60799624D01*
X123058601Y-60799624D02*
X123096696Y-60875815D01*
X122944315Y-60113910D02*
X122906220Y-60075814D01*
X122906220Y-60075814D02*
X122868125Y-59999624D01*
X122868125Y-59999624D02*
X122868125Y-59809148D01*
X122868125Y-59809148D02*
X122906220Y-59732957D01*
X122906220Y-59732957D02*
X122944315Y-59694862D01*
X122944315Y-59694862D02*
X123020506Y-59656767D01*
X123020506Y-59656767D02*
X123096696Y-59656767D01*
X123096696Y-59656767D02*
X123210982Y-59694862D01*
X123210982Y-59694862D02*
X123668125Y-60152005D01*
X123668125Y-60152005D02*
X123668125Y-59656767D01*
X122868125Y-59428195D02*
X123668125Y-59161528D01*
X123668125Y-59161528D02*
X122868125Y-58894862D01*
X124156080Y-62056767D02*
X124156080Y-61561529D01*
X124156080Y-61561529D02*
X124460842Y-61828195D01*
X124460842Y-61828195D02*
X124460842Y-61713910D01*
X124460842Y-61713910D02*
X124498937Y-61637719D01*
X124498937Y-61637719D02*
X124537032Y-61599624D01*
X124537032Y-61599624D02*
X124613223Y-61561529D01*
X124613223Y-61561529D02*
X124803699Y-61561529D01*
X124803699Y-61561529D02*
X124879889Y-61599624D01*
X124879889Y-61599624D02*
X124917985Y-61637719D01*
X124917985Y-61637719D02*
X124956080Y-61713910D01*
X124956080Y-61713910D02*
X124956080Y-61942481D01*
X124956080Y-61942481D02*
X124917985Y-62018672D01*
X124917985Y-62018672D02*
X124879889Y-62056767D01*
X124879889Y-61218671D02*
X124917985Y-61180576D01*
X124917985Y-61180576D02*
X124956080Y-61218671D01*
X124956080Y-61218671D02*
X124917985Y-61256767D01*
X124917985Y-61256767D02*
X124879889Y-61218671D01*
X124879889Y-61218671D02*
X124956080Y-61218671D01*
X124727508Y-60875815D02*
X124727508Y-60494862D01*
X124956080Y-60952005D02*
X124156080Y-60685338D01*
X124156080Y-60685338D02*
X124956080Y-60418672D01*
X124194175Y-59732958D02*
X124156080Y-59809148D01*
X124156080Y-59809148D02*
X124156080Y-59923434D01*
X124156080Y-59923434D02*
X124194175Y-60037720D01*
X124194175Y-60037720D02*
X124270365Y-60113910D01*
X124270365Y-60113910D02*
X124346556Y-60152005D01*
X124346556Y-60152005D02*
X124498937Y-60190101D01*
X124498937Y-60190101D02*
X124613223Y-60190101D01*
X124613223Y-60190101D02*
X124765604Y-60152005D01*
X124765604Y-60152005D02*
X124841794Y-60113910D01*
X124841794Y-60113910D02*
X124917985Y-60037720D01*
X124917985Y-60037720D02*
X124956080Y-59923434D01*
X124956080Y-59923434D02*
X124956080Y-59847243D01*
X124956080Y-59847243D02*
X124917985Y-59732958D01*
X124917985Y-59732958D02*
X124879889Y-59694862D01*
X124879889Y-59694862D02*
X124613223Y-59694862D01*
X124613223Y-59694862D02*
X124613223Y-59847243D01*
X124956080Y-59352005D02*
X124156080Y-59352005D01*
X124156080Y-59352005D02*
X124956080Y-58894862D01*
X124956080Y-58894862D02*
X124156080Y-58894862D01*
X124956080Y-58513910D02*
X124156080Y-58513910D01*
X124156080Y-58513910D02*
X124156080Y-58323434D01*
X124156080Y-58323434D02*
X124194175Y-58209148D01*
X124194175Y-58209148D02*
X124270365Y-58132958D01*
X124270365Y-58132958D02*
X124346556Y-58094863D01*
X124346556Y-58094863D02*
X124498937Y-58056767D01*
X124498937Y-58056767D02*
X124613223Y-58056767D01*
X124613223Y-58056767D02*
X124765604Y-58094863D01*
X124765604Y-58094863D02*
X124841794Y-58132958D01*
X124841794Y-58132958D02*
X124917985Y-58209148D01*
X124917985Y-58209148D02*
X124956080Y-58323434D01*
X124956080Y-58323434D02*
X124956080Y-58513910D01*
X125710701Y-61637719D02*
X126244035Y-61637719D01*
X125405940Y-61828195D02*
X125977368Y-62018672D01*
X125977368Y-62018672D02*
X125977368Y-61523433D01*
X126167844Y-61218671D02*
X126205940Y-61180576D01*
X126205940Y-61180576D02*
X126244035Y-61218671D01*
X126244035Y-61218671D02*
X126205940Y-61256767D01*
X126205940Y-61256767D02*
X126167844Y-61218671D01*
X126167844Y-61218671D02*
X126244035Y-61218671D01*
X125824987Y-60571053D02*
X125824987Y-60837719D01*
X126244035Y-60837719D02*
X125444035Y-60837719D01*
X125444035Y-60837719D02*
X125444035Y-60456767D01*
X126244035Y-59771053D02*
X126244035Y-60152005D01*
X126244035Y-60152005D02*
X125444035Y-60152005D01*
X126731990Y-61599624D02*
X126731990Y-61980576D01*
X126731990Y-61980576D02*
X127112942Y-62018672D01*
X127112942Y-62018672D02*
X127074847Y-61980576D01*
X127074847Y-61980576D02*
X127036752Y-61904386D01*
X127036752Y-61904386D02*
X127036752Y-61713910D01*
X127036752Y-61713910D02*
X127074847Y-61637719D01*
X127074847Y-61637719D02*
X127112942Y-61599624D01*
X127112942Y-61599624D02*
X127189133Y-61561529D01*
X127189133Y-61561529D02*
X127379609Y-61561529D01*
X127379609Y-61561529D02*
X127455799Y-61599624D01*
X127455799Y-61599624D02*
X127493895Y-61637719D01*
X127493895Y-61637719D02*
X127531990Y-61713910D01*
X127531990Y-61713910D02*
X127531990Y-61904386D01*
X127531990Y-61904386D02*
X127493895Y-61980576D01*
X127493895Y-61980576D02*
X127455799Y-62018672D01*
X127455799Y-61218671D02*
X127493895Y-61180576D01*
X127493895Y-61180576D02*
X127531990Y-61218671D01*
X127531990Y-61218671D02*
X127493895Y-61256767D01*
X127493895Y-61256767D02*
X127455799Y-61218671D01*
X127455799Y-61218671D02*
X127531990Y-61218671D01*
X127303418Y-60875815D02*
X127303418Y-60494862D01*
X127531990Y-60952005D02*
X126731990Y-60685338D01*
X126731990Y-60685338D02*
X127531990Y-60418672D01*
X126770085Y-59732958D02*
X126731990Y-59809148D01*
X126731990Y-59809148D02*
X126731990Y-59923434D01*
X126731990Y-59923434D02*
X126770085Y-60037720D01*
X126770085Y-60037720D02*
X126846275Y-60113910D01*
X126846275Y-60113910D02*
X126922466Y-60152005D01*
X126922466Y-60152005D02*
X127074847Y-60190101D01*
X127074847Y-60190101D02*
X127189133Y-60190101D01*
X127189133Y-60190101D02*
X127341514Y-60152005D01*
X127341514Y-60152005D02*
X127417704Y-60113910D01*
X127417704Y-60113910D02*
X127493895Y-60037720D01*
X127493895Y-60037720D02*
X127531990Y-59923434D01*
X127531990Y-59923434D02*
X127531990Y-59847243D01*
X127531990Y-59847243D02*
X127493895Y-59732958D01*
X127493895Y-59732958D02*
X127455799Y-59694862D01*
X127455799Y-59694862D02*
X127189133Y-59694862D01*
X127189133Y-59694862D02*
X127189133Y-59847243D01*
X127531990Y-59352005D02*
X126731990Y-59352005D01*
X126731990Y-59352005D02*
X127531990Y-58894862D01*
X127531990Y-58894862D02*
X126731990Y-58894862D01*
X127531990Y-58513910D02*
X126731990Y-58513910D01*
X126731990Y-58513910D02*
X126731990Y-58323434D01*
X126731990Y-58323434D02*
X126770085Y-58209148D01*
X126770085Y-58209148D02*
X126846275Y-58132958D01*
X126846275Y-58132958D02*
X126922466Y-58094863D01*
X126922466Y-58094863D02*
X127074847Y-58056767D01*
X127074847Y-58056767D02*
X127189133Y-58056767D01*
X127189133Y-58056767D02*
X127341514Y-58094863D01*
X127341514Y-58094863D02*
X127417704Y-58132958D01*
X127417704Y-58132958D02*
X127493895Y-58209148D01*
X127493895Y-58209148D02*
X127531990Y-58323434D01*
X127531990Y-58323434D02*
X127531990Y-58513910D01*
X128019945Y-61637719D02*
X128019945Y-61790100D01*
X128019945Y-61790100D02*
X128058040Y-61866291D01*
X128058040Y-61866291D02*
X128096135Y-61904386D01*
X128096135Y-61904386D02*
X128210421Y-61980576D01*
X128210421Y-61980576D02*
X128362802Y-62018672D01*
X128362802Y-62018672D02*
X128667564Y-62018672D01*
X128667564Y-62018672D02*
X128743754Y-61980576D01*
X128743754Y-61980576D02*
X128781850Y-61942481D01*
X128781850Y-61942481D02*
X128819945Y-61866291D01*
X128819945Y-61866291D02*
X128819945Y-61713910D01*
X128819945Y-61713910D02*
X128781850Y-61637719D01*
X128781850Y-61637719D02*
X128743754Y-61599624D01*
X128743754Y-61599624D02*
X128667564Y-61561529D01*
X128667564Y-61561529D02*
X128477088Y-61561529D01*
X128477088Y-61561529D02*
X128400897Y-61599624D01*
X128400897Y-61599624D02*
X128362802Y-61637719D01*
X128362802Y-61637719D02*
X128324707Y-61713910D01*
X128324707Y-61713910D02*
X128324707Y-61866291D01*
X128324707Y-61866291D02*
X128362802Y-61942481D01*
X128362802Y-61942481D02*
X128400897Y-61980576D01*
X128400897Y-61980576D02*
X128477088Y-62018672D01*
X128743754Y-61218671D02*
X128781850Y-61180576D01*
X128781850Y-61180576D02*
X128819945Y-61218671D01*
X128819945Y-61218671D02*
X128781850Y-61256767D01*
X128781850Y-61256767D02*
X128743754Y-61218671D01*
X128743754Y-61218671D02*
X128819945Y-61218671D01*
X128743754Y-60380576D02*
X128781850Y-60418672D01*
X128781850Y-60418672D02*
X128819945Y-60532957D01*
X128819945Y-60532957D02*
X128819945Y-60609148D01*
X128819945Y-60609148D02*
X128781850Y-60723434D01*
X128781850Y-60723434D02*
X128705659Y-60799624D01*
X128705659Y-60799624D02*
X128629469Y-60837719D01*
X128629469Y-60837719D02*
X128477088Y-60875815D01*
X128477088Y-60875815D02*
X128362802Y-60875815D01*
X128362802Y-60875815D02*
X128210421Y-60837719D01*
X128210421Y-60837719D02*
X128134230Y-60799624D01*
X128134230Y-60799624D02*
X128058040Y-60723434D01*
X128058040Y-60723434D02*
X128019945Y-60609148D01*
X128019945Y-60609148D02*
X128019945Y-60532957D01*
X128019945Y-60532957D02*
X128058040Y-60418672D01*
X128058040Y-60418672D02*
X128096135Y-60380576D01*
X128400897Y-60037719D02*
X128400897Y-59771053D01*
X128819945Y-59656767D02*
X128819945Y-60037719D01*
X128819945Y-60037719D02*
X128019945Y-60037719D01*
X128019945Y-60037719D02*
X128019945Y-59656767D01*
X128819945Y-59313909D02*
X128019945Y-59313909D01*
X128019945Y-59313909D02*
X128819945Y-58856766D01*
X128819945Y-58856766D02*
X128019945Y-58856766D01*
X129307900Y-62056767D02*
X129307900Y-61523433D01*
X129307900Y-61523433D02*
X130107900Y-61866291D01*
X130031709Y-61218671D02*
X130069805Y-61180576D01*
X130069805Y-61180576D02*
X130107900Y-61218671D01*
X130107900Y-61218671D02*
X130069805Y-61256767D01*
X130069805Y-61256767D02*
X130031709Y-61218671D01*
X130031709Y-61218671D02*
X130107900Y-61218671D01*
X129879328Y-60875815D02*
X129879328Y-60494862D01*
X130107900Y-60952005D02*
X129307900Y-60685338D01*
X129307900Y-60685338D02*
X130107900Y-60418672D01*
X129345995Y-59732958D02*
X129307900Y-59809148D01*
X129307900Y-59809148D02*
X129307900Y-59923434D01*
X129307900Y-59923434D02*
X129345995Y-60037720D01*
X129345995Y-60037720D02*
X129422185Y-60113910D01*
X129422185Y-60113910D02*
X129498376Y-60152005D01*
X129498376Y-60152005D02*
X129650757Y-60190101D01*
X129650757Y-60190101D02*
X129765043Y-60190101D01*
X129765043Y-60190101D02*
X129917424Y-60152005D01*
X129917424Y-60152005D02*
X129993614Y-60113910D01*
X129993614Y-60113910D02*
X130069805Y-60037720D01*
X130069805Y-60037720D02*
X130107900Y-59923434D01*
X130107900Y-59923434D02*
X130107900Y-59847243D01*
X130107900Y-59847243D02*
X130069805Y-59732958D01*
X130069805Y-59732958D02*
X130031709Y-59694862D01*
X130031709Y-59694862D02*
X129765043Y-59694862D01*
X129765043Y-59694862D02*
X129765043Y-59847243D01*
X130107900Y-59352005D02*
X129307900Y-59352005D01*
X129307900Y-59352005D02*
X130107900Y-58894862D01*
X130107900Y-58894862D02*
X129307900Y-58894862D01*
X130107900Y-58513910D02*
X129307900Y-58513910D01*
X129307900Y-58513910D02*
X129307900Y-58323434D01*
X129307900Y-58323434D02*
X129345995Y-58209148D01*
X129345995Y-58209148D02*
X129422185Y-58132958D01*
X129422185Y-58132958D02*
X129498376Y-58094863D01*
X129498376Y-58094863D02*
X129650757Y-58056767D01*
X129650757Y-58056767D02*
X129765043Y-58056767D01*
X129765043Y-58056767D02*
X129917424Y-58094863D01*
X129917424Y-58094863D02*
X129993614Y-58132958D01*
X129993614Y-58132958D02*
X130069805Y-58209148D01*
X130069805Y-58209148D02*
X130107900Y-58323434D01*
X130107900Y-58323434D02*
X130107900Y-58513910D01*
X130938712Y-61866291D02*
X130900617Y-61942481D01*
X130900617Y-61942481D02*
X130862521Y-61980576D01*
X130862521Y-61980576D02*
X130786331Y-62018672D01*
X130786331Y-62018672D02*
X130748236Y-62018672D01*
X130748236Y-62018672D02*
X130672045Y-61980576D01*
X130672045Y-61980576D02*
X130633950Y-61942481D01*
X130633950Y-61942481D02*
X130595855Y-61866291D01*
X130595855Y-61866291D02*
X130595855Y-61713910D01*
X130595855Y-61713910D02*
X130633950Y-61637719D01*
X130633950Y-61637719D02*
X130672045Y-61599624D01*
X130672045Y-61599624D02*
X130748236Y-61561529D01*
X130748236Y-61561529D02*
X130786331Y-61561529D01*
X130786331Y-61561529D02*
X130862521Y-61599624D01*
X130862521Y-61599624D02*
X130900617Y-61637719D01*
X130900617Y-61637719D02*
X130938712Y-61713910D01*
X130938712Y-61713910D02*
X130938712Y-61866291D01*
X130938712Y-61866291D02*
X130976807Y-61942481D01*
X130976807Y-61942481D02*
X131014902Y-61980576D01*
X131014902Y-61980576D02*
X131091093Y-62018672D01*
X131091093Y-62018672D02*
X131243474Y-62018672D01*
X131243474Y-62018672D02*
X131319664Y-61980576D01*
X131319664Y-61980576D02*
X131357760Y-61942481D01*
X131357760Y-61942481D02*
X131395855Y-61866291D01*
X131395855Y-61866291D02*
X131395855Y-61713910D01*
X131395855Y-61713910D02*
X131357760Y-61637719D01*
X131357760Y-61637719D02*
X131319664Y-61599624D01*
X131319664Y-61599624D02*
X131243474Y-61561529D01*
X131243474Y-61561529D02*
X131091093Y-61561529D01*
X131091093Y-61561529D02*
X131014902Y-61599624D01*
X131014902Y-61599624D02*
X130976807Y-61637719D01*
X130976807Y-61637719D02*
X130938712Y-61713910D01*
X131319664Y-61218671D02*
X131357760Y-61180576D01*
X131357760Y-61180576D02*
X131395855Y-61218671D01*
X131395855Y-61218671D02*
X131357760Y-61256767D01*
X131357760Y-61256767D02*
X131319664Y-61218671D01*
X131319664Y-61218671D02*
X131395855Y-61218671D01*
X130976807Y-60571053D02*
X130976807Y-60837719D01*
X131395855Y-60837719D02*
X130595855Y-60837719D01*
X130595855Y-60837719D02*
X130595855Y-60456767D01*
X131395855Y-59694862D02*
X131014902Y-59961529D01*
X131395855Y-60152005D02*
X130595855Y-60152005D01*
X130595855Y-60152005D02*
X130595855Y-59847243D01*
X130595855Y-59847243D02*
X130633950Y-59771053D01*
X130633950Y-59771053D02*
X130672045Y-59732958D01*
X130672045Y-59732958D02*
X130748236Y-59694862D01*
X130748236Y-59694862D02*
X130862521Y-59694862D01*
X130862521Y-59694862D02*
X130938712Y-59732958D01*
X130938712Y-59732958D02*
X130976807Y-59771053D01*
X130976807Y-59771053D02*
X131014902Y-59847243D01*
X131014902Y-59847243D02*
X131014902Y-60152005D01*
D12*
G36*
X146110348Y-60168813D02*
G01*
X145570270Y-60170399D01*
X145839359Y-59359486D01*
X146110348Y-60168813D01*
G37*
G36*
X149641018Y-61261493D02*
G01*
X142801336Y-61261493D01*
X142801336Y-58889638D01*
X143023558Y-58889638D01*
X143026440Y-60918902D01*
X143048838Y-60972974D01*
X143090222Y-61014358D01*
X143144294Y-61036756D01*
X143202822Y-61036756D01*
X143256894Y-61014358D01*
X143298278Y-60972974D01*
X143320676Y-60918902D01*
X143323558Y-60889638D01*
X143321668Y-59558881D01*
X143704418Y-60375233D01*
X143711965Y-60395987D01*
X143716439Y-60400873D01*
X143719285Y-60406942D01*
X143736090Y-60422332D01*
X143751492Y-60439150D01*
X143757535Y-60441970D01*
X143762448Y-60446469D01*
X143783868Y-60454258D01*
X143804530Y-60463900D01*
X143811187Y-60464192D01*
X143817450Y-60466470D01*
X143840225Y-60465468D01*
X143863000Y-60466470D01*
X143869262Y-60464192D01*
X143875921Y-60463900D01*
X143896582Y-60454258D01*
X143918003Y-60446469D01*
X143922916Y-60441969D01*
X143928958Y-60439150D01*
X143944353Y-60422337D01*
X143961166Y-60406942D01*
X143966134Y-60398553D01*
X143968485Y-60395987D01*
X143969804Y-60392357D01*
X143976152Y-60381642D01*
X144357842Y-59559887D01*
X144359773Y-60918902D01*
X144382171Y-60972974D01*
X144423555Y-61014358D01*
X144477627Y-61036756D01*
X144536155Y-61036756D01*
X144590227Y-61014358D01*
X144631611Y-60972974D01*
X144654009Y-60918902D01*
X144656891Y-60889638D01*
X144656864Y-60870878D01*
X145024736Y-60870878D01*
X145028885Y-60929258D01*
X145055059Y-60981605D01*
X145099273Y-61019952D01*
X145154798Y-61038460D01*
X145213178Y-61034311D01*
X145265525Y-61008137D01*
X145303872Y-60963923D01*
X145315861Y-60937072D01*
X145471551Y-60467893D01*
X146209764Y-60465726D01*
X146376577Y-60963923D01*
X146414924Y-61008137D01*
X146467271Y-61034311D01*
X146525651Y-61038460D01*
X146581176Y-61019952D01*
X146625390Y-60981604D01*
X146651564Y-60929257D01*
X146655713Y-60870877D01*
X146649193Y-60842204D01*
X145995410Y-58889638D01*
X147023558Y-58889638D01*
X147026440Y-60918902D01*
X147048838Y-60972974D01*
X147090222Y-61014358D01*
X147144294Y-61036756D01*
X147202822Y-61036756D01*
X147256894Y-61014358D01*
X147298278Y-60972974D01*
X147320676Y-60918902D01*
X147323558Y-60889638D01*
X147320718Y-58889638D01*
X147975939Y-58889638D01*
X147978821Y-60918902D01*
X148001219Y-60972974D01*
X148042603Y-61014358D01*
X148096675Y-61036756D01*
X148155203Y-61036756D01*
X148209275Y-61014358D01*
X148250659Y-60972974D01*
X148273057Y-60918902D01*
X148275939Y-60889638D01*
X148273893Y-59449499D01*
X149136584Y-60954887D01*
X149144076Y-60972974D01*
X149150805Y-60979703D01*
X149155581Y-60988037D01*
X149171352Y-61000250D01*
X149185460Y-61014358D01*
X149194295Y-61018017D01*
X149201855Y-61023872D01*
X149221097Y-61029119D01*
X149239532Y-61036756D01*
X149249096Y-61036756D01*
X149258318Y-61039271D01*
X149278104Y-61036756D01*
X149298060Y-61036756D01*
X149306894Y-61033096D01*
X149316379Y-61031891D01*
X149333701Y-61021992D01*
X149352132Y-61014358D01*
X149358892Y-61007597D01*
X149367195Y-61002853D01*
X149379408Y-60987081D01*
X149393516Y-60972974D01*
X149397175Y-60964138D01*
X149403030Y-60956579D01*
X149408277Y-60937337D01*
X149415914Y-60918902D01*
X149417388Y-60903930D01*
X149418429Y-60900115D01*
X149418054Y-60897168D01*
X149418796Y-60889638D01*
X149415914Y-58860374D01*
X149393516Y-58806302D01*
X149352132Y-58764918D01*
X149298060Y-58742520D01*
X149239532Y-58742520D01*
X149185460Y-58764918D01*
X149144076Y-58806302D01*
X149121678Y-58860374D01*
X149118796Y-58889638D01*
X149120841Y-60329776D01*
X148258150Y-58824388D01*
X148250659Y-58806302D01*
X148243929Y-58799572D01*
X148239154Y-58791239D01*
X148223382Y-58779025D01*
X148209275Y-58764918D01*
X148200439Y-58761258D01*
X148192880Y-58755404D01*
X148173635Y-58750155D01*
X148155203Y-58742520D01*
X148145641Y-58742520D01*
X148136416Y-58740004D01*
X148116625Y-58742520D01*
X148096675Y-58742520D01*
X148087841Y-58746179D01*
X148078356Y-58747385D01*
X148061033Y-58757283D01*
X148042603Y-58764918D01*
X148035842Y-58771678D01*
X148027540Y-58776423D01*
X148015326Y-58792194D01*
X148001219Y-58806302D01*
X147997559Y-58815137D01*
X147991705Y-58822697D01*
X147986456Y-58841941D01*
X147978821Y-58860374D01*
X147977347Y-58875340D01*
X147976305Y-58879161D01*
X147976680Y-58882112D01*
X147975939Y-58889638D01*
X147320718Y-58889638D01*
X147320676Y-58860374D01*
X147298278Y-58806302D01*
X147256894Y-58764918D01*
X147202822Y-58742520D01*
X147144294Y-58742520D01*
X147090222Y-58764918D01*
X147048838Y-58806302D01*
X147026440Y-58860374D01*
X147023558Y-58889638D01*
X145995410Y-58889638D01*
X145985638Y-58860452D01*
X145984897Y-58850018D01*
X145976566Y-58833356D01*
X145970538Y-58815353D01*
X145963515Y-58807256D01*
X145958723Y-58797671D01*
X145944514Y-58785347D01*
X145932191Y-58771139D01*
X145922605Y-58766346D01*
X145914509Y-58759324D01*
X145896665Y-58753375D01*
X145879844Y-58744965D01*
X145869155Y-58744205D01*
X145858985Y-58740815D01*
X145840219Y-58742148D01*
X145821463Y-58740816D01*
X145811296Y-58744204D01*
X145800604Y-58744965D01*
X145783780Y-58753376D01*
X145765939Y-58759324D01*
X145757842Y-58766346D01*
X145748257Y-58771139D01*
X145735933Y-58785347D01*
X145721725Y-58797671D01*
X145716932Y-58807256D01*
X145709910Y-58815353D01*
X145697922Y-58842204D01*
X145221571Y-60277705D01*
X145216916Y-60288945D01*
X145216916Y-60291735D01*
X145024736Y-60870878D01*
X144656864Y-60870878D01*
X144654053Y-58891850D01*
X144655152Y-58866863D01*
X144654013Y-58863732D01*
X144654009Y-58860374D01*
X144644045Y-58836321D01*
X144635151Y-58811861D01*
X144632891Y-58809394D01*
X144631611Y-58806302D01*
X144613195Y-58787886D01*
X144595623Y-58768698D01*
X144592592Y-58767283D01*
X144590227Y-58764918D01*
X144566168Y-58754952D01*
X144542586Y-58743947D01*
X144539245Y-58743800D01*
X144536155Y-58742520D01*
X144510107Y-58742520D01*
X144484115Y-58741378D01*
X144480974Y-58742520D01*
X144477627Y-58742520D01*
X144453573Y-58752483D01*
X144429113Y-58761378D01*
X144426645Y-58763637D01*
X144423555Y-58764918D01*
X144405150Y-58783322D01*
X144385950Y-58800906D01*
X144383600Y-58804872D01*
X144382171Y-58806302D01*
X144380816Y-58809572D01*
X144370963Y-58826206D01*
X143841155Y-59966846D01*
X143307745Y-58829157D01*
X143298278Y-58806302D01*
X143295927Y-58803951D01*
X143294499Y-58800905D01*
X143275291Y-58783315D01*
X143256894Y-58764918D01*
X143253803Y-58763637D01*
X143251336Y-58761378D01*
X143226870Y-58752481D01*
X143202822Y-58742520D01*
X143199476Y-58742520D01*
X143196333Y-58741377D01*
X143170328Y-58742520D01*
X143144294Y-58742520D01*
X143141203Y-58743800D01*
X143137862Y-58743947D01*
X143114262Y-58754959D01*
X143090222Y-58764918D01*
X143087858Y-58767281D01*
X143084825Y-58768697D01*
X143067235Y-58787904D01*
X143048838Y-58806302D01*
X143047557Y-58809392D01*
X143045298Y-58811860D01*
X143036401Y-58836325D01*
X143026440Y-58860374D01*
X143025988Y-58864962D01*
X143025297Y-58866863D01*
X143025452Y-58870401D01*
X143023558Y-58889638D01*
X142801336Y-58889638D01*
X142801336Y-58517782D01*
X149641018Y-58517782D01*
X149641018Y-61261493D01*
G37*
D11*
G36*
X95227176Y-57985064D02*
G01*
X95299974Y-58056387D01*
X95338055Y-58130211D01*
X95382449Y-58302472D01*
X95383648Y-58426052D01*
X95341981Y-58598008D01*
X95303824Y-58676785D01*
X95230940Y-58751176D01*
X95119843Y-58789354D01*
X94970857Y-58790257D01*
X94969583Y-57948822D01*
X95112328Y-57947957D01*
X95227176Y-57985064D01*
G37*
G36*
X95653516Y-59060410D02*
G01*
X92604628Y-59060410D01*
X92604628Y-58297870D01*
X92715739Y-58297870D01*
X92717080Y-58436228D01*
X92715833Y-58444616D01*
X92717255Y-58454232D01*
X92717276Y-58456334D01*
X92717727Y-58457424D01*
X92718128Y-58460130D01*
X92765641Y-58644493D01*
X92766199Y-58652333D01*
X92770679Y-58664042D01*
X92771023Y-58665374D01*
X92771367Y-58665838D01*
X92771804Y-58666980D01*
X92820613Y-58761602D01*
X92824459Y-58770887D01*
X92826999Y-58773981D01*
X92827777Y-58775490D01*
X92829372Y-58776874D01*
X92834408Y-58783009D01*
X92922127Y-58868953D01*
X92923015Y-58870729D01*
X92931064Y-58877710D01*
X92941769Y-58888198D01*
X92944427Y-58889299D01*
X92946597Y-58891181D01*
X92960917Y-58897575D01*
X93103583Y-58943668D01*
X93113465Y-58947762D01*
X93117473Y-58948156D01*
X93119065Y-58948671D01*
X93121173Y-58948521D01*
X93129072Y-58949299D01*
X93224525Y-58947975D01*
X93234316Y-58948671D01*
X93238209Y-58947785D01*
X93239917Y-58947762D01*
X93241868Y-58946953D01*
X93249608Y-58945194D01*
X93380705Y-58900143D01*
X93382775Y-58900143D01*
X93392849Y-58895969D01*
X93406785Y-58891181D01*
X93408956Y-58889297D01*
X93411614Y-58888197D01*
X93423736Y-58878248D01*
X93481277Y-58818532D01*
X93481304Y-58818506D01*
X93493249Y-58789667D01*
X93494786Y-58774060D01*
X93493249Y-58425120D01*
X93481304Y-58396281D01*
X93459232Y-58374209D01*
X93430393Y-58362264D01*
X93414786Y-58360727D01*
X93208703Y-58362264D01*
X93179864Y-58374209D01*
X93157792Y-58396281D01*
X93145847Y-58425120D01*
X93145847Y-58456334D01*
X93157792Y-58485173D01*
X93179864Y-58507245D01*
X93208703Y-58519190D01*
X93224310Y-58520727D01*
X93335134Y-58519900D01*
X93336106Y-58740438D01*
X93325550Y-58751392D01*
X93214862Y-58789430D01*
X93145065Y-58790397D01*
X93030966Y-58753533D01*
X92958170Y-58682211D01*
X92920088Y-58608385D01*
X92875694Y-58436124D01*
X92874495Y-58312544D01*
X92916162Y-58140588D01*
X92954319Y-58061811D01*
X93027203Y-57987420D01*
X93138401Y-57949208D01*
X93251144Y-57948114D01*
X93346036Y-57994077D01*
X93377173Y-57996290D01*
X93406785Y-57986419D01*
X93430366Y-57965967D01*
X93444326Y-57938048D01*
X93446539Y-57906912D01*
X93436668Y-57877299D01*
X93429730Y-57869299D01*
X93763358Y-57869299D01*
X93764895Y-58884906D01*
X93776840Y-58913745D01*
X93798912Y-58935817D01*
X93827751Y-58947762D01*
X93858965Y-58947762D01*
X93887804Y-58935817D01*
X93909876Y-58913745D01*
X93921821Y-58884906D01*
X93923358Y-58869299D01*
X93922296Y-58167894D01*
X94344277Y-58904110D01*
X94348268Y-58913745D01*
X94351856Y-58917333D01*
X94354404Y-58921778D01*
X94362813Y-58928290D01*
X94370340Y-58935817D01*
X94375052Y-58937768D01*
X94379084Y-58940891D01*
X94389349Y-58943690D01*
X94399179Y-58947762D01*
X94404277Y-58947762D01*
X94409198Y-58949104D01*
X94419753Y-58947762D01*
X94430393Y-58947762D01*
X94435105Y-58945810D01*
X94440164Y-58945167D01*
X94449400Y-58939889D01*
X94459232Y-58935817D01*
X94462838Y-58932210D01*
X94467265Y-58929681D01*
X94473779Y-58921269D01*
X94481304Y-58913745D01*
X94483255Y-58909034D01*
X94486378Y-58905002D01*
X94489178Y-58894733D01*
X94493249Y-58884906D01*
X94494034Y-58876926D01*
X94494591Y-58874887D01*
X94494390Y-58873312D01*
X94494786Y-58869299D01*
X94493273Y-57869299D01*
X94810977Y-57869299D01*
X94812514Y-58884906D01*
X94824459Y-58913745D01*
X94846531Y-58935817D01*
X94875370Y-58947762D01*
X94890977Y-58949299D01*
X95127728Y-58947864D01*
X95139078Y-58948671D01*
X95143031Y-58947771D01*
X95144679Y-58947762D01*
X95146630Y-58946953D01*
X95154370Y-58945194D01*
X95285468Y-58900143D01*
X95287537Y-58900143D01*
X95297609Y-58895970D01*
X95311547Y-58891181D01*
X95313719Y-58889297D01*
X95316375Y-58888197D01*
X95328498Y-58878248D01*
X95422429Y-58782374D01*
X95430367Y-58775490D01*
X95432510Y-58772085D01*
X95433685Y-58770886D01*
X95434493Y-58768934D01*
X95438721Y-58762218D01*
X95482811Y-58671190D01*
X95487121Y-58665374D01*
X95491314Y-58653634D01*
X95491945Y-58652334D01*
X95491986Y-58651756D01*
X95492397Y-58650606D01*
X95537502Y-58464458D01*
X95540868Y-58456334D01*
X95541824Y-58446625D01*
X95542311Y-58444616D01*
X95542137Y-58443447D01*
X95542405Y-58440727D01*
X95541063Y-58302368D01*
X95542311Y-58293981D01*
X95540888Y-58284364D01*
X95540868Y-58282263D01*
X95540416Y-58281172D01*
X95540016Y-58278467D01*
X95492502Y-58094103D01*
X95491945Y-58086263D01*
X95487464Y-58074554D01*
X95487121Y-58073223D01*
X95486776Y-58072758D01*
X95486340Y-58071617D01*
X95437530Y-57976994D01*
X95433685Y-57967710D01*
X95431144Y-57964615D01*
X95430367Y-57963107D01*
X95428771Y-57961722D01*
X95423736Y-57955588D01*
X95336017Y-57869644D01*
X95335129Y-57867868D01*
X95327074Y-57860882D01*
X95316375Y-57850400D01*
X95313717Y-57849299D01*
X95311547Y-57847417D01*
X95297227Y-57841023D01*
X95154564Y-57794930D01*
X95144679Y-57790836D01*
X95140669Y-57790441D01*
X95139078Y-57789927D01*
X95136969Y-57790076D01*
X95129072Y-57789299D01*
X94875370Y-57790836D01*
X94846531Y-57802781D01*
X94824459Y-57824853D01*
X94812514Y-57853692D01*
X94810977Y-57869299D01*
X94493273Y-57869299D01*
X94493249Y-57853692D01*
X94481304Y-57824853D01*
X94459232Y-57802781D01*
X94430393Y-57790836D01*
X94399179Y-57790836D01*
X94370340Y-57802781D01*
X94348268Y-57824853D01*
X94336323Y-57853692D01*
X94334786Y-57869299D01*
X94335847Y-58570702D01*
X93913866Y-57834487D01*
X93909876Y-57824853D01*
X93906287Y-57821264D01*
X93903740Y-57816820D01*
X93895330Y-57810307D01*
X93887804Y-57802781D01*
X93883091Y-57800829D01*
X93879060Y-57797707D01*
X93868794Y-57794907D01*
X93858965Y-57790836D01*
X93853867Y-57790836D01*
X93848946Y-57789494D01*
X93838391Y-57790836D01*
X93827751Y-57790836D01*
X93823038Y-57792787D01*
X93817980Y-57793431D01*
X93808743Y-57798708D01*
X93798912Y-57802781D01*
X93795305Y-57806387D01*
X93790879Y-57808917D01*
X93784366Y-57817326D01*
X93776840Y-57824853D01*
X93774888Y-57829565D01*
X93771766Y-57833597D01*
X93768966Y-57843862D01*
X93764895Y-57853692D01*
X93764109Y-57861671D01*
X93763553Y-57863711D01*
X93763753Y-57865285D01*
X93763358Y-57869299D01*
X93429730Y-57869299D01*
X93416216Y-57853718D01*
X93402944Y-57845364D01*
X93317640Y-57804046D01*
X93316375Y-57802781D01*
X93307077Y-57798930D01*
X93293059Y-57792140D01*
X93290192Y-57791936D01*
X93287536Y-57790836D01*
X93271929Y-57789299D01*
X93129646Y-57790679D01*
X93119065Y-57789927D01*
X93115138Y-57790819D01*
X93113465Y-57790836D01*
X93111515Y-57791643D01*
X93103773Y-57793404D01*
X92972676Y-57838455D01*
X92970608Y-57838455D01*
X92960534Y-57842627D01*
X92946597Y-57847417D01*
X92944426Y-57849299D01*
X92941769Y-57850400D01*
X92929647Y-57860349D01*
X92835709Y-57956227D01*
X92827777Y-57963107D01*
X92825635Y-57966509D01*
X92824459Y-57967710D01*
X92823649Y-57969664D01*
X92819423Y-57976379D01*
X92775333Y-58067405D01*
X92771023Y-58073223D01*
X92766827Y-58084965D01*
X92766199Y-58086264D01*
X92766158Y-58086840D01*
X92765747Y-58087991D01*
X92720641Y-58274138D01*
X92717276Y-58282263D01*
X92716319Y-58291971D01*
X92715833Y-58293981D01*
X92716006Y-58295149D01*
X92715739Y-58297870D01*
X92604628Y-58297870D01*
X92604628Y-57678188D01*
X95653516Y-57678188D01*
X95653516Y-59060410D01*
G37*
X135416666Y-56454299D02*
X135416666Y-57168584D01*
X135416666Y-57168584D02*
X135369047Y-57311441D01*
X135369047Y-57311441D02*
X135273809Y-57406680D01*
X135273809Y-57406680D02*
X135130952Y-57454299D01*
X135130952Y-57454299D02*
X135035714Y-57454299D01*
X136416666Y-57454299D02*
X135845238Y-57454299D01*
X136130952Y-57454299D02*
X136130952Y-56454299D01*
X136130952Y-56454299D02*
X136035714Y-56597156D01*
X136035714Y-56597156D02*
X135940476Y-56692394D01*
X135940476Y-56692394D02*
X135845238Y-56740013D01*
D13*
%TO.C,J2*%
X98890000Y-63670000D02*
X98890000Y-66330000D01*
X116730000Y-63670000D02*
X98890000Y-63670000D01*
X116730000Y-63670000D02*
X116730000Y-66330000D01*
X116730000Y-66330000D02*
X98890000Y-66330000D01*
X119330000Y-65000000D02*
X119330000Y-66330000D01*
X119330000Y-66330000D02*
X118000000Y-66330000D01*
%TO.C,J1*%
X137140000Y-52340000D02*
X137140000Y-53590000D01*
X137440000Y-52640000D02*
X137440000Y-57360000D01*
X137440000Y-53950000D02*
X138050000Y-53950000D01*
X137440000Y-55250000D02*
X138050000Y-55250000D01*
X137440000Y-57360000D02*
X155560000Y-57360000D01*
X138050000Y-53250000D02*
X138050000Y-56750000D01*
X138050000Y-56750000D02*
X154950000Y-56750000D01*
X138390000Y-52340000D02*
X137140000Y-52340000D01*
X138900000Y-52440000D02*
X138900000Y-52640000D01*
X139200000Y-52440000D02*
X138900000Y-52440000D01*
X139200000Y-52540000D02*
X138900000Y-52540000D01*
X139200000Y-52640000D02*
X139200000Y-52440000D01*
X140000000Y-52640000D02*
X140000000Y-53250000D01*
X140000000Y-53250000D02*
X138050000Y-53250000D01*
X140400000Y-56250000D02*
X140600000Y-56250000D01*
X140400000Y-56750000D02*
X140400000Y-56250000D01*
X140500000Y-56750000D02*
X140500000Y-56250000D01*
X140600000Y-56250000D02*
X140600000Y-56750000D01*
X142400000Y-56250000D02*
X142600000Y-56250000D01*
X142400000Y-56750000D02*
X142400000Y-56250000D01*
X142500000Y-56750000D02*
X142500000Y-56250000D01*
X142600000Y-56250000D02*
X142600000Y-56750000D01*
X144400000Y-56250000D02*
X144600000Y-56250000D01*
X144400000Y-56750000D02*
X144400000Y-56250000D01*
X144500000Y-56750000D02*
X144500000Y-56250000D01*
X144600000Y-56250000D02*
X144600000Y-56750000D01*
X146400000Y-56250000D02*
X146600000Y-56250000D01*
X146400000Y-56750000D02*
X146400000Y-56250000D01*
X146500000Y-56750000D02*
X146500000Y-56250000D01*
X146600000Y-56250000D02*
X146600000Y-56750000D01*
X148400000Y-56250000D02*
X148600000Y-56250000D01*
X148400000Y-56750000D02*
X148400000Y-56250000D01*
X148500000Y-56750000D02*
X148500000Y-56250000D01*
X148600000Y-56250000D02*
X148600000Y-56750000D01*
X150400000Y-56250000D02*
X150600000Y-56250000D01*
X150400000Y-56750000D02*
X150400000Y-56250000D01*
X150500000Y-56750000D02*
X150500000Y-56250000D01*
X150600000Y-56250000D02*
X150600000Y-56750000D01*
X152400000Y-56250000D02*
X152600000Y-56250000D01*
X152400000Y-56750000D02*
X152400000Y-56250000D01*
X152500000Y-56750000D02*
X152500000Y-56250000D01*
X152600000Y-56250000D02*
X152600000Y-56750000D01*
X153000000Y-53250000D02*
X153000000Y-52640000D01*
X154950000Y-53250000D02*
X153000000Y-53250000D01*
X154950000Y-56750000D02*
X154950000Y-53250000D01*
X155560000Y-52640000D02*
X137440000Y-52640000D01*
X155560000Y-53950000D02*
X154950000Y-53950000D01*
X155560000Y-55250000D02*
X154950000Y-55250000D01*
X155560000Y-57360000D02*
X155560000Y-52640000D01*
%TO.C,J3*%
X91800000Y-60800000D02*
X96200000Y-60800000D01*
X91800000Y-65200000D02*
X91800000Y-60800000D01*
X96200000Y-60800000D02*
X96200000Y-65200000D01*
X96200000Y-65200000D02*
X91800000Y-65200000D01*
%TD*%
M02*
