M48
; DRILL file {KiCad 8.0.1} date 2024-04-09T17:17:27+0200
; FORMAT={-:-/ absolute / metric / decimal}
; #@! TF.CreationDate,2024-04-09T17:17:27+02:00
; #@! TF.GenerationSoftware,Kicad,Pcbnew,8.0.1
; #@! TF.FileFunction,MixedPlating,1,2
FMAT,2
METRIC
; #@! TA.AperFunction,Plated,PTH,ViaDrill
T1C0.200
; #@! TA.AperFunction,Plated,PTH,ViaDrill
T2C0.300
; #@! TA.AperFunction,Plated,PTH,ComponentDrill
T3C0.750
; #@! TA.AperFunction,Plated,PTH,ComponentDrill
T4C1.000
%
G90
G05
T1
X106.1Y-60.1
X109.1Y-60.1
X112.4Y-60.4
X116.5Y-61.7
T2
X94.25Y-59.5
X95.75Y-59.5
X97.25Y-59.5
X97.25Y-61.0
X97.25Y-62.75
X104.9Y-62.7
X111.9Y-62.6
X117.2Y-62.6
T3
X118.0Y-54.5
X120.0Y-54.5
X122.0Y-54.5
X124.0Y-54.5
X126.0Y-54.5
X128.0Y-54.5
X130.0Y-54.5
X132.0Y-54.5
X138.0Y-54.5
X140.0Y-54.5
X142.0Y-54.5
X144.0Y-54.5
X146.0Y-54.5
X148.0Y-54.5
X150.0Y-54.5
X152.0Y-54.5
T4
X100.22Y-65.0
X102.76Y-65.0
X105.3Y-65.0
X107.84Y-65.0
X110.38Y-65.0
X112.92Y-65.0
X115.46Y-65.0
X118.0Y-65.0
M30
