M48
; DRILL file {KiCad 8.0.1} date 2024-04-14T20:51:43+0200
; FORMAT={-:-/ absolute / metric / decimal}
; #@! TF.CreationDate,2024-04-14T20:51:43+02:00
; #@! TF.GenerationSoftware,Kicad,Pcbnew,8.0.1
; #@! TF.FileFunction,MixedPlating,1,2
FMAT,2
METRIC
; #@! TA.AperFunction,Plated,PTH,ViaDrill
T1C0.300
; #@! TA.AperFunction,Plated,PTH,ComponentDrill
T2C0.750
; #@! TA.AperFunction,Plated,PTH,ComponentDrill
T3C1.000
%
G90
G05
T1
X94.25Y-59.7
X95.75Y-59.7
X97.25Y-59.7
X97.25Y-61.2
X97.25Y-62.95
X104.9Y-62.7
X111.9Y-62.6
X117.2Y-62.6
T2
X139.5Y-54.45
X141.5Y-54.45
X143.5Y-54.45
X145.5Y-54.45
X147.5Y-54.45
X149.5Y-54.45
X151.5Y-54.45
X153.5Y-54.45
T3
X100.22Y-65.0
X102.76Y-65.0
X105.3Y-65.0
X107.84Y-65.0
X110.38Y-65.0
X112.92Y-65.0
X115.46Y-65.0
X118.0Y-65.0
M30
