%TF.GenerationSoftware,KiCad,Pcbnew,8.0.1*%
%TF.CreationDate,2024-04-09T17:17:27+02:00*%
%TF.ProjectId,vampire_pcb,76616d70-6972-4655-9f70-63622e6b6963,rev?*%
%TF.SameCoordinates,Original*%
%TF.FileFunction,Copper,L2,Bot*%
%TF.FilePolarity,Positive*%
%FSLAX46Y46*%
G04 Gerber Fmt 4.6, Leading zero omitted, Abs format (unit mm)*
G04 Created by KiCad (PCBNEW 8.0.1) date 2024-04-09 17:17:27*
%MOMM*%
%LPD*%
G01*
G04 APERTURE LIST*
G04 Aperture macros list*
%AMRoundRect*
0 Rectangle with rounded corners*
0 $1 Rounding radius*
0 $2 $3 $4 $5 $6 $7 $8 $9 X,Y pos of 4 corners*
0 Add a 4 corners polygon primitive as box body*
4,1,4,$2,$3,$4,$5,$6,$7,$8,$9,$2,$3,0*
0 Add four circle primitives for the rounded corners*
1,1,$1+$1,$2,$3*
1,1,$1+$1,$4,$5*
1,1,$1+$1,$6,$7*
1,1,$1+$1,$8,$9*
0 Add four rect primitives between the rounded corners*
20,1,$1+$1,$2,$3,$4,$5,0*
20,1,$1+$1,$4,$5,$6,$7,0*
20,1,$1+$1,$6,$7,$8,$9,0*
20,1,$1+$1,$8,$9,$2,$3,0*%
G04 Aperture macros list end*
%TA.AperFunction,ComponentPad*%
%ADD10RoundRect,0.250000X-0.350000X-0.625000X0.350000X-0.625000X0.350000X0.625000X-0.350000X0.625000X0*%
%TD*%
%TA.AperFunction,ComponentPad*%
%ADD11O,1.200000X1.750000*%
%TD*%
%TA.AperFunction,ComponentPad*%
%ADD12R,1.700000X1.700000*%
%TD*%
%TA.AperFunction,ComponentPad*%
%ADD13O,1.700000X1.700000*%
%TD*%
%TA.AperFunction,ViaPad*%
%ADD14C,0.500000*%
%TD*%
%TA.AperFunction,ViaPad*%
%ADD15C,0.700000*%
%TD*%
%TA.AperFunction,Conductor*%
%ADD16C,0.300000*%
%TD*%
%TA.AperFunction,Conductor*%
%ADD17C,0.200000*%
%TD*%
G04 APERTURE END LIST*
D10*
%TO.P,J4,1,Pin_1*%
%TO.N,GND*%
X138000000Y-54500000D03*
D11*
%TO.P,J4,2,Pin_2*%
%TO.N,SBL*%
X140000000Y-54500000D03*
%TO.P,J4,3,Pin_3*%
%TO.N,GND*%
X142000000Y-54500000D03*
%TO.P,J4,4,Pin_4*%
%TO.N,SBR*%
X144000000Y-54500000D03*
%TO.P,J4,5,Pin_5*%
%TO.N,GND*%
X146000000Y-54500000D03*
%TO.P,J4,6,Pin_6*%
%TO.N,SL*%
X148000000Y-54500000D03*
%TO.P,J4,7,Pin_7*%
%TO.N,GND*%
X150000000Y-54500000D03*
%TO.P,J4,8,Pin_8*%
%TO.N,SR*%
X152000000Y-54500000D03*
%TD*%
D12*
%TO.P,J1,1,Pin_1*%
%TO.N,FR*%
X118000000Y-65000000D03*
D13*
%TO.P,J1,2,Pin_2*%
%TO.N,SR*%
X115460000Y-65000000D03*
%TO.P,J1,3,Pin_3*%
%TO.N,CEN*%
X112920000Y-65000000D03*
%TO.P,J1,4,Pin_4*%
%TO.N,SL*%
X110380000Y-65000000D03*
%TO.P,J1,5,Pin_5*%
%TO.N,FL*%
X107840000Y-65000000D03*
%TO.P,J1,6,Pin_6*%
%TO.N,SBR*%
X105300000Y-65000000D03*
%TO.P,J1,7,Pin_7*%
%TO.N,SBL*%
X102760000Y-65000000D03*
%TO.P,J1,8,Pin_8*%
%TO.N,12V*%
X100220000Y-65000000D03*
%TD*%
D10*
%TO.P,J3,1,Pin_1*%
%TO.N,GND*%
X118000000Y-54500000D03*
D11*
%TO.P,J3,2,Pin_2*%
%TO.N,12V*%
X120000000Y-54500000D03*
%TO.P,J3,3,Pin_3*%
%TO.N,GND*%
X122000000Y-54500000D03*
%TO.P,J3,4,Pin_4*%
%TO.N,FL*%
X124000000Y-54500000D03*
%TO.P,J3,5,Pin_5*%
%TO.N,GND*%
X126000000Y-54500000D03*
%TO.P,J3,6,Pin_6*%
%TO.N,CEN*%
X128000000Y-54500000D03*
%TO.P,J3,7,Pin_7*%
%TO.N,GND*%
X130000000Y-54500000D03*
%TO.P,J3,8,Pin_8*%
%TO.N,FR*%
X132000000Y-54500000D03*
%TD*%
D14*
%TO.N,SBL*%
X106100000Y-60100000D03*
%TO.N,SR*%
X116500000Y-61700000D03*
%TO.N,SBR*%
X109100000Y-60100000D03*
%TO.N,SL*%
X112400000Y-60400000D03*
D15*
%TO.N,GND*%
X117200000Y-62600000D03*
X104900000Y-62700000D03*
X111900000Y-62600000D03*
X94250000Y-59500000D03*
X97250000Y-59500000D03*
X97250000Y-62750000D03*
X95750000Y-59500000D03*
X97250000Y-61000000D03*
%TD*%
D16*
%TO.N,SBL*%
X140000000Y-54500000D02*
X140000000Y-55400000D01*
D17*
X106100000Y-60100000D02*
X108500000Y-57700000D01*
X137700000Y-57700000D02*
X140000000Y-55400000D01*
X108500000Y-57700000D02*
X137700000Y-57700000D01*
%TO.N,SR*%
X116500000Y-61700000D02*
X148050000Y-61700000D01*
X148050000Y-61700000D02*
X152000000Y-57750000D01*
X152000000Y-57750000D02*
X152000000Y-54500000D01*
%TO.N,SBR*%
X142000000Y-59100000D02*
X144000000Y-57100000D01*
X109100000Y-60100000D02*
X110100000Y-59100000D01*
X121300000Y-59200000D02*
X121400000Y-59200000D01*
X110100000Y-59100000D02*
X142000000Y-59100000D01*
X144000000Y-57100000D02*
X144000000Y-54500000D01*
%TO.N,SL*%
X144500000Y-60400000D02*
X148000000Y-56900000D01*
X112400000Y-60400000D02*
X144500000Y-60400000D01*
X148000000Y-56900000D02*
X148000000Y-54500000D01*
%TD*%
%TA.AperFunction,Conductor*%
%TO.N,GND*%
G36*
X154391206Y-50820185D02*
G01*
X154411848Y-50836819D01*
X156163181Y-52588152D01*
X156196666Y-52649475D01*
X156199500Y-52675833D01*
X156199500Y-59824167D01*
X156179815Y-59891206D01*
X156163181Y-59911848D01*
X153411848Y-62663181D01*
X153350525Y-62696666D01*
X153324167Y-62699500D01*
X126539562Y-62699500D01*
X126460438Y-62699500D01*
X126422224Y-62709739D01*
X126384009Y-62719979D01*
X126384004Y-62719982D01*
X126315495Y-62759535D01*
X126315487Y-62759541D01*
X124411848Y-64663181D01*
X124350525Y-64696666D01*
X124324167Y-64699500D01*
X119224500Y-64699500D01*
X119157461Y-64679815D01*
X119111706Y-64627011D01*
X119100500Y-64575500D01*
X119100500Y-64125323D01*
X119100499Y-64125321D01*
X119085967Y-64052264D01*
X119085966Y-64052260D01*
X119030601Y-63969399D01*
X118947740Y-63914034D01*
X118947739Y-63914033D01*
X118947735Y-63914032D01*
X118874677Y-63899500D01*
X118874674Y-63899500D01*
X117125326Y-63899500D01*
X117125323Y-63899500D01*
X117052264Y-63914032D01*
X117052260Y-63914033D01*
X116969399Y-63969399D01*
X116914033Y-64052260D01*
X116914032Y-64052264D01*
X116899500Y-64125321D01*
X116899500Y-64575500D01*
X116879815Y-64642539D01*
X116827011Y-64688294D01*
X116775500Y-64699500D01*
X116612319Y-64699500D01*
X116545280Y-64679815D01*
X116499525Y-64627011D01*
X116493056Y-64609445D01*
X116490582Y-64600750D01*
X116399673Y-64418179D01*
X116276764Y-64255421D01*
X116276762Y-64255418D01*
X116126041Y-64118019D01*
X116126039Y-64118017D01*
X115952642Y-64010655D01*
X115952635Y-64010651D01*
X115846150Y-63969399D01*
X115762456Y-63936976D01*
X115561976Y-63899500D01*
X115358024Y-63899500D01*
X115157544Y-63936976D01*
X115157541Y-63936976D01*
X115157541Y-63936977D01*
X114967364Y-64010651D01*
X114967357Y-64010655D01*
X114793960Y-64118017D01*
X114793958Y-64118019D01*
X114643237Y-64255418D01*
X114520327Y-64418178D01*
X114429422Y-64600739D01*
X114429419Y-64600747D01*
X114429418Y-64600750D01*
X114426945Y-64609438D01*
X114389666Y-64668529D01*
X114326356Y-64698086D01*
X114307681Y-64699500D01*
X114072319Y-64699500D01*
X114005280Y-64679815D01*
X113959525Y-64627011D01*
X113953056Y-64609445D01*
X113950582Y-64600750D01*
X113859673Y-64418179D01*
X113736764Y-64255421D01*
X113736762Y-64255418D01*
X113586041Y-64118019D01*
X113586039Y-64118017D01*
X113412642Y-64010655D01*
X113412635Y-64010651D01*
X113306150Y-63969399D01*
X113222456Y-63936976D01*
X113021976Y-63899500D01*
X112818024Y-63899500D01*
X112617544Y-63936976D01*
X112617541Y-63936976D01*
X112617541Y-63936977D01*
X112427364Y-64010651D01*
X112427357Y-64010655D01*
X112253960Y-64118017D01*
X112253958Y-64118019D01*
X112103237Y-64255418D01*
X111980327Y-64418178D01*
X111889422Y-64600739D01*
X111889419Y-64600747D01*
X111889418Y-64600750D01*
X111886945Y-64609438D01*
X111849666Y-64668529D01*
X111786356Y-64698086D01*
X111767681Y-64699500D01*
X111532319Y-64699500D01*
X111465280Y-64679815D01*
X111419525Y-64627011D01*
X111413056Y-64609445D01*
X111410582Y-64600750D01*
X111319673Y-64418179D01*
X111196764Y-64255421D01*
X111196762Y-64255418D01*
X111046041Y-64118019D01*
X111046039Y-64118017D01*
X110872642Y-64010655D01*
X110872635Y-64010651D01*
X110766150Y-63969399D01*
X110682456Y-63936976D01*
X110481976Y-63899500D01*
X110278024Y-63899500D01*
X110077544Y-63936976D01*
X110077541Y-63936976D01*
X110077541Y-63936977D01*
X109887364Y-64010651D01*
X109887357Y-64010655D01*
X109713960Y-64118017D01*
X109713958Y-64118019D01*
X109563237Y-64255418D01*
X109440327Y-64418178D01*
X109349422Y-64600739D01*
X109349419Y-64600747D01*
X109349418Y-64600750D01*
X109346945Y-64609438D01*
X109309666Y-64668529D01*
X109246356Y-64698086D01*
X109227681Y-64699500D01*
X108992319Y-64699500D01*
X108925280Y-64679815D01*
X108879525Y-64627011D01*
X108873056Y-64609445D01*
X108870582Y-64600750D01*
X108779673Y-64418179D01*
X108656764Y-64255421D01*
X108656762Y-64255418D01*
X108506041Y-64118019D01*
X108506039Y-64118017D01*
X108332642Y-64010655D01*
X108332635Y-64010651D01*
X108226150Y-63969399D01*
X108142456Y-63936976D01*
X107941976Y-63899500D01*
X107738024Y-63899500D01*
X107537544Y-63936976D01*
X107537541Y-63936976D01*
X107537541Y-63936977D01*
X107347364Y-64010651D01*
X107347357Y-64010655D01*
X107173960Y-64118017D01*
X107173958Y-64118019D01*
X107023237Y-64255418D01*
X106900327Y-64418178D01*
X106809422Y-64600739D01*
X106809419Y-64600747D01*
X106809418Y-64600750D01*
X106806945Y-64609438D01*
X106769666Y-64668529D01*
X106706356Y-64698086D01*
X106687681Y-64699500D01*
X106452319Y-64699500D01*
X106385280Y-64679815D01*
X106339525Y-64627011D01*
X106333056Y-64609445D01*
X106330582Y-64600750D01*
X106239673Y-64418179D01*
X106116764Y-64255421D01*
X106116762Y-64255418D01*
X105966041Y-64118019D01*
X105966039Y-64118017D01*
X105792642Y-64010655D01*
X105792635Y-64010651D01*
X105686150Y-63969399D01*
X105602456Y-63936976D01*
X105401976Y-63899500D01*
X105198024Y-63899500D01*
X104997544Y-63936976D01*
X104997541Y-63936976D01*
X104997541Y-63936977D01*
X104807364Y-64010651D01*
X104807357Y-64010655D01*
X104633960Y-64118017D01*
X104633958Y-64118019D01*
X104483237Y-64255418D01*
X104360327Y-64418178D01*
X104269422Y-64600739D01*
X104269419Y-64600747D01*
X104269418Y-64600750D01*
X104266945Y-64609438D01*
X104229666Y-64668529D01*
X104166356Y-64698086D01*
X104147681Y-64699500D01*
X103912319Y-64699500D01*
X103845280Y-64679815D01*
X103799525Y-64627011D01*
X103793056Y-64609445D01*
X103790582Y-64600750D01*
X103699673Y-64418179D01*
X103576764Y-64255421D01*
X103576762Y-64255418D01*
X103426041Y-64118019D01*
X103426039Y-64118017D01*
X103252642Y-64010655D01*
X103252635Y-64010651D01*
X103146150Y-63969399D01*
X103062456Y-63936976D01*
X102861976Y-63899500D01*
X102658024Y-63899500D01*
X102457544Y-63936976D01*
X102457541Y-63936976D01*
X102457541Y-63936977D01*
X102267364Y-64010651D01*
X102267357Y-64010655D01*
X102093960Y-64118017D01*
X102093958Y-64118019D01*
X101943237Y-64255418D01*
X101820327Y-64418178D01*
X101729422Y-64600739D01*
X101729419Y-64600747D01*
X101729418Y-64600750D01*
X101726945Y-64609438D01*
X101689666Y-64668529D01*
X101626356Y-64698086D01*
X101607681Y-64699500D01*
X101372319Y-64699500D01*
X101305280Y-64679815D01*
X101259525Y-64627011D01*
X101253056Y-64609445D01*
X101250582Y-64600750D01*
X101159673Y-64418179D01*
X101036764Y-64255421D01*
X101036762Y-64255418D01*
X100886041Y-64118019D01*
X100886039Y-64118017D01*
X100712642Y-64010655D01*
X100712635Y-64010651D01*
X100606150Y-63969399D01*
X100522456Y-63936976D01*
X100321976Y-63899500D01*
X100118024Y-63899500D01*
X99917544Y-63936976D01*
X99917541Y-63936976D01*
X99917541Y-63936977D01*
X99727364Y-64010651D01*
X99727357Y-64010655D01*
X99553960Y-64118017D01*
X99553958Y-64118019D01*
X99403237Y-64255418D01*
X99280327Y-64418178D01*
X99189422Y-64600739D01*
X99189419Y-64600747D01*
X99189418Y-64600750D01*
X99186945Y-64609438D01*
X99149666Y-64668529D01*
X99086356Y-64698086D01*
X99067681Y-64699500D01*
X90424500Y-64699500D01*
X90357461Y-64679815D01*
X90311706Y-64627011D01*
X90300500Y-64575500D01*
X90300500Y-60175833D01*
X90320185Y-60108794D01*
X90336819Y-60088152D01*
X93088152Y-57336819D01*
X93149475Y-57303334D01*
X93175833Y-57300500D01*
X108104456Y-57300500D01*
X108171495Y-57320185D01*
X108217250Y-57372989D01*
X108227194Y-57442147D01*
X108198169Y-57505703D01*
X108192137Y-57512181D01*
X106141137Y-59563181D01*
X106079814Y-59596666D01*
X106053456Y-59599500D01*
X106028036Y-59599500D01*
X105889949Y-59640045D01*
X105768873Y-59717856D01*
X105674623Y-59826626D01*
X105674622Y-59826628D01*
X105614834Y-59957543D01*
X105594353Y-60100000D01*
X105614834Y-60242456D01*
X105674622Y-60373371D01*
X105674623Y-60373373D01*
X105768872Y-60482143D01*
X105889947Y-60559953D01*
X105889950Y-60559954D01*
X105889949Y-60559954D01*
X106028036Y-60600499D01*
X106028038Y-60600500D01*
X106028039Y-60600500D01*
X106171962Y-60600500D01*
X106171962Y-60600499D01*
X106310053Y-60559953D01*
X106431128Y-60482143D01*
X106525377Y-60373373D01*
X106585165Y-60242457D01*
X106601447Y-60129208D01*
X106630470Y-60065656D01*
X106636489Y-60059191D01*
X108608863Y-58086819D01*
X108670186Y-58053334D01*
X108696544Y-58050500D01*
X137746142Y-58050500D01*
X137746144Y-58050500D01*
X137835288Y-58026614D01*
X137915212Y-57980470D01*
X140087227Y-55808453D01*
X140142817Y-55776360D01*
X140154587Y-55773207D01*
X140245913Y-55720480D01*
X140320480Y-55645913D01*
X140364456Y-55569743D01*
X140402951Y-55528644D01*
X140542162Y-55435626D01*
X140660626Y-55317162D01*
X140686996Y-55277697D01*
X140753703Y-55177863D01*
X140753703Y-55177861D01*
X140757087Y-55172798D01*
X140758099Y-55173474D01*
X140802557Y-55128209D01*
X140870693Y-55112743D01*
X140936375Y-55136570D01*
X140978748Y-55192124D01*
X140980406Y-55196810D01*
X140980588Y-55197251D01*
X141059195Y-55351524D01*
X141160967Y-55491602D01*
X141283397Y-55614032D01*
X141423475Y-55715804D01*
X141577744Y-55794408D01*
X141742415Y-55847914D01*
X141742414Y-55847914D01*
X141749999Y-55849115D01*
X141750000Y-55849114D01*
X141750000Y-54924000D01*
X141769685Y-54856961D01*
X141809107Y-54822800D01*
X141855255Y-54849444D01*
X141950630Y-54875000D01*
X142049370Y-54875000D01*
X142144745Y-54849444D01*
X142194122Y-54820935D01*
X142238794Y-54872489D01*
X142250000Y-54924000D01*
X142250000Y-55849115D01*
X142257584Y-55847914D01*
X142422255Y-55794408D01*
X142576524Y-55715804D01*
X142716602Y-55614032D01*
X142839032Y-55491602D01*
X142940804Y-55351524D01*
X143019411Y-55197251D01*
X143021271Y-55192760D01*
X143022475Y-55193258D01*
X143058540Y-55140512D01*
X143122898Y-55113311D01*
X143191745Y-55125222D01*
X143243223Y-55172464D01*
X143246254Y-55177798D01*
X143339373Y-55317162D01*
X143457837Y-55435626D01*
X143594391Y-55526868D01*
X143639196Y-55580480D01*
X143649500Y-55629970D01*
X143649500Y-56903456D01*
X143629815Y-56970495D01*
X143613181Y-56991137D01*
X141891137Y-58713181D01*
X141829814Y-58746666D01*
X141803456Y-58749500D01*
X110053856Y-58749500D01*
X109964712Y-58773386D01*
X109964709Y-58773387D01*
X109884791Y-58819527D01*
X109884786Y-58819531D01*
X109141137Y-59563181D01*
X109079814Y-59596666D01*
X109053456Y-59599500D01*
X109028036Y-59599500D01*
X108889949Y-59640045D01*
X108768873Y-59717856D01*
X108674623Y-59826626D01*
X108674622Y-59826628D01*
X108614834Y-59957543D01*
X108594353Y-60100000D01*
X108614834Y-60242456D01*
X108674622Y-60373371D01*
X108674623Y-60373373D01*
X108768872Y-60482143D01*
X108889947Y-60559953D01*
X108889950Y-60559954D01*
X108889949Y-60559954D01*
X109028036Y-60600499D01*
X109028038Y-60600500D01*
X109028039Y-60600500D01*
X109171962Y-60600500D01*
X109171962Y-60600499D01*
X109310053Y-60559953D01*
X109431128Y-60482143D01*
X109525377Y-60373373D01*
X109585165Y-60242457D01*
X109601447Y-60129208D01*
X109630470Y-60065656D01*
X109636488Y-60059192D01*
X110208863Y-59486819D01*
X110270186Y-59453334D01*
X110296544Y-59450500D01*
X121003640Y-59450500D01*
X121070679Y-59470185D01*
X121079129Y-59476126D01*
X121084784Y-59480465D01*
X121084788Y-59480469D01*
X121084792Y-59480471D01*
X121084793Y-59480472D01*
X121164706Y-59526611D01*
X121164707Y-59526611D01*
X121164712Y-59526614D01*
X121253856Y-59550500D01*
X121253858Y-59550500D01*
X121446142Y-59550500D01*
X121446144Y-59550500D01*
X121535288Y-59526614D01*
X121615212Y-59480469D01*
X121615218Y-59480462D01*
X121620871Y-59476126D01*
X121686040Y-59450930D01*
X121696360Y-59450500D01*
X142046142Y-59450500D01*
X142046144Y-59450500D01*
X142135288Y-59426614D01*
X142215212Y-59380470D01*
X144280470Y-57315212D01*
X144326614Y-57235288D01*
X144328936Y-57226619D01*
X144328939Y-57226615D01*
X144328938Y-57226615D01*
X144333965Y-57207853D01*
X144350500Y-57146144D01*
X144350500Y-55629970D01*
X144370185Y-55562931D01*
X144405609Y-55526868D01*
X144542162Y-55435626D01*
X144660626Y-55317162D01*
X144686996Y-55277697D01*
X144753703Y-55177863D01*
X144753703Y-55177861D01*
X144757087Y-55172798D01*
X144758099Y-55173474D01*
X144802557Y-55128209D01*
X144870693Y-55112743D01*
X144936375Y-55136570D01*
X144978748Y-55192124D01*
X144980406Y-55196810D01*
X144980588Y-55197251D01*
X145059195Y-55351524D01*
X145160967Y-55491602D01*
X145283397Y-55614032D01*
X145423475Y-55715804D01*
X145577744Y-55794408D01*
X145742415Y-55847914D01*
X145742414Y-55847914D01*
X145749999Y-55849115D01*
X145750000Y-55849114D01*
X145750000Y-54924000D01*
X145769685Y-54856961D01*
X145809107Y-54822800D01*
X145855255Y-54849444D01*
X145950630Y-54875000D01*
X146049370Y-54875000D01*
X146144745Y-54849444D01*
X146194122Y-54820935D01*
X146238794Y-54872489D01*
X146250000Y-54924000D01*
X146250000Y-55849115D01*
X146257584Y-55847914D01*
X146422255Y-55794408D01*
X146576524Y-55715804D01*
X146716602Y-55614032D01*
X146839032Y-55491602D01*
X146940804Y-55351524D01*
X147019411Y-55197251D01*
X147021271Y-55192760D01*
X147022475Y-55193258D01*
X147058540Y-55140512D01*
X147122898Y-55113311D01*
X147191745Y-55125222D01*
X147243223Y-55172464D01*
X147246254Y-55177798D01*
X147339373Y-55317162D01*
X147457837Y-55435626D01*
X147594391Y-55526868D01*
X147639196Y-55580480D01*
X147649500Y-55629970D01*
X147649500Y-56703456D01*
X147629815Y-56770495D01*
X147613181Y-56791137D01*
X144391137Y-60013181D01*
X144329814Y-60046666D01*
X144303456Y-60049500D01*
X112813895Y-60049500D01*
X112746856Y-60029815D01*
X112732688Y-60019210D01*
X112731132Y-60017862D01*
X112731128Y-60017857D01*
X112610053Y-59940047D01*
X112610051Y-59940046D01*
X112610049Y-59940045D01*
X112610050Y-59940045D01*
X112471963Y-59899500D01*
X112471961Y-59899500D01*
X112328039Y-59899500D01*
X112328036Y-59899500D01*
X112189949Y-59940045D01*
X112068873Y-60017856D01*
X111974623Y-60126626D01*
X111974622Y-60126628D01*
X111914834Y-60257543D01*
X111894353Y-60400000D01*
X111914834Y-60542456D01*
X111974622Y-60673371D01*
X111974623Y-60673373D01*
X112068872Y-60782143D01*
X112189947Y-60859953D01*
X112189950Y-60859954D01*
X112189949Y-60859954D01*
X112328036Y-60900499D01*
X112328038Y-60900500D01*
X112328039Y-60900500D01*
X112471962Y-60900500D01*
X112471962Y-60900499D01*
X112610053Y-60859953D01*
X112731128Y-60782143D01*
X112731136Y-60782133D01*
X112732688Y-60780790D01*
X112734572Y-60779929D01*
X112738589Y-60777348D01*
X112738960Y-60777925D01*
X112796243Y-60751763D01*
X112813895Y-60750500D01*
X144546142Y-60750500D01*
X144546144Y-60750500D01*
X144635288Y-60726614D01*
X144715212Y-60680470D01*
X148280469Y-57115213D01*
X148326614Y-57035288D01*
X148350500Y-56946144D01*
X148350500Y-55629970D01*
X148370185Y-55562931D01*
X148405609Y-55526868D01*
X148542162Y-55435626D01*
X148660626Y-55317162D01*
X148686996Y-55277697D01*
X148753703Y-55177863D01*
X148753703Y-55177861D01*
X148757087Y-55172798D01*
X148758099Y-55173474D01*
X148802557Y-55128209D01*
X148870693Y-55112743D01*
X148936375Y-55136570D01*
X148978748Y-55192124D01*
X148980406Y-55196810D01*
X148980588Y-55197251D01*
X149059195Y-55351524D01*
X149160967Y-55491602D01*
X149283397Y-55614032D01*
X149423475Y-55715804D01*
X149577744Y-55794408D01*
X149742415Y-55847914D01*
X149742414Y-55847914D01*
X149749999Y-55849115D01*
X149750000Y-55849114D01*
X149750000Y-54924000D01*
X149769685Y-54856961D01*
X149809107Y-54822800D01*
X149855255Y-54849444D01*
X149950630Y-54875000D01*
X150049370Y-54875000D01*
X150144745Y-54849444D01*
X150194122Y-54820935D01*
X150238794Y-54872489D01*
X150250000Y-54924000D01*
X150250000Y-55849115D01*
X150257584Y-55847914D01*
X150422255Y-55794408D01*
X150576524Y-55715804D01*
X150716602Y-55614032D01*
X150839032Y-55491602D01*
X150940804Y-55351524D01*
X151019411Y-55197251D01*
X151021271Y-55192760D01*
X151022475Y-55193258D01*
X151058540Y-55140512D01*
X151122898Y-55113311D01*
X151191745Y-55125222D01*
X151243223Y-55172464D01*
X151246254Y-55177798D01*
X151339373Y-55317162D01*
X151457837Y-55435626D01*
X151594391Y-55526868D01*
X151639196Y-55580480D01*
X151649500Y-55629970D01*
X151649500Y-57553456D01*
X151629815Y-57620495D01*
X151613181Y-57641137D01*
X147941137Y-61313181D01*
X147879814Y-61346666D01*
X147853456Y-61349500D01*
X116913895Y-61349500D01*
X116846856Y-61329815D01*
X116832688Y-61319210D01*
X116831132Y-61317862D01*
X116831128Y-61317857D01*
X116710053Y-61240047D01*
X116710051Y-61240046D01*
X116710049Y-61240045D01*
X116710050Y-61240045D01*
X116571963Y-61199500D01*
X116571961Y-61199500D01*
X116428039Y-61199500D01*
X116428036Y-61199500D01*
X116289949Y-61240045D01*
X116168873Y-61317856D01*
X116074623Y-61426626D01*
X116074622Y-61426628D01*
X116014834Y-61557543D01*
X115994353Y-61700000D01*
X116014834Y-61842456D01*
X116074622Y-61973371D01*
X116074623Y-61973373D01*
X116168872Y-62082143D01*
X116289947Y-62159953D01*
X116289950Y-62159954D01*
X116289949Y-62159954D01*
X116428036Y-62200499D01*
X116428038Y-62200500D01*
X116428039Y-62200500D01*
X116571962Y-62200500D01*
X116571962Y-62200499D01*
X116710053Y-62159953D01*
X116831128Y-62082143D01*
X116831136Y-62082133D01*
X116832688Y-62080790D01*
X116834572Y-62079929D01*
X116838589Y-62077348D01*
X116838960Y-62077925D01*
X116896243Y-62051763D01*
X116913895Y-62050500D01*
X148096142Y-62050500D01*
X148096144Y-62050500D01*
X148185288Y-62026614D01*
X148265212Y-61980470D01*
X152280470Y-57965212D01*
X152326614Y-57885288D01*
X152350500Y-57796143D01*
X152350500Y-57703856D01*
X152350500Y-55629970D01*
X152370185Y-55562931D01*
X152405609Y-55526868D01*
X152542162Y-55435626D01*
X152660626Y-55317162D01*
X152675445Y-55294984D01*
X152753703Y-55177863D01*
X152817816Y-55023082D01*
X152829132Y-54966191D01*
X152842337Y-54899809D01*
X152874722Y-54837898D01*
X152935437Y-54803324D01*
X152963954Y-54800000D01*
X153000000Y-54800000D01*
X153000000Y-53500000D01*
X152500000Y-53000000D01*
X137500000Y-53000000D01*
X137392484Y-53107516D01*
X137284967Y-53215032D01*
X137262384Y-53232888D01*
X137181656Y-53282682D01*
X137057682Y-53406656D01*
X137007830Y-53487479D01*
X137001353Y-53495684D01*
X136994536Y-53509033D01*
X136965642Y-53555878D01*
X136910494Y-53722302D01*
X136910493Y-53722309D01*
X136900000Y-53825013D01*
X136900000Y-54250000D01*
X136909976Y-54259976D01*
X136943039Y-54269685D01*
X136988794Y-54322489D01*
X137000000Y-54374000D01*
X137000000Y-54626000D01*
X136980315Y-54693039D01*
X136927511Y-54738794D01*
X136906673Y-54743327D01*
X136900001Y-54750000D01*
X136900001Y-55174986D01*
X136910494Y-55277697D01*
X136965641Y-55444119D01*
X136965643Y-55444124D01*
X137057684Y-55593345D01*
X137181654Y-55717315D01*
X137330875Y-55809356D01*
X137330880Y-55809358D01*
X137497302Y-55864505D01*
X137497309Y-55864506D01*
X137600019Y-55874999D01*
X137749999Y-55874999D01*
X137750000Y-55874998D01*
X137750000Y-54924000D01*
X137769685Y-54856961D01*
X137809107Y-54822800D01*
X137855255Y-54849444D01*
X137950630Y-54875000D01*
X138049370Y-54875000D01*
X138144745Y-54849444D01*
X138194122Y-54820935D01*
X138238794Y-54872489D01*
X138250000Y-54924000D01*
X138250000Y-55874999D01*
X138399972Y-55874999D01*
X138399986Y-55874998D01*
X138502697Y-55864505D01*
X138669119Y-55809358D01*
X138669124Y-55809356D01*
X138818345Y-55717315D01*
X138942315Y-55593345D01*
X139034356Y-55444124D01*
X139034359Y-55444117D01*
X139083776Y-55294984D01*
X139123548Y-55237539D01*
X139188063Y-55210715D01*
X139256839Y-55223030D01*
X139304584Y-55265096D01*
X139339373Y-55317161D01*
X139339376Y-55317165D01*
X139375582Y-55353370D01*
X139409068Y-55414692D01*
X139404084Y-55484384D01*
X139375583Y-55528733D01*
X137591137Y-57313181D01*
X137529814Y-57346666D01*
X137503456Y-57349500D01*
X113359978Y-57349500D01*
X113292939Y-57329815D01*
X113247184Y-57277011D01*
X113237240Y-57207853D01*
X113252590Y-57163501D01*
X113262611Y-57146144D01*
X113280021Y-57115989D01*
X113300500Y-57039562D01*
X113300500Y-54250000D01*
X116900000Y-54250000D01*
X117719670Y-54250000D01*
X117699925Y-54269745D01*
X117650556Y-54355255D01*
X117625000Y-54450630D01*
X117625000Y-54549370D01*
X117650556Y-54644745D01*
X117699925Y-54730255D01*
X117719670Y-54750000D01*
X116900001Y-54750000D01*
X116900001Y-55174986D01*
X116910494Y-55277697D01*
X116965641Y-55444119D01*
X116965643Y-55444124D01*
X117057684Y-55593345D01*
X117181654Y-55717315D01*
X117330875Y-55809356D01*
X117330880Y-55809358D01*
X117497302Y-55864505D01*
X117497309Y-55864506D01*
X117600019Y-55874999D01*
X117749999Y-55874999D01*
X117750000Y-55874998D01*
X117750000Y-54780330D01*
X117769745Y-54800075D01*
X117855255Y-54849444D01*
X117950630Y-54875000D01*
X118049370Y-54875000D01*
X118144745Y-54849444D01*
X118230255Y-54800075D01*
X118250000Y-54780330D01*
X118250000Y-55874999D01*
X118399972Y-55874999D01*
X118399986Y-55874998D01*
X118502697Y-55864505D01*
X118669119Y-55809358D01*
X118669124Y-55809356D01*
X118818342Y-55717317D01*
X118930148Y-55605511D01*
X118991471Y-55572026D01*
X119061163Y-55577010D01*
X119105511Y-55605511D01*
X119500000Y-56000000D01*
X132500000Y-56000000D01*
X133000000Y-55500000D01*
X133000000Y-53500000D01*
X132500000Y-53000000D01*
X119500000Y-53000000D01*
X119499999Y-53000000D01*
X119105511Y-53394488D01*
X119044188Y-53427973D01*
X118974496Y-53422989D01*
X118930149Y-53394488D01*
X118818345Y-53282684D01*
X118669124Y-53190643D01*
X118669119Y-53190641D01*
X118502697Y-53135494D01*
X118502690Y-53135493D01*
X118399986Y-53125000D01*
X118250000Y-53125000D01*
X118250000Y-54219670D01*
X118230255Y-54199925D01*
X118144745Y-54150556D01*
X118049370Y-54125000D01*
X117950630Y-54125000D01*
X117855255Y-54150556D01*
X117769745Y-54199925D01*
X117750000Y-54219670D01*
X117750000Y-53125000D01*
X117600027Y-53125000D01*
X117600012Y-53125001D01*
X117497302Y-53135494D01*
X117330880Y-53190641D01*
X117330875Y-53190643D01*
X117181654Y-53282684D01*
X117057684Y-53406654D01*
X116965643Y-53555875D01*
X116965641Y-53555880D01*
X116910494Y-53722302D01*
X116910493Y-53722309D01*
X116900000Y-53825013D01*
X116900000Y-54250000D01*
X113300500Y-54250000D01*
X113300500Y-52675833D01*
X113320185Y-52608794D01*
X113336819Y-52588152D01*
X115088152Y-50836819D01*
X115149475Y-50803334D01*
X115175833Y-50800500D01*
X154324167Y-50800500D01*
X154391206Y-50820185D01*
G37*
%TD.AperFunction*%
%TD*%
M02*
