%TF.GenerationSoftware,KiCad,Pcbnew,8.0.1*%
%TF.CreationDate,2024-04-09T17:17:27+02:00*%
%TF.ProjectId,vampire_pcb,76616d70-6972-4655-9f70-63622e6b6963,rev?*%
%TF.SameCoordinates,Original*%
%TF.FileFunction,Legend,Top*%
%TF.FilePolarity,Positive*%
%FSLAX46Y46*%
G04 Gerber Fmt 4.6, Leading zero omitted, Abs format (unit mm)*
G04 Created by KiCad (PCBNEW 8.0.1) date 2024-04-09 17:17:27*
%MOMM*%
%LPD*%
G01*
G04 APERTURE LIST*
%ADD10C,0.150000*%
%ADD11C,0.300000*%
%ADD12C,0.120000*%
G04 APERTURE END LIST*
D10*
G36*
X101024222Y-62109406D02*
G01*
X100754182Y-62110199D01*
X100888727Y-61704742D01*
X101024222Y-62109406D01*
G37*
G36*
X101985613Y-61576871D02*
G01*
X102016940Y-61607115D01*
X102052398Y-61675972D01*
X102053383Y-61783604D01*
X102020203Y-61851985D01*
X101989958Y-61883313D01*
X101921270Y-61918684D01*
X101630045Y-61919745D01*
X101629512Y-61544550D01*
X101916846Y-61543503D01*
X101985613Y-61576871D01*
G37*
G36*
X102313366Y-62655341D02*
G01*
X99609252Y-62655341D01*
X99609252Y-61484451D01*
X99720363Y-61484451D01*
X99731562Y-61511487D01*
X99752254Y-61532179D01*
X99779290Y-61543378D01*
X99793922Y-61544819D01*
X100004741Y-61544300D01*
X100006077Y-62484451D01*
X100017276Y-62511487D01*
X100037968Y-62532179D01*
X100065004Y-62543378D01*
X100094268Y-62543378D01*
X100121304Y-62532179D01*
X100141996Y-62511487D01*
X100153195Y-62484451D01*
X100154636Y-62469819D01*
X100154623Y-62460439D01*
X100481416Y-62460439D01*
X100483491Y-62489629D01*
X100496577Y-62515802D01*
X100518684Y-62534976D01*
X100546447Y-62544230D01*
X100575637Y-62542155D01*
X100601810Y-62529069D01*
X100620984Y-62506962D01*
X100626978Y-62493536D01*
X100704823Y-62258946D01*
X101073929Y-62257862D01*
X101157336Y-62506961D01*
X101176510Y-62529068D01*
X101202683Y-62542155D01*
X101231873Y-62544230D01*
X101259635Y-62534976D01*
X101281743Y-62515802D01*
X101294829Y-62489628D01*
X101296904Y-62460438D01*
X101293644Y-62446102D01*
X100966753Y-61469819D01*
X101480827Y-61469819D01*
X101482268Y-62484451D01*
X101493467Y-62511487D01*
X101514159Y-62532179D01*
X101541195Y-62543378D01*
X101570459Y-62543378D01*
X101597495Y-62532179D01*
X101618187Y-62511487D01*
X101629386Y-62484451D01*
X101630827Y-62469819D01*
X101630256Y-62068356D01*
X101925129Y-62067282D01*
X101927398Y-62068039D01*
X101938739Y-62067233D01*
X101951411Y-62067187D01*
X101953900Y-62066155D01*
X101956588Y-62065965D01*
X101970320Y-62060710D01*
X102064876Y-62012017D01*
X102073685Y-62008369D01*
X102076587Y-62005986D01*
X102078001Y-62005259D01*
X102079300Y-62003760D01*
X102085050Y-61999042D01*
X102132391Y-61950006D01*
X102138886Y-61944374D01*
X102140865Y-61941228D01*
X102141996Y-61940058D01*
X102142753Y-61938230D01*
X102146718Y-61931931D01*
X102188393Y-61846041D01*
X102189615Y-61844820D01*
X102193284Y-61835960D01*
X102199592Y-61822962D01*
X102199783Y-61820272D01*
X102200814Y-61817784D01*
X102202255Y-61803152D01*
X102201050Y-61671521D01*
X102201666Y-61669675D01*
X102200940Y-61659460D01*
X102200814Y-61645663D01*
X102199783Y-61643174D01*
X102199592Y-61640485D01*
X102194337Y-61626754D01*
X102145645Y-61532199D01*
X102141996Y-61523389D01*
X102139613Y-61520486D01*
X102138886Y-61519073D01*
X102137387Y-61517773D01*
X102132669Y-61512024D01*
X102083633Y-61464682D01*
X102078001Y-61458188D01*
X102074855Y-61456208D01*
X102073685Y-61455078D01*
X102071857Y-61454320D01*
X102065558Y-61450356D01*
X101979669Y-61408681D01*
X101978447Y-61407459D01*
X101969581Y-61403786D01*
X101956588Y-61397482D01*
X101953900Y-61397291D01*
X101951411Y-61396260D01*
X101936779Y-61394819D01*
X101541195Y-61396260D01*
X101514159Y-61407459D01*
X101493467Y-61428151D01*
X101482268Y-61455187D01*
X101480827Y-61469819D01*
X100966753Y-61469819D01*
X100961866Y-61455223D01*
X100961496Y-61450010D01*
X100957332Y-61441683D01*
X100954317Y-61432676D01*
X100950805Y-61428627D01*
X100948410Y-61423836D01*
X100941306Y-61417674D01*
X100935143Y-61410569D01*
X100930349Y-61408172D01*
X100926302Y-61404662D01*
X100917380Y-61401688D01*
X100908970Y-61397483D01*
X100903625Y-61397103D01*
X100898540Y-61395408D01*
X100889160Y-61396074D01*
X100879780Y-61395408D01*
X100874694Y-61397103D01*
X100869350Y-61397483D01*
X100860942Y-61401687D01*
X100852017Y-61404662D01*
X100847966Y-61408175D01*
X100843177Y-61410570D01*
X100837018Y-61417670D01*
X100829910Y-61423836D01*
X100827513Y-61428629D01*
X100824003Y-61432677D01*
X100818009Y-61446102D01*
X100579834Y-62163850D01*
X100577506Y-62169472D01*
X100577506Y-62170867D01*
X100481416Y-62460439D01*
X100154623Y-62460439D01*
X100153321Y-61543935D01*
X100379982Y-61543378D01*
X100407018Y-61532179D01*
X100427710Y-61511487D01*
X100438909Y-61484451D01*
X100438909Y-61455187D01*
X100427710Y-61428151D01*
X100407018Y-61407459D01*
X100379982Y-61396260D01*
X100365350Y-61394819D01*
X99779290Y-61396260D01*
X99752254Y-61407459D01*
X99731562Y-61428151D01*
X99720363Y-61455187D01*
X99720363Y-61484451D01*
X99609252Y-61484451D01*
X99609252Y-61283708D01*
X102313366Y-61283708D01*
X102313366Y-62655341D01*
G37*
D11*
G36*
X141733129Y-59153740D02*
G01*
X141795785Y-59214231D01*
X141866701Y-59351943D01*
X141868671Y-59567208D01*
X141802311Y-59703971D01*
X141741820Y-59766628D01*
X141604447Y-59837369D01*
X141352146Y-59838289D01*
X141346497Y-59837292D01*
X141341826Y-59838326D01*
X141021995Y-59839491D01*
X141020929Y-59089101D01*
X141595597Y-59087007D01*
X141733129Y-59153740D01*
G37*
G36*
X147256939Y-59153740D02*
G01*
X147319595Y-59214231D01*
X147390511Y-59351943D01*
X147392481Y-59567208D01*
X147326121Y-59703971D01*
X147265630Y-59766628D01*
X147128257Y-59837369D01*
X146875956Y-59838289D01*
X146870307Y-59837292D01*
X146865636Y-59838326D01*
X146545805Y-59839491D01*
X146544739Y-59089101D01*
X147119407Y-59087007D01*
X147256939Y-59153740D01*
G37*
G36*
X145334158Y-60218813D02*
G01*
X144794080Y-60220399D01*
X145063169Y-59409486D01*
X145334158Y-60218813D01*
G37*
G36*
X149817209Y-61311860D02*
G01*
X140501336Y-61311860D01*
X140501336Y-58939638D01*
X140723558Y-58939638D01*
X140726440Y-60968902D01*
X140748838Y-61022974D01*
X140790222Y-61064358D01*
X140844294Y-61086756D01*
X140902822Y-61086756D01*
X140956894Y-61064358D01*
X140998278Y-61022974D01*
X141020676Y-60968902D01*
X141023558Y-60939638D01*
X141022417Y-60136714D01*
X141270862Y-60135809D01*
X141912673Y-61047978D01*
X141962030Y-61079431D01*
X142019666Y-61089602D01*
X142076807Y-61076943D01*
X142124755Y-61043380D01*
X142156209Y-60994022D01*
X142166379Y-60936387D01*
X142153720Y-60879245D01*
X142139300Y-60853618D01*
X141633588Y-60134879D01*
X141639384Y-60134467D01*
X141664727Y-60134375D01*
X141669704Y-60132313D01*
X141675082Y-60131931D01*
X141702545Y-60121421D01*
X141891646Y-60024041D01*
X141909275Y-60016739D01*
X141915083Y-60011971D01*
X141917907Y-60010518D01*
X141920504Y-60007523D01*
X141932006Y-59998084D01*
X142026692Y-59900008D01*
X142039676Y-59888748D01*
X142043634Y-59882459D01*
X142045899Y-59880114D01*
X142047415Y-59876452D01*
X142055341Y-59863862D01*
X142138689Y-59692085D01*
X142141135Y-59689640D01*
X142148479Y-59671909D01*
X142161089Y-59645922D01*
X142161470Y-59640546D01*
X142163533Y-59635568D01*
X142166415Y-59606304D01*
X142164006Y-59343044D01*
X142165237Y-59339352D01*
X142163785Y-59318923D01*
X142163533Y-59291326D01*
X142161470Y-59286347D01*
X142161089Y-59280972D01*
X142150579Y-59253508D01*
X142053200Y-59064409D01*
X142045898Y-59046779D01*
X142041129Y-59040968D01*
X142039676Y-59038146D01*
X142036682Y-59035549D01*
X142027243Y-59024048D01*
X141939813Y-58939638D01*
X142723558Y-58939638D01*
X142726440Y-60968902D01*
X142748838Y-61022974D01*
X142790222Y-61064358D01*
X142844294Y-61086756D01*
X142873558Y-61089638D01*
X143855203Y-61086756D01*
X143909275Y-61064358D01*
X143950659Y-61022974D01*
X143973057Y-60968902D01*
X143973057Y-60920878D01*
X144248546Y-60920878D01*
X144252695Y-60979258D01*
X144278869Y-61031605D01*
X144323083Y-61069952D01*
X144378608Y-61088460D01*
X144436988Y-61084311D01*
X144489335Y-61058137D01*
X144527682Y-61013923D01*
X144539671Y-60987072D01*
X144695361Y-60517893D01*
X145433574Y-60515726D01*
X145600387Y-61013923D01*
X145638734Y-61058137D01*
X145691081Y-61084311D01*
X145749461Y-61088460D01*
X145804986Y-61069952D01*
X145849200Y-61031604D01*
X145875374Y-60979257D01*
X145879523Y-60920877D01*
X145873003Y-60892204D01*
X145219220Y-58939638D01*
X146247368Y-58939638D01*
X146250250Y-60968902D01*
X146272648Y-61022974D01*
X146314032Y-61064358D01*
X146368104Y-61086756D01*
X146426632Y-61086756D01*
X146480704Y-61064358D01*
X146522088Y-61022974D01*
X146544486Y-60968902D01*
X146547368Y-60939638D01*
X146546227Y-60136714D01*
X146794672Y-60135809D01*
X147436483Y-61047978D01*
X147485840Y-61079431D01*
X147543476Y-61089602D01*
X147600617Y-61076943D01*
X147648565Y-61043380D01*
X147680019Y-60994022D01*
X147690189Y-60936387D01*
X147677530Y-60879245D01*
X147663110Y-60853618D01*
X147157398Y-60134879D01*
X147163194Y-60134467D01*
X147188537Y-60134375D01*
X147193514Y-60132313D01*
X147198892Y-60131931D01*
X147226355Y-60121421D01*
X147415456Y-60024041D01*
X147433085Y-60016739D01*
X147438893Y-60011971D01*
X147441717Y-60010518D01*
X147444314Y-60007523D01*
X147455816Y-59998084D01*
X147550502Y-59900008D01*
X147563486Y-59888748D01*
X147567444Y-59882459D01*
X147569709Y-59880114D01*
X147571225Y-59876452D01*
X147579151Y-59863862D01*
X147662499Y-59692085D01*
X147664945Y-59689640D01*
X147672289Y-59671909D01*
X147684899Y-59645922D01*
X147685280Y-59640546D01*
X147687343Y-59635568D01*
X147690225Y-59606304D01*
X147687816Y-59343044D01*
X147689047Y-59339352D01*
X147687713Y-59320590D01*
X148152130Y-59320590D01*
X148154341Y-59489203D01*
X148153308Y-59492304D01*
X148154625Y-59510843D01*
X148155012Y-59540330D01*
X148157073Y-59545307D01*
X148157456Y-59550685D01*
X148167966Y-59578148D01*
X148265344Y-59767246D01*
X148272647Y-59784877D01*
X148277415Y-59790687D01*
X148278869Y-59793510D01*
X148281863Y-59796106D01*
X148291302Y-59807608D01*
X148389376Y-59902293D01*
X148400638Y-59915279D01*
X148406926Y-59919237D01*
X148409271Y-59921501D01*
X148412929Y-59923016D01*
X148425523Y-59930944D01*
X148607983Y-60019476D01*
X148619010Y-60027647D01*
X148641047Y-60035519D01*
X148643463Y-60036692D01*
X148644543Y-60036768D01*
X148646702Y-60037540D01*
X149001672Y-60123711D01*
X149161701Y-60201359D01*
X149224357Y-60261850D01*
X149295401Y-60399810D01*
X149296979Y-60520133D01*
X149230883Y-60656352D01*
X149170392Y-60719009D01*
X149032893Y-60789815D01*
X148619328Y-60792173D01*
X148320891Y-60695578D01*
X148262510Y-60699727D01*
X148210163Y-60725901D01*
X148171816Y-60770115D01*
X148153308Y-60825639D01*
X148157457Y-60884020D01*
X148183631Y-60936367D01*
X148227845Y-60974714D01*
X148254696Y-60986702D01*
X148539856Y-61079000D01*
X148558580Y-61086756D01*
X148566109Y-61087497D01*
X148569083Y-61088460D01*
X148573032Y-61088179D01*
X148587844Y-61089638D01*
X149041054Y-61087053D01*
X149045273Y-61088460D01*
X149067158Y-61086905D01*
X149093299Y-61086756D01*
X149098276Y-61084694D01*
X149103654Y-61084312D01*
X149131117Y-61073802D01*
X149320218Y-60976422D01*
X149337847Y-60969120D01*
X149343655Y-60964352D01*
X149346479Y-60962899D01*
X149349076Y-60959904D01*
X149360578Y-60950465D01*
X149455264Y-60852389D01*
X149468248Y-60841129D01*
X149472206Y-60834840D01*
X149474471Y-60832495D01*
X149475987Y-60828833D01*
X149483913Y-60816243D01*
X149567261Y-60644466D01*
X149569707Y-60642021D01*
X149577051Y-60624290D01*
X149589661Y-60598303D01*
X149590042Y-60592927D01*
X149592105Y-60587949D01*
X149594987Y-60558685D01*
X149592775Y-60390071D01*
X149593809Y-60386971D01*
X149592491Y-60368431D01*
X149592105Y-60338945D01*
X149590042Y-60333966D01*
X149589661Y-60328591D01*
X149579151Y-60301127D01*
X149481772Y-60112028D01*
X149474470Y-60094398D01*
X149469701Y-60088587D01*
X149468248Y-60085765D01*
X149465254Y-60083168D01*
X149455815Y-60071667D01*
X149357742Y-59976982D01*
X149346479Y-59963996D01*
X149340190Y-59960037D01*
X149337846Y-59957774D01*
X149334186Y-59956258D01*
X149321593Y-59948331D01*
X149139126Y-59859795D01*
X149128106Y-59851629D01*
X149106078Y-59843759D01*
X149103654Y-59842583D01*
X149102570Y-59842506D01*
X149100415Y-59841736D01*
X148745446Y-59755565D01*
X148585416Y-59677916D01*
X148522759Y-59617424D01*
X148451715Y-59479464D01*
X148450137Y-59359141D01*
X148516232Y-59222923D01*
X148576723Y-59160267D01*
X148714223Y-59089460D01*
X149127788Y-59087102D01*
X149426226Y-59183698D01*
X149484607Y-59179549D01*
X149536954Y-59153375D01*
X149575301Y-59109161D01*
X149593809Y-59053637D01*
X149589660Y-58995256D01*
X149563486Y-58942909D01*
X149519272Y-58904562D01*
X149492421Y-58892574D01*
X149207260Y-58800275D01*
X149188537Y-58792520D01*
X149181007Y-58791778D01*
X149178034Y-58790816D01*
X149174084Y-58791096D01*
X149159273Y-58789638D01*
X148706062Y-58792222D01*
X148701844Y-58790816D01*
X148679959Y-58792370D01*
X148653818Y-58792520D01*
X148648839Y-58794582D01*
X148643464Y-58794964D01*
X148616000Y-58805474D01*
X148426901Y-58902852D01*
X148409271Y-58910155D01*
X148403460Y-58914923D01*
X148400638Y-58916377D01*
X148398041Y-58919370D01*
X148386540Y-58928810D01*
X148291855Y-59026882D01*
X148278869Y-59038146D01*
X148274910Y-59044434D01*
X148272647Y-59046779D01*
X148271131Y-59050438D01*
X148263204Y-59063032D01*
X148179854Y-59234809D01*
X148177410Y-59237254D01*
X148170068Y-59254978D01*
X148157456Y-59280971D01*
X148157073Y-59286348D01*
X148155012Y-59291326D01*
X148152130Y-59320590D01*
X147687713Y-59320590D01*
X147687595Y-59318923D01*
X147687343Y-59291326D01*
X147685280Y-59286347D01*
X147684899Y-59280972D01*
X147674389Y-59253508D01*
X147577010Y-59064409D01*
X147569708Y-59046779D01*
X147564939Y-59040968D01*
X147563486Y-59038146D01*
X147560492Y-59035549D01*
X147551053Y-59024048D01*
X147452980Y-58929363D01*
X147441717Y-58916377D01*
X147435428Y-58912418D01*
X147433084Y-58910155D01*
X147429424Y-58908639D01*
X147416831Y-58900712D01*
X147245053Y-58817362D01*
X147242609Y-58814918D01*
X147224884Y-58807576D01*
X147198892Y-58794964D01*
X147193514Y-58794581D01*
X147188537Y-58792520D01*
X147159273Y-58789638D01*
X146368104Y-58792520D01*
X146314032Y-58814918D01*
X146272648Y-58856302D01*
X146250250Y-58910374D01*
X146247368Y-58939638D01*
X145219220Y-58939638D01*
X145209448Y-58910452D01*
X145208707Y-58900018D01*
X145200376Y-58883356D01*
X145194348Y-58865353D01*
X145187325Y-58857256D01*
X145182533Y-58847671D01*
X145168324Y-58835347D01*
X145156001Y-58821139D01*
X145146415Y-58816346D01*
X145138319Y-58809324D01*
X145120475Y-58803375D01*
X145103654Y-58794965D01*
X145092965Y-58794205D01*
X145082795Y-58790815D01*
X145064029Y-58792148D01*
X145045273Y-58790816D01*
X145035106Y-58794204D01*
X145024414Y-58794965D01*
X145007590Y-58803376D01*
X144989749Y-58809324D01*
X144981652Y-58816346D01*
X144972067Y-58821139D01*
X144959743Y-58835347D01*
X144945535Y-58847671D01*
X144940742Y-58857256D01*
X144933720Y-58865353D01*
X144921732Y-58892204D01*
X144445381Y-60327705D01*
X144440726Y-60338945D01*
X144440726Y-60341735D01*
X144248546Y-60920878D01*
X143973057Y-60920878D01*
X143973057Y-60910374D01*
X143950659Y-60856302D01*
X143909275Y-60814918D01*
X143855203Y-60792520D01*
X143825939Y-60789638D01*
X143023348Y-60791994D01*
X143022282Y-60041403D01*
X143569489Y-60039137D01*
X143623561Y-60016739D01*
X143664945Y-59975355D01*
X143687343Y-59921283D01*
X143687343Y-59862755D01*
X143664945Y-59808683D01*
X143623561Y-59767299D01*
X143569489Y-59744901D01*
X143540225Y-59742019D01*
X143021860Y-59744165D01*
X143020929Y-59089205D01*
X143855203Y-59086756D01*
X143909275Y-59064358D01*
X143950659Y-59022974D01*
X143973057Y-58968902D01*
X143973057Y-58910374D01*
X143950659Y-58856302D01*
X143909275Y-58814918D01*
X143855203Y-58792520D01*
X143825939Y-58789638D01*
X142844294Y-58792520D01*
X142790222Y-58814918D01*
X142748838Y-58856302D01*
X142726440Y-58910374D01*
X142723558Y-58939638D01*
X141939813Y-58939638D01*
X141929170Y-58929363D01*
X141917907Y-58916377D01*
X141911618Y-58912418D01*
X141909274Y-58910155D01*
X141905614Y-58908639D01*
X141893021Y-58900712D01*
X141721243Y-58817362D01*
X141718799Y-58814918D01*
X141701074Y-58807576D01*
X141675082Y-58794964D01*
X141669704Y-58794581D01*
X141664727Y-58792520D01*
X141635463Y-58789638D01*
X140844294Y-58792520D01*
X140790222Y-58814918D01*
X140748838Y-58856302D01*
X140726440Y-58910374D01*
X140723558Y-58939638D01*
X140501336Y-58939638D01*
X140501336Y-58567416D01*
X149817209Y-58567416D01*
X149817209Y-61311860D01*
G37*
G36*
X124210348Y-60218813D02*
G01*
X123670270Y-60220399D01*
X123939359Y-59409486D01*
X124210348Y-60218813D01*
G37*
G36*
X127741018Y-61311493D02*
G01*
X120901336Y-61311493D01*
X120901336Y-58939638D01*
X121123558Y-58939638D01*
X121126440Y-60968902D01*
X121148838Y-61022974D01*
X121190222Y-61064358D01*
X121244294Y-61086756D01*
X121302822Y-61086756D01*
X121356894Y-61064358D01*
X121398278Y-61022974D01*
X121420676Y-60968902D01*
X121423558Y-60939638D01*
X121421668Y-59608881D01*
X121804418Y-60425233D01*
X121811965Y-60445987D01*
X121816439Y-60450873D01*
X121819285Y-60456942D01*
X121836090Y-60472332D01*
X121851492Y-60489150D01*
X121857535Y-60491970D01*
X121862448Y-60496469D01*
X121883868Y-60504258D01*
X121904530Y-60513900D01*
X121911187Y-60514192D01*
X121917450Y-60516470D01*
X121940225Y-60515468D01*
X121963000Y-60516470D01*
X121969262Y-60514192D01*
X121975921Y-60513900D01*
X121996582Y-60504258D01*
X122018003Y-60496469D01*
X122022916Y-60491969D01*
X122028958Y-60489150D01*
X122044353Y-60472337D01*
X122061166Y-60456942D01*
X122066134Y-60448553D01*
X122068485Y-60445987D01*
X122069804Y-60442357D01*
X122076152Y-60431642D01*
X122457842Y-59609887D01*
X122459773Y-60968902D01*
X122482171Y-61022974D01*
X122523555Y-61064358D01*
X122577627Y-61086756D01*
X122636155Y-61086756D01*
X122690227Y-61064358D01*
X122731611Y-61022974D01*
X122754009Y-60968902D01*
X122756891Y-60939638D01*
X122756864Y-60920878D01*
X123124736Y-60920878D01*
X123128885Y-60979258D01*
X123155059Y-61031605D01*
X123199273Y-61069952D01*
X123254798Y-61088460D01*
X123313178Y-61084311D01*
X123365525Y-61058137D01*
X123403872Y-61013923D01*
X123415861Y-60987072D01*
X123571551Y-60517893D01*
X124309764Y-60515726D01*
X124476577Y-61013923D01*
X124514924Y-61058137D01*
X124567271Y-61084311D01*
X124625651Y-61088460D01*
X124681176Y-61069952D01*
X124725390Y-61031604D01*
X124751564Y-60979257D01*
X124755713Y-60920877D01*
X124749193Y-60892204D01*
X124095410Y-58939638D01*
X125123558Y-58939638D01*
X125126440Y-60968902D01*
X125148838Y-61022974D01*
X125190222Y-61064358D01*
X125244294Y-61086756D01*
X125302822Y-61086756D01*
X125356894Y-61064358D01*
X125398278Y-61022974D01*
X125420676Y-60968902D01*
X125423558Y-60939638D01*
X125420718Y-58939638D01*
X126075939Y-58939638D01*
X126078821Y-60968902D01*
X126101219Y-61022974D01*
X126142603Y-61064358D01*
X126196675Y-61086756D01*
X126255203Y-61086756D01*
X126309275Y-61064358D01*
X126350659Y-61022974D01*
X126373057Y-60968902D01*
X126375939Y-60939638D01*
X126373893Y-59499499D01*
X127236584Y-61004887D01*
X127244076Y-61022974D01*
X127250805Y-61029703D01*
X127255581Y-61038037D01*
X127271352Y-61050250D01*
X127285460Y-61064358D01*
X127294295Y-61068017D01*
X127301855Y-61073872D01*
X127321097Y-61079119D01*
X127339532Y-61086756D01*
X127349096Y-61086756D01*
X127358318Y-61089271D01*
X127378104Y-61086756D01*
X127398060Y-61086756D01*
X127406894Y-61083096D01*
X127416379Y-61081891D01*
X127433701Y-61071992D01*
X127452132Y-61064358D01*
X127458892Y-61057597D01*
X127467195Y-61052853D01*
X127479408Y-61037081D01*
X127493516Y-61022974D01*
X127497175Y-61014138D01*
X127503030Y-61006579D01*
X127508277Y-60987337D01*
X127515914Y-60968902D01*
X127517388Y-60953930D01*
X127518429Y-60950115D01*
X127518054Y-60947168D01*
X127518796Y-60939638D01*
X127515914Y-58910374D01*
X127493516Y-58856302D01*
X127452132Y-58814918D01*
X127398060Y-58792520D01*
X127339532Y-58792520D01*
X127285460Y-58814918D01*
X127244076Y-58856302D01*
X127221678Y-58910374D01*
X127218796Y-58939638D01*
X127220841Y-60379776D01*
X126358150Y-58874388D01*
X126350659Y-58856302D01*
X126343929Y-58849572D01*
X126339154Y-58841239D01*
X126323382Y-58829025D01*
X126309275Y-58814918D01*
X126300439Y-58811258D01*
X126292880Y-58805404D01*
X126273635Y-58800155D01*
X126255203Y-58792520D01*
X126245641Y-58792520D01*
X126236416Y-58790004D01*
X126216625Y-58792520D01*
X126196675Y-58792520D01*
X126187841Y-58796179D01*
X126178356Y-58797385D01*
X126161033Y-58807283D01*
X126142603Y-58814918D01*
X126135842Y-58821678D01*
X126127540Y-58826423D01*
X126115326Y-58842194D01*
X126101219Y-58856302D01*
X126097559Y-58865137D01*
X126091705Y-58872697D01*
X126086456Y-58891941D01*
X126078821Y-58910374D01*
X126077347Y-58925340D01*
X126076305Y-58929161D01*
X126076680Y-58932112D01*
X126075939Y-58939638D01*
X125420718Y-58939638D01*
X125420676Y-58910374D01*
X125398278Y-58856302D01*
X125356894Y-58814918D01*
X125302822Y-58792520D01*
X125244294Y-58792520D01*
X125190222Y-58814918D01*
X125148838Y-58856302D01*
X125126440Y-58910374D01*
X125123558Y-58939638D01*
X124095410Y-58939638D01*
X124085638Y-58910452D01*
X124084897Y-58900018D01*
X124076566Y-58883356D01*
X124070538Y-58865353D01*
X124063515Y-58857256D01*
X124058723Y-58847671D01*
X124044514Y-58835347D01*
X124032191Y-58821139D01*
X124022605Y-58816346D01*
X124014509Y-58809324D01*
X123996665Y-58803375D01*
X123979844Y-58794965D01*
X123969155Y-58794205D01*
X123958985Y-58790815D01*
X123940219Y-58792148D01*
X123921463Y-58790816D01*
X123911296Y-58794204D01*
X123900604Y-58794965D01*
X123883780Y-58803376D01*
X123865939Y-58809324D01*
X123857842Y-58816346D01*
X123848257Y-58821139D01*
X123835933Y-58835347D01*
X123821725Y-58847671D01*
X123816932Y-58857256D01*
X123809910Y-58865353D01*
X123797922Y-58892204D01*
X123321571Y-60327705D01*
X123316916Y-60338945D01*
X123316916Y-60341735D01*
X123124736Y-60920878D01*
X122756864Y-60920878D01*
X122754053Y-58941850D01*
X122755152Y-58916863D01*
X122754013Y-58913732D01*
X122754009Y-58910374D01*
X122744045Y-58886321D01*
X122735151Y-58861861D01*
X122732891Y-58859394D01*
X122731611Y-58856302D01*
X122713195Y-58837886D01*
X122695623Y-58818698D01*
X122692592Y-58817283D01*
X122690227Y-58814918D01*
X122666168Y-58804952D01*
X122642586Y-58793947D01*
X122639245Y-58793800D01*
X122636155Y-58792520D01*
X122610107Y-58792520D01*
X122584115Y-58791378D01*
X122580974Y-58792520D01*
X122577627Y-58792520D01*
X122553573Y-58802483D01*
X122529113Y-58811378D01*
X122526645Y-58813637D01*
X122523555Y-58814918D01*
X122505150Y-58833322D01*
X122485950Y-58850906D01*
X122483600Y-58854872D01*
X122482171Y-58856302D01*
X122480816Y-58859572D01*
X122470963Y-58876206D01*
X121941155Y-60016846D01*
X121407745Y-58879157D01*
X121398278Y-58856302D01*
X121395927Y-58853951D01*
X121394499Y-58850905D01*
X121375291Y-58833315D01*
X121356894Y-58814918D01*
X121353803Y-58813637D01*
X121351336Y-58811378D01*
X121326870Y-58802481D01*
X121302822Y-58792520D01*
X121299476Y-58792520D01*
X121296333Y-58791377D01*
X121270328Y-58792520D01*
X121244294Y-58792520D01*
X121241203Y-58793800D01*
X121237862Y-58793947D01*
X121214262Y-58804959D01*
X121190222Y-58814918D01*
X121187858Y-58817281D01*
X121184825Y-58818697D01*
X121167235Y-58837904D01*
X121148838Y-58856302D01*
X121147557Y-58859392D01*
X121145298Y-58861860D01*
X121136401Y-58886325D01*
X121126440Y-58910374D01*
X121125988Y-58914962D01*
X121125297Y-58916863D01*
X121125452Y-58920401D01*
X121123558Y-58939638D01*
X120901336Y-58939638D01*
X120901336Y-58567782D01*
X127741018Y-58567782D01*
X127741018Y-61311493D01*
G37*
D10*
G36*
X96123346Y-57781290D02*
G01*
X96197555Y-57854080D01*
X96236246Y-57929215D01*
X96280864Y-58102645D01*
X96282006Y-58227417D01*
X96239980Y-58400540D01*
X96201255Y-58480350D01*
X96126978Y-58556076D01*
X96013899Y-58594867D01*
X95859292Y-58595749D01*
X95858083Y-57744398D01*
X96006750Y-57743551D01*
X96123346Y-57781290D01*
G37*
G36*
X96541937Y-58855930D02*
G01*
X93503049Y-58855930D01*
X93503049Y-58098390D01*
X93614160Y-58098390D01*
X93615427Y-58236969D01*
X93614249Y-58244893D01*
X93615583Y-58253917D01*
X93615601Y-58255879D01*
X93616023Y-58256900D01*
X93616399Y-58259437D01*
X93663916Y-58444135D01*
X93664442Y-58451532D01*
X93668644Y-58462514D01*
X93668965Y-58463759D01*
X93669287Y-58464194D01*
X93669697Y-58465264D01*
X93718387Y-58559816D01*
X93722037Y-58568628D01*
X93724420Y-58571532D01*
X93725148Y-58572945D01*
X93726646Y-58574244D01*
X93731365Y-58579994D01*
X93819534Y-58666479D01*
X93820386Y-58668183D01*
X93828030Y-58674813D01*
X93837968Y-58684561D01*
X93840458Y-58685592D01*
X93842493Y-58687357D01*
X93855919Y-58693351D01*
X93998500Y-58739500D01*
X94007861Y-58743378D01*
X94011624Y-58743748D01*
X94013112Y-58744230D01*
X94015086Y-58744089D01*
X94022493Y-58744819D01*
X94117810Y-58743568D01*
X94127111Y-58744230D01*
X94130765Y-58743398D01*
X94132363Y-58743378D01*
X94134194Y-58742619D01*
X94141448Y-58740970D01*
X94273238Y-58695759D01*
X94275220Y-58695759D01*
X94284772Y-58691802D01*
X94297730Y-58687357D01*
X94299765Y-58685591D01*
X94302256Y-58684560D01*
X94313622Y-58675232D01*
X94370568Y-58616247D01*
X94377849Y-58598668D01*
X94381766Y-58589212D01*
X94383207Y-58574580D01*
X94381766Y-58226615D01*
X94370567Y-58199579D01*
X94349875Y-58178887D01*
X94322839Y-58167688D01*
X94308207Y-58166247D01*
X94103099Y-58167688D01*
X94076063Y-58178887D01*
X94055371Y-58199579D01*
X94044172Y-58226615D01*
X94044172Y-58255879D01*
X94055371Y-58282915D01*
X94076063Y-58303607D01*
X94103099Y-58314806D01*
X94117731Y-58316247D01*
X94233514Y-58315433D01*
X94234456Y-58543006D01*
X94221651Y-58556269D01*
X94108944Y-58594934D01*
X94037566Y-58595870D01*
X93921639Y-58558348D01*
X93847431Y-58485558D01*
X93808739Y-58410421D01*
X93764121Y-58236991D01*
X93762979Y-58112219D01*
X93805005Y-57939096D01*
X93843730Y-57859286D01*
X93918009Y-57783561D01*
X94031174Y-57744739D01*
X94145802Y-57743690D01*
X94240778Y-57789775D01*
X94269968Y-57791849D01*
X94297730Y-57782595D01*
X94319837Y-57763422D01*
X94332925Y-57737247D01*
X94334999Y-57708057D01*
X94325745Y-57680296D01*
X94316659Y-57669819D01*
X94661779Y-57669819D01*
X94663220Y-58684451D01*
X94674419Y-58711487D01*
X94695111Y-58732179D01*
X94722147Y-58743378D01*
X94751411Y-58743378D01*
X94778447Y-58732179D01*
X94799139Y-58711487D01*
X94810338Y-58684451D01*
X94811779Y-58669819D01*
X94810756Y-57949749D01*
X95242103Y-58702448D01*
X95245847Y-58711487D01*
X95249209Y-58714849D01*
X95251599Y-58719019D01*
X95259487Y-58725127D01*
X95266539Y-58732179D01*
X95270957Y-58734009D01*
X95274737Y-58736936D01*
X95284358Y-58739560D01*
X95293575Y-58743378D01*
X95298356Y-58743378D01*
X95302968Y-58744636D01*
X95312865Y-58743378D01*
X95322839Y-58743378D01*
X95327254Y-58741548D01*
X95331998Y-58740946D01*
X95340662Y-58735995D01*
X95349875Y-58732179D01*
X95353253Y-58728800D01*
X95357407Y-58726427D01*
X95363516Y-58718537D01*
X95370567Y-58711487D01*
X95372396Y-58707070D01*
X95375324Y-58703290D01*
X95377948Y-58693666D01*
X95381766Y-58684451D01*
X95382502Y-58676968D01*
X95383024Y-58675058D01*
X95382836Y-58673582D01*
X95383207Y-58669819D01*
X95381787Y-57669819D01*
X95709398Y-57669819D01*
X95710839Y-58684451D01*
X95722038Y-58711487D01*
X95742730Y-58732179D01*
X95769766Y-58743378D01*
X95784398Y-58744819D01*
X96021167Y-58743468D01*
X96031873Y-58744230D01*
X96035581Y-58743386D01*
X96037125Y-58743378D01*
X96038956Y-58742619D01*
X96046210Y-58740970D01*
X96178000Y-58695759D01*
X96179982Y-58695759D01*
X96189534Y-58691802D01*
X96202492Y-58687357D01*
X96204527Y-58685591D01*
X96207018Y-58684560D01*
X96218383Y-58675233D01*
X96312315Y-58579468D01*
X96319838Y-58572945D01*
X96321850Y-58569748D01*
X96322949Y-58568628D01*
X96323706Y-58566798D01*
X96327670Y-58560502D01*
X96371938Y-58469269D01*
X96376021Y-58463759D01*
X96379956Y-58452743D01*
X96380544Y-58451533D01*
X96380582Y-58450992D01*
X96380968Y-58449913D01*
X96426208Y-58263547D01*
X96429385Y-58255879D01*
X96430282Y-58246764D01*
X96430737Y-58244893D01*
X96430574Y-58243800D01*
X96430826Y-58241247D01*
X96429558Y-58102667D01*
X96430737Y-58094744D01*
X96429402Y-58085719D01*
X96429385Y-58083758D01*
X96428962Y-58082736D01*
X96428587Y-58080200D01*
X96381069Y-57895501D01*
X96380544Y-57888104D01*
X96376340Y-57877121D01*
X96376021Y-57875878D01*
X96375698Y-57875442D01*
X96375289Y-57874373D01*
X96326600Y-57779823D01*
X96322949Y-57771008D01*
X96320564Y-57768102D01*
X96319838Y-57766692D01*
X96318341Y-57765393D01*
X96313621Y-57759643D01*
X96225450Y-57673158D01*
X96224599Y-57671455D01*
X96216956Y-57664826D01*
X96207018Y-57655078D01*
X96204527Y-57654046D01*
X96202492Y-57652281D01*
X96189067Y-57646287D01*
X96046488Y-57600138D01*
X96037125Y-57596260D01*
X96033359Y-57595889D01*
X96031873Y-57595408D01*
X96029898Y-57595548D01*
X96022493Y-57594819D01*
X95769766Y-57596260D01*
X95742730Y-57607459D01*
X95722038Y-57628151D01*
X95710839Y-57655187D01*
X95709398Y-57669819D01*
X95381787Y-57669819D01*
X95381766Y-57655187D01*
X95370567Y-57628151D01*
X95349875Y-57607459D01*
X95322839Y-57596260D01*
X95293575Y-57596260D01*
X95266539Y-57607459D01*
X95245847Y-57628151D01*
X95234648Y-57655187D01*
X95233207Y-57669819D01*
X95234229Y-58389888D01*
X94802882Y-57637189D01*
X94799139Y-57628151D01*
X94795776Y-57624788D01*
X94793387Y-57620619D01*
X94785497Y-57614509D01*
X94778447Y-57607459D01*
X94774030Y-57605629D01*
X94770250Y-57602702D01*
X94760626Y-57600077D01*
X94751411Y-57596260D01*
X94746630Y-57596260D01*
X94742018Y-57595002D01*
X94732121Y-57596260D01*
X94722147Y-57596260D01*
X94717731Y-57598089D01*
X94712988Y-57598692D01*
X94704323Y-57603642D01*
X94695111Y-57607459D01*
X94691732Y-57610837D01*
X94687579Y-57613211D01*
X94681469Y-57621100D01*
X94674419Y-57628151D01*
X94672589Y-57632567D01*
X94669662Y-57636348D01*
X94667037Y-57645971D01*
X94663220Y-57655187D01*
X94662483Y-57662669D01*
X94661962Y-57664580D01*
X94662149Y-57666055D01*
X94661779Y-57669819D01*
X94316659Y-57669819D01*
X94306572Y-57658188D01*
X94294129Y-57650356D01*
X94208240Y-57608681D01*
X94207018Y-57607459D01*
X94198152Y-57603786D01*
X94185159Y-57597482D01*
X94182471Y-57597291D01*
X94179982Y-57596260D01*
X94165350Y-57594819D01*
X94023131Y-57596120D01*
X94013112Y-57595408D01*
X94009428Y-57596245D01*
X94007861Y-57596260D01*
X94006030Y-57597018D01*
X93998775Y-57598668D01*
X93866985Y-57643879D01*
X93865005Y-57643879D01*
X93855455Y-57647834D01*
X93842493Y-57652281D01*
X93840458Y-57654045D01*
X93837968Y-57655077D01*
X93826603Y-57664405D01*
X93732671Y-57760167D01*
X93725148Y-57766692D01*
X93723135Y-57769888D01*
X93722038Y-57771008D01*
X93721280Y-57772835D01*
X93717316Y-57779135D01*
X93673049Y-57870366D01*
X93668965Y-57875878D01*
X93665027Y-57886897D01*
X93664442Y-57888105D01*
X93664403Y-57888644D01*
X93664018Y-57889724D01*
X93618777Y-58076089D01*
X93615601Y-58083758D01*
X93614703Y-58092872D01*
X93614249Y-58094744D01*
X93614411Y-58095836D01*
X93614160Y-58098390D01*
X93503049Y-58098390D01*
X93503049Y-57483708D01*
X96541937Y-57483708D01*
X96541937Y-58855930D01*
G37*
X135866666Y-58254819D02*
X135866666Y-58969104D01*
X135866666Y-58969104D02*
X135819047Y-59111961D01*
X135819047Y-59111961D02*
X135723809Y-59207200D01*
X135723809Y-59207200D02*
X135580952Y-59254819D01*
X135580952Y-59254819D02*
X135485714Y-59254819D01*
X136771428Y-58588152D02*
X136771428Y-59254819D01*
X136533333Y-58207200D02*
X136295238Y-58921485D01*
X136295238Y-58921485D02*
X136914285Y-58921485D01*
X115866666Y-58454819D02*
X115866666Y-59169104D01*
X115866666Y-59169104D02*
X115819047Y-59311961D01*
X115819047Y-59311961D02*
X115723809Y-59407200D01*
X115723809Y-59407200D02*
X115580952Y-59454819D01*
X115580952Y-59454819D02*
X115485714Y-59454819D01*
X116247619Y-58454819D02*
X116866666Y-58454819D01*
X116866666Y-58454819D02*
X116533333Y-58835771D01*
X116533333Y-58835771D02*
X116676190Y-58835771D01*
X116676190Y-58835771D02*
X116771428Y-58883390D01*
X116771428Y-58883390D02*
X116819047Y-58931009D01*
X116819047Y-58931009D02*
X116866666Y-59026247D01*
X116866666Y-59026247D02*
X116866666Y-59264342D01*
X116866666Y-59264342D02*
X116819047Y-59359580D01*
X116819047Y-59359580D02*
X116771428Y-59407200D01*
X116771428Y-59407200D02*
X116676190Y-59454819D01*
X116676190Y-59454819D02*
X116390476Y-59454819D01*
X116390476Y-59454819D02*
X116295238Y-59407200D01*
X116295238Y-59407200D02*
X116247619Y-59359580D01*
D12*
%TO.C,J4*%
X135640000Y-52390000D02*
X135640000Y-53640000D01*
X135940000Y-52690000D02*
X135940000Y-57410000D01*
X135940000Y-54000000D02*
X136550000Y-54000000D01*
X135940000Y-55300000D02*
X136550000Y-55300000D01*
X135940000Y-57410000D02*
X154060000Y-57410000D01*
X136550000Y-53300000D02*
X136550000Y-56800000D01*
X136550000Y-56800000D02*
X153450000Y-56800000D01*
X136890000Y-52390000D02*
X135640000Y-52390000D01*
X137400000Y-52490000D02*
X137400000Y-52690000D01*
X137700000Y-52490000D02*
X137400000Y-52490000D01*
X137700000Y-52590000D02*
X137400000Y-52590000D01*
X137700000Y-52690000D02*
X137700000Y-52490000D01*
X138500000Y-52690000D02*
X138500000Y-53300000D01*
X138500000Y-53300000D02*
X136550000Y-53300000D01*
X138900000Y-56300000D02*
X139100000Y-56300000D01*
X138900000Y-56800000D02*
X138900000Y-56300000D01*
X139000000Y-56800000D02*
X139000000Y-56300000D01*
X139100000Y-56300000D02*
X139100000Y-56800000D01*
X140900000Y-56300000D02*
X141100000Y-56300000D01*
X140900000Y-56800000D02*
X140900000Y-56300000D01*
X141000000Y-56800000D02*
X141000000Y-56300000D01*
X141100000Y-56300000D02*
X141100000Y-56800000D01*
X142900000Y-56300000D02*
X143100000Y-56300000D01*
X142900000Y-56800000D02*
X142900000Y-56300000D01*
X143000000Y-56800000D02*
X143000000Y-56300000D01*
X143100000Y-56300000D02*
X143100000Y-56800000D01*
X144900000Y-56300000D02*
X145100000Y-56300000D01*
X144900000Y-56800000D02*
X144900000Y-56300000D01*
X145000000Y-56800000D02*
X145000000Y-56300000D01*
X145100000Y-56300000D02*
X145100000Y-56800000D01*
X146900000Y-56300000D02*
X147100000Y-56300000D01*
X146900000Y-56800000D02*
X146900000Y-56300000D01*
X147000000Y-56800000D02*
X147000000Y-56300000D01*
X147100000Y-56300000D02*
X147100000Y-56800000D01*
X148900000Y-56300000D02*
X149100000Y-56300000D01*
X148900000Y-56800000D02*
X148900000Y-56300000D01*
X149000000Y-56800000D02*
X149000000Y-56300000D01*
X149100000Y-56300000D02*
X149100000Y-56800000D01*
X150900000Y-56300000D02*
X151100000Y-56300000D01*
X150900000Y-56800000D02*
X150900000Y-56300000D01*
X151000000Y-56800000D02*
X151000000Y-56300000D01*
X151100000Y-56300000D02*
X151100000Y-56800000D01*
X151500000Y-53300000D02*
X151500000Y-52690000D01*
X153450000Y-53300000D02*
X151500000Y-53300000D01*
X153450000Y-56800000D02*
X153450000Y-53300000D01*
X154060000Y-52690000D02*
X135940000Y-52690000D01*
X154060000Y-54000000D02*
X153450000Y-54000000D01*
X154060000Y-55300000D02*
X153450000Y-55300000D01*
X154060000Y-57410000D02*
X154060000Y-52690000D01*
%TO.C,J1*%
X98890000Y-63670000D02*
X98890000Y-66330000D01*
X116730000Y-63670000D02*
X98890000Y-63670000D01*
X116730000Y-63670000D02*
X116730000Y-66330000D01*
X116730000Y-66330000D02*
X98890000Y-66330000D01*
X119330000Y-65000000D02*
X119330000Y-66330000D01*
X119330000Y-66330000D02*
X118000000Y-66330000D01*
%TO.C,J3*%
X115640000Y-52390000D02*
X115640000Y-53640000D01*
X115940000Y-52690000D02*
X115940000Y-57410000D01*
X115940000Y-54000000D02*
X116550000Y-54000000D01*
X115940000Y-55300000D02*
X116550000Y-55300000D01*
X115940000Y-57410000D02*
X134060000Y-57410000D01*
X116550000Y-53300000D02*
X116550000Y-56800000D01*
X116550000Y-56800000D02*
X133450000Y-56800000D01*
X116890000Y-52390000D02*
X115640000Y-52390000D01*
X117400000Y-52490000D02*
X117400000Y-52690000D01*
X117700000Y-52490000D02*
X117400000Y-52490000D01*
X117700000Y-52590000D02*
X117400000Y-52590000D01*
X117700000Y-52690000D02*
X117700000Y-52490000D01*
X118500000Y-52690000D02*
X118500000Y-53300000D01*
X118500000Y-53300000D02*
X116550000Y-53300000D01*
X118900000Y-56300000D02*
X119100000Y-56300000D01*
X118900000Y-56800000D02*
X118900000Y-56300000D01*
X119000000Y-56800000D02*
X119000000Y-56300000D01*
X119100000Y-56300000D02*
X119100000Y-56800000D01*
X120900000Y-56300000D02*
X121100000Y-56300000D01*
X120900000Y-56800000D02*
X120900000Y-56300000D01*
X121000000Y-56800000D02*
X121000000Y-56300000D01*
X121100000Y-56300000D02*
X121100000Y-56800000D01*
X122900000Y-56300000D02*
X123100000Y-56300000D01*
X122900000Y-56800000D02*
X122900000Y-56300000D01*
X123000000Y-56800000D02*
X123000000Y-56300000D01*
X123100000Y-56300000D02*
X123100000Y-56800000D01*
X124900000Y-56300000D02*
X125100000Y-56300000D01*
X124900000Y-56800000D02*
X124900000Y-56300000D01*
X125000000Y-56800000D02*
X125000000Y-56300000D01*
X125100000Y-56300000D02*
X125100000Y-56800000D01*
X126900000Y-56300000D02*
X127100000Y-56300000D01*
X126900000Y-56800000D02*
X126900000Y-56300000D01*
X127000000Y-56800000D02*
X127000000Y-56300000D01*
X127100000Y-56300000D02*
X127100000Y-56800000D01*
X128900000Y-56300000D02*
X129100000Y-56300000D01*
X128900000Y-56800000D02*
X128900000Y-56300000D01*
X129000000Y-56800000D02*
X129000000Y-56300000D01*
X129100000Y-56300000D02*
X129100000Y-56800000D01*
X130900000Y-56300000D02*
X131100000Y-56300000D01*
X130900000Y-56800000D02*
X130900000Y-56300000D01*
X131000000Y-56800000D02*
X131000000Y-56300000D01*
X131100000Y-56300000D02*
X131100000Y-56800000D01*
X131500000Y-53300000D02*
X131500000Y-52690000D01*
X133450000Y-53300000D02*
X131500000Y-53300000D01*
X133450000Y-56800000D02*
X133450000Y-53300000D01*
X134060000Y-52690000D02*
X115940000Y-52690000D01*
X134060000Y-54000000D02*
X133450000Y-54000000D01*
X134060000Y-55300000D02*
X133450000Y-55300000D01*
X134060000Y-57410000D02*
X134060000Y-52690000D01*
%TO.C,J2*%
X91800000Y-60550000D02*
X96200000Y-60550000D01*
X91800000Y-64950000D02*
X91800000Y-60550000D01*
X96200000Y-60550000D02*
X96200000Y-64950000D01*
X96200000Y-64950000D02*
X91800000Y-64950000D01*
%TD*%
M02*
