M48
; DRILL file {KiCad 8.0.5} date 2024-09-22T13:44:18+0200
; FORMAT={-:-/ absolute / metric / decimal}
; #@! TF.CreationDate,2024-09-22T13:44:18+02:00
; #@! TF.GenerationSoftware,Kicad,Pcbnew,8.0.5
; #@! TF.FileFunction,MixedPlating,1,2
FMAT,2
METRIC
; #@! TA.AperFunction,Plated,PTH,ComponentDrill
T1C0.600
; #@! TA.AperFunction,Plated,PTH,ComponentDrill
T2C0.800
; #@! TA.AperFunction,Plated,PTH,ComponentDrill
T3C1.000
; #@! TA.AperFunction,Plated,PTH,ComponentDrill
T4C1.100
; #@! TA.AperFunction,Plated,PTH,ComponentDrill
T5C1.170
; #@! TA.AperFunction,Plated,PTH,ComponentDrill
T6C1.200
; #@! TA.AperFunction,Plated,PTH,ComponentDrill
T7C1.240
; #@! TA.AperFunction,Plated,PTH,ComponentDrill
T8C1.270
; #@! TA.AperFunction,Plated,PTH,ComponentDrill
T9C1.290
; #@! TA.AperFunction,Plated,PTH,ComponentDrill
T10C1.320
; #@! TA.AperFunction,Plated,PTH,ComponentDrill
T11C1.700
; #@! TA.AperFunction,NonPlated,NPTH,ComponentDrill
T12C1.200
; #@! TA.AperFunction,NonPlated,NPTH,ComponentDrill
T13C4.300
%
G90
G05
T1
X52.73Y-147.38
X57.73Y-149.48
T2
X51.58Y-110.01
X51.58Y-112.55
X51.58Y-116.71
X51.58Y-119.25
X51.83Y-127.41
X51.83Y-131.46
X56.83Y-127.41
X56.83Y-131.46
X59.2Y-110.01
X59.2Y-112.55
X59.2Y-116.71
X59.2Y-119.25
X80.45Y-123.98
X80.45Y-126.52
X80.45Y-129.06
X80.45Y-131.6
X88.07Y-123.98
X88.07Y-126.52
X88.07Y-129.06
X88.07Y-131.6
X91.3Y-123.98
X91.3Y-126.52
X91.3Y-129.06
X91.3Y-131.6
X98.92Y-123.98
X98.92Y-126.52
X98.92Y-129.06
X98.92Y-131.6
X105.08Y-142.73
X105.08Y-148.78
X110.08Y-142.73
X110.08Y-148.78
X117.405Y-108.765
X117.405Y-116.385
X117.405Y-120.56
X117.405Y-128.18
X117.405Y-132.355
X117.405Y-139.975
X125.025Y-108.765
X125.025Y-116.385
X125.025Y-120.56
X125.025Y-128.18
X125.025Y-132.355
X125.025Y-139.975
X126.0Y-42.46
X126.0Y-45.61
X126.0Y-51.91
X126.0Y-55.06
X126.0Y-61.36
X126.0Y-64.51
X126.0Y-70.81
X126.0Y-80.26
X126.0Y-83.41
X126.0Y-89.71
X126.0Y-92.86
X126.21Y-73.8
X130.105Y-108.765
X130.105Y-116.385
X130.105Y-120.56
X130.105Y-128.18
X130.105Y-132.355
X130.105Y-139.975
X133.62Y-42.46
X133.62Y-45.61
X133.62Y-51.91
X133.62Y-55.06
X133.62Y-61.36
X133.62Y-64.51
X133.62Y-70.81
X133.62Y-80.26
X133.62Y-83.41
X133.62Y-89.71
X133.62Y-92.86
X133.83Y-73.8
X135.185Y-108.765
X135.185Y-116.385
X135.185Y-120.56
X135.185Y-128.18
X135.185Y-132.355
X135.185Y-139.975
X137.46Y-64.41
X137.46Y-70.96
X137.46Y-77.51
X137.46Y-84.06
X139.46Y-64.41
X139.46Y-70.96
X139.46Y-77.51
X139.46Y-84.06
X148.29Y-139.43
X148.29Y-143.58
X148.74Y-148.63
X150.79Y-139.43
X150.79Y-143.58
X152.7Y-116.98
X152.7Y-120.53
X152.7Y-124.08
X152.7Y-127.63
X152.7Y-131.18
X153.74Y-148.63
X153.94Y-135.28
X153.94Y-139.43
X153.94Y-143.58
X156.44Y-135.28
X156.44Y-139.43
X156.44Y-143.58
X159.53Y-139.58
X159.59Y-135.28
X159.59Y-143.58
X160.32Y-116.98
X160.32Y-120.53
X160.32Y-124.08
X160.32Y-127.63
X160.32Y-131.18
X162.03Y-139.58
X162.09Y-135.28
X162.09Y-143.58
X187.7Y-52.93
X187.7Y-58.01
X187.7Y-63.09
X187.7Y-70.71
X195.32Y-52.93
X195.32Y-58.01
X195.32Y-63.09
X195.32Y-70.71
X209.65Y-104.52
X209.65Y-112.14
X213.15Y-104.52
X213.15Y-112.14
X215.84Y-134.08
X215.84Y-137.58
X216.1Y-119.03
X216.1Y-121.57
X216.1Y-124.11
X216.1Y-126.65
X218.4Y-100.58
X218.4Y-104.52
X218.4Y-112.14
X218.4Y-115.33
X220.9Y-130.58
X221.9Y-104.52
X221.9Y-112.14
X223.4Y-100.58
X223.4Y-115.33
X223.4Y-130.58
X223.46Y-134.08
X223.46Y-137.58
X223.72Y-119.03
X223.72Y-121.57
X223.72Y-124.11
X223.72Y-126.65
T3
X61.03Y-123.66
X61.03Y-126.2
X61.03Y-128.74
X63.57Y-123.66
X63.57Y-126.2
X63.57Y-128.74
X95.165Y-143.23
X95.165Y-149.61
X97.665Y-143.23
X97.665Y-149.61
X100.165Y-143.23
X100.165Y-149.61
X138.57Y-48.91
X138.57Y-56.71
X141.07Y-48.91
X141.07Y-56.71
X144.0Y-72.46
X144.0Y-80.01
X148.02Y-48.91
X148.02Y-56.71
X150.52Y-48.91
X150.52Y-56.71
X154.0Y-72.46
X154.0Y-80.01
X157.47Y-41.11
X157.47Y-48.91
X157.47Y-56.71
X159.97Y-41.11
X159.97Y-48.91
X159.97Y-56.71
X210.4Y-94.83
X211.15Y-115.58
X211.15Y-125.58
X211.15Y-131.58
X211.15Y-134.08
X211.15Y-136.58
X212.9Y-94.83
X219.65Y-94.83
X222.15Y-94.83
T4
X53.19Y-137.41
X53.19Y-143.37
X55.73Y-137.41
X55.73Y-143.37
X58.27Y-137.41
X58.27Y-143.37
X139.09Y-97.08
X139.09Y-101.33
X139.09Y-105.58
X139.09Y-109.83
X139.09Y-114.08
X139.09Y-118.33
X139.09Y-122.58
X139.09Y-126.83
X139.09Y-131.08
X149.25Y-97.08
X149.25Y-101.33
X149.25Y-105.58
X149.25Y-109.83
X149.25Y-114.08
X149.25Y-118.33
X149.25Y-122.58
X149.25Y-126.83
X149.25Y-131.08
T5
X70.82Y-135.53
X70.82Y-140.53
X88.62Y-135.53
X88.62Y-140.53
T6
X55.454Y-46.51
X55.454Y-64.06
X55.454Y-81.61
X55.454Y-99.16
X62.954Y-46.51
X62.954Y-64.06
X62.954Y-81.61
X62.954Y-99.16
X143.7Y-86.36
X143.7Y-91.51
X156.4Y-86.36
X156.4Y-91.51
T7
X72.35Y-106.93
X72.35Y-117.68
X110.85Y-109.68
X110.85Y-117.68
T8
X70.85Y-43.825
X70.85Y-48.905
X70.85Y-84.465
X70.85Y-89.545
X121.65Y-41.285
X121.65Y-46.365
X121.65Y-87.005
X121.65Y-92.085
T9
X83.39Y-166.545
T10
X85.39Y-160.545
X85.39Y-172.545
X97.59Y-160.545
X97.59Y-172.545
T11
X118.645Y-146.86
X126.565Y-146.86
T12
X136.97Y-50.91
X136.97Y-58.71
X146.42Y-50.91
X146.42Y-58.71
X155.87Y-43.11
X155.87Y-50.91
X155.87Y-58.71
X214.5Y-92.83
X223.75Y-92.83
T13
X96.25Y-66.685
M30
